M48
METRIC,0000.00
T01C0.4
T02C0.8
T03C0.9
T04C1.0
T05C1.1
T06C1.8
T07C2.0
T08C2.2
T09C2.7
T10C3.0
%
T01
X+008700Y+004400
X+008600Y+004100
X+008700Y+003800
X+008700Y+003500
X+008600Y+003200
X+008700Y+002900
X+008300Y+002950
X+007900Y+002900
X+007900Y+003200
X+007900Y+003500
X+007900Y+003800
X+007900Y+004100
X+007900Y+004400
X+007790Y+004700
X+008300Y+004350
X+008300Y+003850
X+008300Y+003450
X+007560Y+003685
X+007421Y+003200
X+007426Y+002970
X+006930Y+002660
X+006455Y+003070
X+006481Y+003370
X+006355Y+003575
X+006260Y+003490
X+005940Y+003430
X+005780Y+003420
X+005740Y+003325
X+005655Y+003285
X+005860Y+003270
X+005460Y+003375
X+005300Y+003385
X+005220Y+003325
X+005135Y+003395
X+005380Y+003710
X+005465Y+004060
X+005690Y+004165
X+005960Y+003980
X+005860Y+003840
X+006315Y+003970
X+006416Y+004040
X+006436Y+004281
X+006433Y+004408
X+006436Y+004535
X+006436Y+004662
X+006436Y+004789
X+006431Y+004920
X+006436Y+005043
X+006436Y+005170
X+006820Y+005043
X+006820Y+004916
X+006820Y+004789
X+006820Y+004662
X+006820Y+004535
X+006820Y+004408
X+006820Y+004281
X+006840Y+004140
X+005860Y+004540
X+005690Y+004540
X+005185Y+004255
X+005120Y+004410
X+004965Y+004640
X+005040Y+004720
X+004673Y+004681
X+004671Y+004554
X+004662Y+004427
X+004662Y+004300
X+004780Y+004205
X+004715Y+004120
X+004780Y+004045
X+004715Y+003960
X+004515Y+004050
X+004425Y+004125
X+004280Y+004300
X+004280Y+004427
X+004280Y+004554
X+004280Y+004681
X+004280Y+004808
X+004280Y+004935
X+004280Y+005062
X+004280Y+005189
X+004465Y+005315
X+004365Y+005420
X+004490Y+005560
X+004280Y+005595
X+004180Y+005495
X+004115Y+005340
X+004030Y+005650
X+003930Y+005745
X+003825Y+005825
X+003445Y+005825
X+003310Y+006075
X+003095Y+006080
X+002980Y+005745
X+002885Y+005485
X+002696Y+005480
X+002600Y+005660
X+002400Y+005480
X+002200Y+005255
X+002480Y+004730
X+002604Y+004615
X+002585Y+004435
X+002670Y+004370
X+002745Y+004290
X+003000Y+004330
X+002963Y+004623
X+003200Y+004730
X+002890Y+004990
X+002791Y+004989
X+002295Y+004655
X+002345Y+004575
X+002425Y+004495
X+002170Y+004175
X+002105Y+004080
X+002225Y+003750
X+002510Y+003840
X+002665Y+003970
X+002790Y+003700
X+002665Y+003590
X+002645Y+003180
X+002510Y+003180
X+002425Y+002900
X+002345Y+002835
X+002270Y+002895
X+002550Y+002840
X+003080Y+003320
X+003090Y+003430
X+003375Y+003270
X+003425Y+002900
X+003570Y+002810
X+003560Y+002705
X+003905Y+002610
X+004032Y+002610
X+004159Y+002610
X+004287Y+002610
X+004413Y+002610
X+004541Y+002610
X+004668Y+002610
X+004795Y+002610
X+005130Y+002590
X+005125Y+002695
X+005170Y+002490
X+005968Y+002612
X+006095Y+002609
X+005185Y+001680
X+005115Y+001600
X+005050Y+001505
X+005000Y+001155
X+004925Y+001090
X+004825Y+001035
X+004385Y+000990
X+004200Y+000970
X+004135Y+001045
X+004080Y+001130
X+003565Y+001945
X+003480Y+002045
X+003420Y+002135
X+003905Y+003030
X+004030Y+003025
X+004160Y+003030
X+004130Y+003400
X+004130Y+003840
X+003915Y+004075
X+003570Y+004320
X+003645Y+004405
X+003710Y+004485
X+003725Y+004740
X+003375Y+004040
X+003465Y+003955
X+003245Y+004060
X+002990Y+003990
X+003090Y+003840
X+001935Y+003510
X+001885Y+003590
X+001768Y+003593
X+001870Y+003430
X+001935Y+003350
X+001790Y+003270
X+001725Y+003180
X+001710Y+003370
X+001640Y+002650
X+000780Y+002910
X+000650Y+003280
X+000780Y+003332
X+000845Y+003635
X+000595Y+004010
X+000805Y+004120
X+000780Y+004335
X+000860Y+004400
X+000945Y+004470
X+001020Y+004545
X+001085Y+004615
X+001125Y+004705
X+001395Y+004870
X+001485Y+004785
X+001485Y+005325
X+001445Y+005425
X+001480Y+006080
X+001710Y+006080
X+002310Y+006090
X+002500Y+006084
X+002530Y+007195
X+002581Y+007330
X+002454Y+007330
X+002327Y+007330
X+002708Y+007330
X+002835Y+007330
X+002962Y+007330
X+003089Y+007330
X+003216Y+007330
X+002885Y+007165
X+003365Y+006960
X+003725Y+007360
X+004080Y+007710
X+003750Y+008020
X+004265Y+008140
X+004535Y+008735
X+005535Y+008140
X+005405Y+007700
X+005170Y+007570
X+005275Y+007355
X+005020Y+007275
X+004895Y+007275
X+004805Y+007555
X+005625Y+007310
X+005785Y+007415
X+006015Y+007375
X+006075Y+006730
X+005700Y+006650
X+005145Y+006630
X+004635Y+006695
X+004605Y+006220
X+004605Y+006085
X+004377Y+005877
X+004255Y+005875
X+004720Y+005555
X+004740Y+005445
X+004680Y+005185
X+004666Y+005062
X+004672Y+004935
X+004670Y+004808
X+005340Y+005600
X+005660Y+005660
X+005660Y+005525
X+005660Y+005425
X+005990Y+005615
X+006121Y+005611
X+006121Y+006040
X+005994Y+006042
X+005740Y+006038
X+005340Y+006125
X+006455Y+006205
X+006835Y+006210
X+007250Y+006215
X+007655Y+006205
X+008055Y+006205
X+008465Y+006215
X+008865Y+006215
X+009255Y+006195
X+009495Y+005855
X+009730Y+005600
X+009500Y+005340
X+009245Y+005590
X+008715Y+004800
X+008015Y+005318
X+007825Y+005318
X+007680Y+005318
X+007490Y+005318
X+007345Y+005318
X+007155Y+005318
X+007015Y+005318
X+007015Y+005788
X+007155Y+005788
X+007345Y+005788
X+007490Y+005788
X+007680Y+005788
X+007825Y+005788
X+008015Y+005788
X+006825Y+005788
X+006765Y+006905
X+006892Y+006905
X+007019Y+006905
X+007146Y+006905
X+007273Y+006905
X+007400Y+006905
X+007400Y+007300
X+007273Y+007300
X+007146Y+007300
X+007019Y+007300
X+006892Y+007300
X+006765Y+007300
X+006827Y+007620
X+006954Y+007605
X+007081Y+007605
X+007208Y+007605
X+007335Y+007605
X+007462Y+007605
X+007589Y+007605
X+007716Y+007605
X+007685Y+007300
X+008300Y+008020
X+008465Y+007860
X+008630Y+007685
X+008740Y+007685
X+008730Y+007340
X+008858Y+007342
X+009000Y+007100
X+009112Y+006990
X+009239Y+006870
X+009370Y+006710
X+009285Y+008010
X+008935Y+008705
X+009610Y+008820
X+006570Y+008020
X+006570Y+007860
X+006511Y+006905
X+006638Y+006905
X+005955Y+009335
X+002080Y+008020
X+002077Y+007860
X+001945Y+007705
X+001566Y+007330
X+001439Y+007330
X+001312Y+007330
X+001185Y+007330
X+001058Y+007330
X+000931Y+007330
X+000804Y+007330
X+000677Y+007330
X+000180Y+007140
X+000423Y+007860
X+000425Y+008020
X+000680Y+006080
X+000895Y+006080
X+000610Y+005555
X+000670Y+005475
X+001085Y+004055
X+001205Y+004070
X+000300Y+003030
X+000455Y+002490
X+004565Y+003180
X+004720Y+003265
X+004640Y+003350
X+009800Y+003400
X+009800Y+000800
X+009200Y+000200
T02
X+007575Y+000220
X+007225Y+000220
X+006775Y+000220
X+006425Y+000220
X+005975Y+000220
X+005625Y+000220
X+005175Y+000220
X+004825Y+000220
X+004375Y+000220
X+004025Y+000220
X+003575Y+000220
X+003225Y+000220
X+002775Y+000220
X+002425Y+000220
X+001975Y+000220
X+001975Y+000820
X+002425Y+000820
X+002775Y+000820
X+003225Y+000820
X+003575Y+000820
X+004025Y+000820
X+004375Y+000820
X+004825Y+000820
X+005175Y+000820
X+005625Y+000820
X+005975Y+000820
X+006425Y+000820
X+006775Y+000820
X+007225Y+000820
X+007575Y+000820
X+008025Y+000820
X+008025Y+000220
X+006032Y+006900
X+005778Y+006900
X+005524Y+006900
X+005270Y+006900
X+005016Y+006900
X+004762Y+006900
X+004508Y+006900
X+004254Y+006900
X+004000Y+006900
X+004000Y+008424
X+004254Y+008424
X+004508Y+008424
X+004762Y+008424
X+005016Y+008424
X+005270Y+008424
X+005524Y+008424
X+005778Y+008424
X+006032Y+008424
T03
X+008344Y+005254
X+008344Y+005000
X+008344Y+004746
X+009470Y+003655
X+009470Y+003215
X+009572Y+009092
T04
X+008900Y+000745
X+009150Y+000745
X+009400Y+000745
X+009400Y+002195
X+008900Y+002195
X+007850Y+002310G85X+007750Y+002310
X+007850Y+001840G85X+007750Y+001840
X+007850Y+001370G85X+007750Y+001370
X+007050Y+001370G85X+006950Y+001370
X+007050Y+001840G85X+006950Y+001840
X+007050Y+002310G85X+006950Y+002310
X+006250Y+002310G85X+006150Y+002310
X+006250Y+001840G85X+006150Y+001840
X+006250Y+001370G85X+006150Y+001370
X+005450Y+001370G85X+005350Y+001370
X+005450Y+001840G85X+005350Y+001840
X+005450Y+002310G85X+005350Y+002310
X+004650Y+002310G85X+004550Y+002310
X+004650Y+001840G85X+004550Y+001840
X+004650Y+001370G85X+004550Y+001370
X+003850Y+001370G85X+003750Y+001370
X+003850Y+001840G85X+003750Y+001840
X+003850Y+002310G85X+003750Y+002310
X+003050Y+002310G85X+002950Y+002310
X+003050Y+001840G85X+002950Y+001840
X+003050Y+001370G85X+002950Y+001370
X+002250Y+001370G85X+002150Y+001370
X+002250Y+001840G85X+002150Y+001840
X+002250Y+002310G85X+002150Y+002310
X+001200Y+002200
X+000950Y+002200
X+000700Y+002200
T05
X+007286Y+009092
X+007540Y+009092
X+007794Y+009092
X+008048Y+009092
X+008302Y+009092
X+008556Y+009092
X+008810Y+009092
X+009064Y+009092
X+009064Y+009600
X+008810Y+009600
X+008556Y+009600
X+008302Y+009600
X+008048Y+009600
X+007794Y+009600
X+007540Y+009600
X+007286Y+009600
X+007032Y+009600
X+006778Y+009600
X+006524Y+009600
X+006270Y+009600
X+006016Y+009600
X+005762Y+009600
X+005508Y+009600
X+005254Y+009600
X+004746Y+009600
X+004492Y+009600
X+004238Y+009600
X+003984Y+009600
X+003730Y+009600
X+003476Y+009600
X+003222Y+009600
X+002968Y+009600
X+002714Y+009600
X+002460Y+009600
X+002206Y+009600
X+001952Y+009600
X+001698Y+009600
X+001444Y+009600
X+001190Y+009600
X+000936Y+009600
X+000936Y+009092
X+001190Y+009092
X+001444Y+009092
X+001698Y+009092
X+001952Y+009092
X+002206Y+009092
X+002460Y+009092
X+002714Y+009092
X+003476Y+009092
X+003730Y+009092
X+003984Y+009092
X+004238Y+009092
X+004746Y+009092
X+005000Y+009092
X+005254Y+009092
X+005508Y+009092
X+006016Y+009092
X+006270Y+009092
X+006524Y+009092
X+006778Y+009092
X+000320Y+005440
X+000320Y+005186
X+000320Y+004932
X+000320Y+004678
X+000320Y+004424
X+000320Y+004170
T06
X+009050Y+005000
T07
X+009490Y+005000
T08
X+001535Y+001500
X+000365Y+001500
T09
X+000300Y+009700
X+009700Y+009700
X+009700Y+000300
X+000300Y+000300
T10
X+008565Y+001495
X+009735Y+001495
T00
M30
