G04 DipTrace 2.4.0.2*
%INProtolautav2.3.4.GBO*%
%MOMM*%
%ADD10C,0.25*%
%ADD12C,0.025*%
%ADD103C,0.157*%
%ADD104C,0.235*%
%FSLAX53Y53*%
G04*
G71*
G90*
G75*
G01*
%LNBotSilk*%
%LPD*%
X25700Y33550D2*
D10*
X24500D1*
X28850Y34900D2*
Y33700D1*
X29150Y39100D2*
Y37900D1*
X78150Y42600D2*
Y41400D1*
Y40600D2*
Y39400D1*
Y33700D2*
Y32500D1*
Y31600D2*
Y30400D1*
X55650Y36500D2*
Y37700D1*
X57950Y44500D2*
Y43300D1*
X60550Y38050D2*
Y39250D1*
X39650Y34600D2*
Y33400D1*
X7750Y31100D2*
Y29900D1*
X27300Y47900D2*
X28500D1*
X22750Y79900D2*
Y81100D1*
X22650Y77750D2*
Y78950D1*
X67600Y79750D2*
Y80950D1*
X67650Y77750D2*
Y78950D1*
X6150Y79850D2*
Y81050D1*
Y77700D2*
Y78900D1*
X85550Y79900D2*
Y81100D1*
X86900Y77650D2*
Y78850D1*
X18681Y73614D2*
D12*
X20053D1*
X18681Y73589D2*
X20053D1*
X18478Y73563D2*
X20166D1*
X18275Y73538D2*
X20256D1*
X18275Y73513D2*
X20323D1*
X18173Y73487D2*
X20383D1*
X18088Y73462D2*
X20356D1*
X18011Y73436D2*
X20332D1*
X17940Y73411D2*
X20403D1*
X17879Y73386D2*
X20461D1*
X20561D2*
X20586D1*
X17822Y73360D2*
X20504D1*
X20561D2*
X20563D1*
X17769Y73335D2*
X20538D1*
X20637D2*
X20663D1*
X17721Y73309D2*
X20565D1*
X20664D2*
X20688D1*
X17677Y73284D2*
X20592D1*
X20688D2*
D3*
X17634Y73259D2*
X20618D1*
X17601Y73233D2*
X20639D1*
X17579Y73208D2*
X20653D1*
X17488Y73182D2*
X20790D1*
X17458Y73157D2*
X20790D1*
X17423Y73132D2*
X20790D1*
X17387Y73106D2*
X20866D1*
X17349Y73081D2*
X20870D1*
X17308Y73055D2*
X20879D1*
X20917D2*
X20942D1*
X17269Y73030D2*
X20948D1*
X17234Y73005D2*
X20966D1*
X17201Y72979D2*
X20988D1*
X17168Y72954D2*
X21011D1*
X17133Y72928D2*
X21036D1*
X17099Y72903D2*
X21061D1*
X17068Y72878D2*
X21086D1*
X17037Y72852D2*
X21111D1*
X17004Y72827D2*
X21137D1*
X16974Y72801D2*
X21163D1*
X16943Y72776D2*
X21192D1*
X16910Y72751D2*
X21222D1*
X16875Y72725D2*
X21250D1*
X16843Y72700D2*
X21270D1*
X16813Y72674D2*
X21286D1*
X16787Y72649D2*
X21300D1*
X16762Y72624D2*
X21317D1*
X16737Y72598D2*
X18504D1*
X19443D2*
X21336D1*
X16710Y72573D2*
X18504D1*
X19443D2*
X21359D1*
X16686Y72547D2*
X18324D1*
X19569D2*
X21383D1*
X16666Y72522D2*
X18148D1*
X19667D2*
X21408D1*
X16649Y72497D2*
X18148D1*
X19738D2*
X21433D1*
X16631Y72471D2*
X18060D1*
X19796D2*
X21460D1*
X16611Y72446D2*
X17990D1*
X19845D2*
X21487D1*
X16589Y72420D2*
X17932D1*
X19890D2*
X21515D1*
X16564Y72395D2*
X17881D1*
X19934D2*
X21540D1*
X16539Y72370D2*
X17837D1*
X19975D2*
X21560D1*
X16514Y72344D2*
X17793D1*
X20010D2*
X21577D1*
X16487Y72319D2*
X17752D1*
X20039D2*
X21595D1*
X16461Y72293D2*
X17717D1*
X20061D2*
X21614D1*
X16436Y72268D2*
X17686D1*
X20078D2*
X21630D1*
X16416Y72243D2*
X17658D1*
X20097D2*
X21643D1*
X16399Y72217D2*
X17632D1*
X20119D2*
X21657D1*
X16381Y72192D2*
X17607D1*
X20148D2*
X21676D1*
X16358Y72166D2*
X17580D1*
X20185D2*
X21698D1*
X16335Y72141D2*
X17552D1*
X20221D2*
X21721D1*
X16311Y72116D2*
X17524D1*
X20248D2*
X21742D1*
X16286Y72090D2*
X17499D1*
X20267D2*
X21762D1*
X16266Y72065D2*
X17481D1*
X20283D2*
X21779D1*
X16253Y72039D2*
X17468D1*
X20300D2*
X21798D1*
X16241Y72014D2*
X17456D1*
X20320D2*
X21816D1*
X16226Y71989D2*
X17438D1*
X20343D2*
X21833D1*
X16204Y71963D2*
X17417D1*
X20367D2*
X21846D1*
X16180Y71938D2*
X17394D1*
X20392D2*
X21860D1*
X16156Y71912D2*
X17369D1*
X20417D2*
X21879D1*
X16136Y71887D2*
X17345D1*
X20444D2*
X21901D1*
X16122Y71862D2*
X17326D1*
X20471D2*
X21924D1*
X16110Y71836D2*
X17309D1*
X20499D2*
X21945D1*
X16099Y71811D2*
X17291D1*
X20526D2*
X21964D1*
X16086Y71785D2*
X17269D1*
X20551D2*
X21978D1*
X16068Y71760D2*
X17247D1*
X20573D2*
X21990D1*
X16047Y71735D2*
X17228D1*
X20592D2*
X21999D1*
X16030Y71709D2*
X17214D1*
X20608D2*
X22006D1*
X16014Y71684D2*
X17202D1*
X20627D2*
X22015D1*
X15997Y71658D2*
X17191D1*
X20649D2*
X22029D1*
X15980Y71633D2*
X17178D1*
X20672D2*
X22044D1*
X15964Y71608D2*
X17160D1*
X20696D2*
X22060D1*
X15947Y71582D2*
X17140D1*
X20721D2*
X22077D1*
X15931Y71557D2*
X17124D1*
X20741D2*
X22092D1*
X15921Y71531D2*
X17112D1*
X20756D2*
X22103D1*
X15912Y71506D2*
X17101D1*
X20769D2*
X22111D1*
X15904Y71481D2*
X17087D1*
X20787D2*
X22119D1*
X15896Y71455D2*
X17073D1*
X20809D2*
X22127D1*
X15890Y71430D2*
X17064D1*
X20832D2*
X22133D1*
X15881Y71404D2*
X17059D1*
X20853D2*
X22142D1*
X15868Y71379D2*
X17056D1*
X20872D2*
X22156D1*
X15854Y71354D2*
X17052D1*
X20888D2*
X22170D1*
X15845Y71328D2*
X17045D1*
X20906D2*
X22182D1*
X15839Y71303D2*
X17037D1*
X20927D2*
X22193D1*
X15834Y71277D2*
X17026D1*
X20948D2*
X22204D1*
X15827Y71252D2*
X17012D1*
X20966D2*
X22216D1*
X15820Y71227D2*
X16997D1*
X20984D2*
X22231D1*
X15813Y71201D2*
X16988D1*
X21000D2*
X22245D1*
X15805Y71176D2*
X16983D1*
X21014D2*
X22254D1*
X15791Y71150D2*
X16979D1*
X21025D2*
X22260D1*
X15778Y71125D2*
X16972D1*
X21034D2*
X22266D1*
X15769Y71100D2*
X16959D1*
X21039D2*
X22273D1*
X15764Y71074D2*
X16946D1*
X21044D2*
X22279D1*
X15761Y71049D2*
X16936D1*
X21051D2*
X22284D1*
X15757Y71023D2*
X16928D1*
X21064D2*
X22287D1*
X15750Y70998D2*
X16920D1*
X21077D2*
X22289D1*
X15744Y70973D2*
X16913D1*
X21086D2*
X22296D1*
X15739Y70947D2*
X16908D1*
X21092D2*
X22309D1*
X15735Y70922D2*
X16905D1*
X21097D2*
X22324D1*
X15727Y70896D2*
X16904D1*
X21104D2*
X22339D1*
X15715Y70871D2*
X16904D1*
X21113D2*
X22356D1*
X15701Y70846D2*
X16903D1*
X21124D2*
X22371D1*
X15693Y70820D2*
X16903D1*
X21139D2*
X22381D1*
X15688Y70795D2*
X16903D1*
X21153D2*
X22386D1*
X15686Y70769D2*
X16903D1*
X21162D2*
X22388D1*
X15685Y70744D2*
X16903D1*
X21167D2*
X22389D1*
X15684Y70719D2*
X16903D1*
X21170D2*
X22391D1*
X15684Y70693D2*
X16903D1*
X21174D2*
X22394D1*
X15684Y70668D2*
X16903D1*
X21181D2*
X22400D1*
X15684Y70642D2*
X16903D1*
X21187D2*
X22407D1*
X15684Y70617D2*
X16903D1*
X21192D2*
X22411D1*
X15684Y70592D2*
X16903D1*
X21194D2*
X22413D1*
X15684Y70566D2*
X16903D1*
X21197D2*
X22414D1*
X15684Y70541D2*
X16903D1*
X21204D2*
X22415D1*
X15684Y70515D2*
X16903D1*
X21217D2*
X22415D1*
X15684Y70490D2*
X16903D1*
X21230D2*
X22417D1*
X15684Y70465D2*
X16903D1*
X21238D2*
X22421D1*
X15684Y70439D2*
X16903D1*
X21243D2*
X22435D1*
X15684Y70414D2*
X16903D1*
X21245D2*
X22449D1*
X15684Y70388D2*
X16903D1*
X21246D2*
X22458D1*
X15684Y70363D2*
X16903D1*
X21247D2*
X22462D1*
X15684Y70338D2*
X16903D1*
X21247D2*
X22465D1*
X15684Y70312D2*
X16903D1*
X21247D2*
X22465D1*
X15684Y70287D2*
X16903D1*
X21247D2*
X22466D1*
X15684Y70261D2*
X16903D1*
X21247D2*
X22466D1*
X15684Y70236D2*
X16903D1*
X21247D2*
X22466D1*
X15684Y70211D2*
X16903D1*
X21247D2*
X22466D1*
X15684Y70185D2*
X16903D1*
X21247D2*
X22466D1*
X15684Y70160D2*
X16903D1*
X21247D2*
X22466D1*
X15684Y70134D2*
X16903D1*
X21247D2*
X22466D1*
X15684Y70109D2*
X16903D1*
X21247D2*
X22466D1*
X15684Y70084D2*
X16903D1*
X21247D2*
X22466D1*
X15684Y70058D2*
X16903D1*
X21247D2*
X22466D1*
X15684Y70033D2*
X16903D1*
X21247D2*
X22466D1*
X15684Y70007D2*
X16903D1*
X21247D2*
X22466D1*
X15684Y69982D2*
X16903D1*
X21247D2*
X22466D1*
X15686Y69957D2*
X16903D1*
X21247D2*
X22466D1*
X15690Y69931D2*
X16903D1*
X21247D2*
X22466D1*
X15704Y69906D2*
X16903D1*
X21247D2*
X22466D1*
X15718Y69880D2*
X16903D1*
X21247D2*
X22466D1*
X15727Y69855D2*
X16904D1*
X21247D2*
X22466D1*
X15731Y69830D2*
X16908D1*
X21247D2*
X22466D1*
X15734Y69804D2*
X16914D1*
X21247D2*
X22466D1*
X15735Y69779D2*
X16922D1*
X21247D2*
X22466D1*
X15736Y69753D2*
X16933D1*
X21247D2*
X22466D1*
X15739Y69728D2*
X16948D1*
X21247D2*
X22466D1*
X15745Y69703D2*
X16962D1*
X21247D2*
X22466D1*
X15754Y69677D2*
X16973D1*
X21247D2*
X22466D1*
X15765Y69652D2*
X16984D1*
X21247D2*
X22466D1*
X15779Y69626D2*
X17000D1*
X21247D2*
X22466D1*
X15793Y69601D2*
X17017D1*
X21247D2*
X22466D1*
X15803Y69576D2*
X17032D1*
X21247D2*
X22466D1*
X15809Y69550D2*
X17046D1*
X21247D2*
X22466D1*
X15814Y69525D2*
X17060D1*
X21247D2*
X22466D1*
X15821Y69499D2*
X17079D1*
X21247D2*
X22466D1*
X15828Y69474D2*
X17101D1*
X21247D2*
X22466D1*
X15834Y69449D2*
X17124D1*
X21247D2*
X22466D1*
X15843Y69423D2*
X17149D1*
X21247D2*
X22466D1*
X15857Y69398D2*
X17173D1*
X21247D2*
X22466D1*
X15870Y69372D2*
X17192D1*
X20815D2*
X20942D1*
X21044D2*
X21069D1*
X21249D2*
X22466D1*
X15879Y69347D2*
X17209D1*
X20768D2*
X20942D1*
X21044D2*
X21052D1*
X21253D2*
X22466D1*
X15885Y69322D2*
X17227D1*
X20719D2*
X21035D1*
X21267D2*
X22466D1*
X15890Y69296D2*
X17249D1*
X20680D2*
X21031D1*
X21283D2*
X22466D1*
X15897Y69271D2*
X17271D1*
X20652D2*
X21042D1*
X21298D2*
X22466D1*
X15906Y69245D2*
X17290D1*
X20561D2*
X21053D1*
X21274D2*
X22466D1*
X15917Y69220D2*
X17304D1*
X20536D2*
X21061D1*
X21257D2*
X22466D1*
X15932Y69195D2*
X17318D1*
X20501D2*
X21066D1*
X21251D2*
X22466D1*
X15948Y69169D2*
X17336D1*
X20459D2*
X21062D1*
X21249D2*
X22466D1*
X15963Y69144D2*
X17364D1*
X20417D2*
X21049D1*
X21248D2*
X22466D1*
X15981Y69118D2*
X17399D1*
X20378D2*
X21036D1*
X21247D2*
X22466D1*
X15996Y69093D2*
X17436D1*
X20342D2*
X21026D1*
X21244D2*
X22464D1*
X16006Y69068D2*
X17473D1*
X20303D2*
X21027D1*
X21237D2*
X22460D1*
X16012Y69042D2*
X17513D1*
X20264D2*
X21046D1*
X21094D2*
X21145D1*
X21207D2*
X22446D1*
X16019Y69017D2*
X17548D1*
X20227D2*
X22432D1*
X16033Y68991D2*
X17574D1*
X20195D2*
X22423D1*
X16052Y68966D2*
X17583D1*
X20165D2*
X22418D1*
X16070Y68941D2*
X17592D1*
X20139D2*
X22412D1*
X16085Y68915D2*
X17607D1*
X20113D2*
X22405D1*
X16097Y68890D2*
X17629D1*
X20087D2*
X22398D1*
X16108Y68864D2*
X17659D1*
X20062D2*
X22392D1*
X16120Y68839D2*
X17695D1*
X20036D2*
X22383D1*
X16137Y68814D2*
X17735D1*
X17843D2*
X17869D1*
X20010D2*
X22370D1*
X16157Y68788D2*
X17776D1*
X17870D2*
X17894D1*
X19986D2*
X22356D1*
X16180Y68763D2*
X17821D1*
X17894D2*
D3*
X19961D2*
X22345D1*
X16201Y68737D2*
X17894D1*
X19932D2*
X22333D1*
X16218Y68712D2*
X17915D1*
X19896D2*
X22316D1*
X16232Y68687D2*
X17939D1*
X17996D2*
X18021D1*
X19856D2*
X22295D1*
X16247Y68661D2*
X17994D1*
X18023D2*
X18097D1*
X19816D2*
X22278D1*
X16266Y68636D2*
X17990D1*
X18046D2*
X18085D1*
X19778D2*
X22262D1*
X16288Y68610D2*
X18072D1*
X19740D2*
X22244D1*
X16311Y68585D2*
X18135D1*
X19701D2*
X22224D1*
X16336Y68560D2*
X18212D1*
X19654D2*
X22202D1*
X16362Y68534D2*
X18300D1*
X19600D2*
X22178D1*
X16388Y68509D2*
X18273D1*
X19546D2*
X22158D1*
X16416Y68483D2*
X18250D1*
X19487D2*
X22142D1*
X16447Y68458D2*
X18375D1*
X19417D2*
X22126D1*
X16476Y68433D2*
X18504D1*
X19332D2*
X22103D1*
X16504Y68407D2*
X18504D1*
X19219D2*
X22070D1*
X16530Y68382D2*
X18732D1*
X19073D2*
X20879D1*
X20898D2*
X22033D1*
X16554Y68356D2*
X20826D1*
X20962D2*
X22000D1*
X16573Y68331D2*
X20782D1*
X21009D2*
X21970D1*
X16588Y68306D2*
X20743D1*
X21045D2*
X21942D1*
X16602Y68280D2*
X20711D1*
X21075D2*
X21917D1*
X16621Y68255D2*
X20682D1*
X21102D2*
X21895D1*
X16644Y68229D2*
X20655D1*
X21128D2*
X21876D1*
X16666Y68204D2*
X20631D1*
X21152D2*
X21862D1*
X16691Y68179D2*
X20610D1*
X21169D2*
X21848D1*
X16720Y68153D2*
X20588D1*
X21182D2*
X21831D1*
X16756Y68128D2*
X20559D1*
X21180D2*
X21806D1*
X16796Y68102D2*
X20522D1*
X21175D2*
X21776D1*
X16835Y68077D2*
X20485D1*
X21165D2*
X21544D1*
X21609D2*
X21740D1*
X16874Y68052D2*
X20451D1*
X21151D2*
X21511D1*
X21629D2*
X21699D1*
X16912Y68026D2*
X20419D1*
X21138D2*
X21465D1*
X21653D2*
D3*
X16949Y68001D2*
X20388D1*
X21127D2*
X21416D1*
X16990Y67975D2*
X20352D1*
X21129D2*
X21367D1*
X17030Y67950D2*
X20312D1*
X21141D2*
X21315D1*
X17066Y67925D2*
X20272D1*
X21156D2*
X21265D1*
X17103Y67899D2*
X20231D1*
X21171D2*
X21221D1*
X17142Y67874D2*
X20188D1*
X17179Y67848D2*
X20145D1*
X17211Y67823D2*
X20100D1*
X17242Y67798D2*
X20051D1*
X17276Y67772D2*
X20002D1*
X17317Y67747D2*
X19952D1*
X17364Y67721D2*
X19901D1*
X17411Y67696D2*
X19854D1*
X17458Y67671D2*
X19810D1*
X17500Y67645D2*
X19768D1*
X17536Y67620D2*
X19734D1*
X17552Y67594D2*
X19713D1*
X17620Y67569D2*
X19610D1*
X17665Y67544D2*
X19550D1*
X17709Y67518D2*
X19494D1*
X17751Y67493D2*
X19438D1*
X17797Y67467D2*
X19365D1*
X17848Y67442D2*
X19262D1*
X17904Y67417D2*
X19139D1*
X17971Y67391D2*
X19139D1*
X18046Y67366D2*
X18986D1*
X34081Y59922D2*
X35123D1*
X34073Y59897D2*
X35131D1*
X34065Y59871D2*
X35139D1*
X34060Y59846D2*
X35144D1*
X34057Y59821D2*
X35147D1*
X34053Y59795D2*
X35152D1*
X34046Y59770D2*
X35158D1*
X34039Y59744D2*
X35165D1*
X34035Y59719D2*
X35170D1*
X34031Y59694D2*
X35173D1*
X34027Y59668D2*
X35177D1*
X34021Y59643D2*
X35184D1*
X34014Y59617D2*
X35190D1*
X34009Y59592D2*
X35195D1*
X34007Y59567D2*
X35197D1*
X34006Y59541D2*
X35199D1*
X34004Y59516D2*
X35203D1*
X34001Y59490D2*
X35209D1*
X33995Y59465D2*
X35216D1*
X33988Y59440D2*
X35220D1*
X33984Y59414D2*
X35223D1*
X33981Y59389D2*
X35225D1*
X33976Y59363D2*
X35228D1*
X33970Y59338D2*
X35235D1*
X33963Y59313D2*
X35241D1*
X33959Y59287D2*
X35246D1*
X33956Y59262D2*
X35249D1*
X33955Y59236D2*
X35253D1*
X33954Y59211D2*
X35260D1*
X33950Y59186D2*
X35267D1*
X33944Y59160D2*
X35271D1*
X33938Y59135D2*
X35273D1*
X33933Y59109D2*
X35275D1*
X32176Y59084D2*
X32278D1*
X33930D2*
X35276D1*
X36926D2*
X37028D1*
X32151Y59059D2*
X32312D1*
X33925D2*
X35279D1*
X36897D2*
X37053D1*
X32126Y59033D2*
X32346D1*
X33919D2*
X35285D1*
X36864D2*
X37079D1*
X32100Y59008D2*
X32380D1*
X33912D2*
X35292D1*
X36829D2*
X37104D1*
X32075Y58982D2*
X32414D1*
X33908D2*
X35297D1*
X36792D2*
X37129D1*
X32049Y58957D2*
X32451D1*
X33905D2*
X35300D1*
X36754D2*
X37155D1*
X32024Y58932D2*
X32488D1*
X33903D2*
X35304D1*
X36717D2*
X37180D1*
X31999Y58906D2*
X32526D1*
X33900D2*
X35311D1*
X36679D2*
X37206D1*
X31974Y58881D2*
X32562D1*
X33893D2*
X35318D1*
X36642D2*
X37230D1*
X31952Y58855D2*
X32594D1*
X33885D2*
X35324D1*
X36610D2*
X37252D1*
X31933Y58830D2*
X32623D1*
X33875D2*
X35332D1*
X36582D2*
X37271D1*
X31914Y58805D2*
X32651D1*
X33848D2*
X35357D1*
X36553D2*
X37290D1*
X31893Y58779D2*
X32683D1*
X33809D2*
X35396D1*
X36521D2*
X37311D1*
X31870Y58754D2*
X32718D1*
X33755D2*
X35450D1*
X36487D2*
X37334D1*
X31845Y58728D2*
X32755D1*
X33688D2*
X35516D1*
X36451D2*
X37359D1*
X31821Y58703D2*
X32793D1*
X33615D2*
X35590D1*
X36414D2*
X37384D1*
X31795Y58678D2*
X32831D1*
X33541D2*
X35663D1*
X36373D2*
X37409D1*
X31770Y58652D2*
X32872D1*
X33472D2*
X35732D1*
X36330D2*
X37434D1*
X31745Y58627D2*
X32914D1*
X33409D2*
X35795D1*
X36288D2*
X37460D1*
X31719Y58601D2*
X32955D1*
X33350D2*
X35854D1*
X36248D2*
X37485D1*
X31694Y58576D2*
X32998D1*
X33292D2*
X35912D1*
X36206D2*
X37510D1*
X31668Y58551D2*
X33049D1*
X33224D2*
X35980D1*
X36155D2*
X37536D1*
X31644Y58525D2*
X33115D1*
X33138D2*
X36066D1*
X36089D2*
X37560D1*
X31622Y58500D2*
X37582D1*
X31602Y58474D2*
X37602D1*
X31579Y58449D2*
X37622D1*
X31553Y58424D2*
X37646D1*
X31527Y58398D2*
X37674D1*
X31505Y58373D2*
X37699D1*
X31485Y58347D2*
X37719D1*
X31465Y58322D2*
X37722D1*
X31483Y58297D2*
X37710D1*
X31504Y58271D2*
X37692D1*
X31530Y58246D2*
X37670D1*
X31556Y58220D2*
X37649D1*
X31578Y58195D2*
X37630D1*
X31598Y58170D2*
X37609D1*
X31616Y58144D2*
X37590D1*
X31630Y58119D2*
X37575D1*
X31642Y58093D2*
X37563D1*
X31655Y58068D2*
X37549D1*
X31670Y58043D2*
X37534D1*
X31686Y58017D2*
X37518D1*
X31702Y57992D2*
X37502D1*
X31719Y57966D2*
X37485D1*
X31736Y57941D2*
X37468D1*
X31753Y57916D2*
X37451D1*
X31770Y57890D2*
X37434D1*
X31787Y57865D2*
X37417D1*
X31805Y57839D2*
X37400D1*
X31824Y57814D2*
X37383D1*
X31843Y57789D2*
X37367D1*
X31858Y57763D2*
X37353D1*
X31870Y57738D2*
X37339D1*
X31883Y57712D2*
X37323D1*
X31899Y57687D2*
X37307D1*
X31915Y57662D2*
X37290D1*
X31931Y57636D2*
X37273D1*
X31948Y57611D2*
X37256D1*
X31965Y57585D2*
X37240D1*
X31982Y57560D2*
X37223D1*
X31999Y57535D2*
X37206D1*
X32014Y57509D2*
X37190D1*
X32028Y57484D2*
X37176D1*
X32038Y57458D2*
X37166D1*
X32044Y57433D2*
X37160D1*
X32046Y57408D2*
X37158D1*
X32044Y57382D2*
X37160D1*
X32038Y57357D2*
X37166D1*
X32028Y57331D2*
X37176D1*
X32017Y57306D2*
X37187D1*
X32005Y57281D2*
X37200D1*
X31992Y57255D2*
X37212D1*
X31980Y57230D2*
X37225D1*
X31967Y57204D2*
X37237D1*
X31954Y57179D2*
X37250D1*
X31941Y57154D2*
X37263D1*
X31929Y57128D2*
X37275D1*
X31917Y57103D2*
X37288D1*
X31908Y57077D2*
X37301D1*
X31901Y57052D2*
X37313D1*
X31895Y57027D2*
X37322D1*
X31887Y57001D2*
X37329D1*
X31876Y56976D2*
X34499D1*
X34702D2*
X37335D1*
X31865Y56950D2*
X34373D1*
X34825D2*
X37342D1*
X31856Y56925D2*
X34269D1*
X34929D2*
X37350D1*
X31847Y56900D2*
X34186D1*
X35014D2*
X37358D1*
X31838Y56874D2*
X34120D1*
X35082D2*
X37367D1*
X31829Y56849D2*
X34065D1*
X35138D2*
X37375D1*
X31821Y56823D2*
X34018D1*
X35185D2*
X37383D1*
X31812Y56798D2*
X33977D1*
X35227D2*
X37392D1*
X31804Y56773D2*
X33941D1*
X35263D2*
X37401D1*
X31796Y56747D2*
X33909D1*
X35295D2*
X37410D1*
X31787Y56722D2*
X33881D1*
X35323D2*
X37422D1*
X31777Y56696D2*
X33858D1*
X35346D2*
X37437D1*
X31766Y56671D2*
X33838D1*
X35366D2*
X37455D1*
X31737Y56646D2*
X33819D1*
X35385D2*
X37479D1*
X31667Y56620D2*
X33798D1*
X35406D2*
X37545D1*
X31572Y56595D2*
X33775D1*
X35429D2*
X37639D1*
X31455Y56569D2*
X33751D1*
X35453D2*
X37757D1*
X31325Y56544D2*
X33730D1*
X35474D2*
X37886D1*
X31189Y56519D2*
X33712D1*
X35493D2*
X38020D1*
X31052Y56493D2*
X33696D1*
X35511D2*
X38155D1*
X30925Y56468D2*
X33681D1*
X35529D2*
X38281D1*
X30825Y56442D2*
X33666D1*
X35545D2*
X38380D1*
X30750Y56417D2*
X33649D1*
X35560D2*
X38454D1*
X30721Y56392D2*
X33634D1*
X35573D2*
X38483D1*
X30712Y56366D2*
X33620D1*
X35586D2*
X38493D1*
X30707Y56341D2*
X33610D1*
X35599D2*
X38498D1*
X30704Y56315D2*
X33602D1*
X35611D2*
X38500D1*
X30704Y56290D2*
X33593D1*
X35620D2*
X38501D1*
X30703Y56265D2*
X33579D1*
X35626D2*
X38501D1*
X30703Y56239D2*
X33564D1*
X35631D2*
X38501D1*
X30703Y56214D2*
X33552D1*
X35638D2*
X38501D1*
X30703Y56188D2*
X33541D1*
X35651D2*
X38501D1*
X30703Y56163D2*
X33532D1*
X35665D2*
X38501D1*
X30703Y56138D2*
X33523D1*
X35678D2*
X38501D1*
X30703Y56112D2*
X33514D1*
X35688D2*
X38501D1*
X30703Y56087D2*
X33507D1*
X35697D2*
X38501D1*
X30703Y56061D2*
X33502D1*
X35702D2*
X38501D1*
X30703Y56036D2*
X33499D1*
X35705D2*
X38501D1*
X30703Y56011D2*
X33498D1*
X35706D2*
X38501D1*
X30703Y55985D2*
X33497D1*
X35707D2*
X38501D1*
X30703Y55960D2*
X33497D1*
X35707D2*
X38501D1*
X30703Y55934D2*
X33497D1*
X35707D2*
X38501D1*
X30703Y55909D2*
X33497D1*
X35707D2*
X38501D1*
X30703Y55884D2*
X33497D1*
X35707D2*
X38501D1*
X30703Y55858D2*
X33497D1*
X35707D2*
X38501D1*
X30703Y55833D2*
X33497D1*
X35707D2*
X38501D1*
X30703Y55807D2*
X33497D1*
X35707D2*
X38501D1*
X30703Y55782D2*
X33497D1*
X35707D2*
X38501D1*
X30703Y55757D2*
X33497D1*
X35707D2*
X38501D1*
X30703Y55731D2*
X33498D1*
X35707D2*
X38501D1*
X30703Y55706D2*
X33501D1*
X35706D2*
X38501D1*
X30703Y55680D2*
X33508D1*
X35703D2*
X38501D1*
X30703Y55655D2*
X33514D1*
X35697D2*
X38501D1*
X30703Y55630D2*
X33518D1*
X35690D2*
X38501D1*
X30703Y55604D2*
X33521D1*
X35686D2*
X38501D1*
X30703Y55579D2*
X33523D1*
X35681D2*
X38501D1*
X30703Y55553D2*
X33527D1*
X35674D2*
X38501D1*
X30703Y55528D2*
X33533D1*
X35661D2*
X38501D1*
X30703Y55503D2*
X33541D1*
X35647D2*
X38501D1*
X30703Y55477D2*
X33552D1*
X35635D2*
X38501D1*
X30703Y55452D2*
X33568D1*
X35623D2*
X38501D1*
X30703Y55426D2*
X33585D1*
X35611D2*
X38501D1*
X30704Y55401D2*
X33602D1*
X35599D2*
X38500D1*
X30707Y55376D2*
X33616D1*
X35586D2*
X38497D1*
X30725Y55350D2*
X33630D1*
X35574D2*
X38480D1*
X30781Y55325D2*
X33644D1*
X35560D2*
X38423D1*
X30867Y55299D2*
X33659D1*
X35545D2*
X38337D1*
X30980Y55274D2*
X33675D1*
X35529D2*
X38224D1*
X31106Y55249D2*
X33688D1*
X35516D2*
X38098D1*
X31237Y55223D2*
X33699D1*
X35505D2*
X37968D1*
X31237Y55198D2*
X33713D1*
X35491D2*
X37968D1*
X31368Y55172D2*
X33732D1*
X35473D2*
X37836D1*
X31494Y55147D2*
X33753D1*
X35455D2*
X37710D1*
X31598Y55122D2*
X33774D1*
X35437D2*
X37606D1*
X31670Y55096D2*
X33796D1*
X35418D2*
X37534D1*
X31721Y55071D2*
X33821D1*
X35394D2*
X37484D1*
X31742Y55045D2*
X33848D1*
X35365D2*
X37462D1*
X31757Y55020D2*
X33876D1*
X35334D2*
X37447D1*
X31768Y54995D2*
X33904D1*
X35303D2*
X37436D1*
X31778Y54969D2*
X33933D1*
X35273D2*
X37426D1*
X31787Y54944D2*
X33965D1*
X35239D2*
X37417D1*
X31795Y54918D2*
X34000D1*
X35205D2*
X37409D1*
X31804Y54893D2*
X34033D1*
X35172D2*
X37400D1*
X31812Y54868D2*
X34061D1*
X35144D2*
X37393D1*
X31817Y54842D2*
X34085D1*
X35119D2*
X37387D1*
X31823Y54817D2*
X34108D1*
X35097D2*
X37381D1*
X31830Y54791D2*
X34127D1*
X35077D2*
X37374D1*
X31838Y54766D2*
X34142D1*
X35063D2*
X37366D1*
X31846Y54741D2*
X34140D1*
X35064D2*
X37358D1*
X31856Y54715D2*
X34134D1*
X35070D2*
X37349D1*
X31867Y54690D2*
X34125D1*
X35080D2*
X37341D1*
X31878Y54664D2*
X34116D1*
X35092D2*
X37333D1*
X31891Y54639D2*
X34107D1*
X35103D2*
X37323D1*
X31903Y54614D2*
X34098D1*
X35113D2*
X37312D1*
X31913Y54588D2*
X34086D1*
X35122D2*
X37300D1*
X31922Y54563D2*
X34075D1*
X35132D2*
X37288D1*
X31931Y54537D2*
X34062D1*
X35143D2*
X37276D1*
X31939Y54512D2*
X34051D1*
X35154D2*
X37266D1*
X31948Y54487D2*
X34041D1*
X35163D2*
X37257D1*
X31957Y54461D2*
X34035D1*
X35170D2*
X37247D1*
X31968Y54436D2*
X34028D1*
X35176D2*
X37236D1*
X31980Y54410D2*
X34020D1*
X35184D2*
X37224D1*
X31992Y54385D2*
X34010D1*
X35194D2*
X37212D1*
X32004Y54360D2*
X33999D1*
X35205D2*
X37200D1*
X32013Y54334D2*
X33989D1*
X35215D2*
X37191D1*
X32018Y54309D2*
X33980D1*
X35224D2*
X37186D1*
X32018Y54283D2*
X33971D1*
X35234D2*
X37187D1*
X32012Y54258D2*
X33960D1*
X35245D2*
X37192D1*
X32002Y54233D2*
X33948D1*
X35256D2*
X37203D1*
X31988Y54207D2*
X33938D1*
X35266D2*
X37216D1*
X31973Y54182D2*
X33930D1*
X35275D2*
X37231D1*
X31960Y54156D2*
X33921D1*
X35284D2*
X37244D1*
X31949Y54131D2*
X33912D1*
X35292D2*
X37255D1*
X31936Y54106D2*
X33904D1*
X35300D2*
X37268D1*
X31921Y54080D2*
X33895D1*
X35310D2*
X37284D1*
X31905Y54055D2*
X33887D1*
X35321D2*
X37299D1*
X31888Y54029D2*
X33878D1*
X35332D2*
X37316D1*
X31871Y54004D2*
X33869D1*
X35342D2*
X37333D1*
X31855Y53979D2*
X33858D1*
X35351D2*
X37350D1*
X31838Y53953D2*
X33846D1*
X35361D2*
X37367D1*
X31821Y53928D2*
X33834D1*
X35372D2*
X37387D1*
X31804Y53902D2*
X33822D1*
X35383D2*
X37406D1*
X31786Y53877D2*
X33812D1*
X35393D2*
X37425D1*
X31767Y53852D2*
X33803D1*
X35402D2*
X37442D1*
X31748Y53826D2*
X33794D1*
X35411D2*
X37459D1*
X31733Y53801D2*
X33785D1*
X35419D2*
X37472D1*
X31721Y53775D2*
X33777D1*
X35427D2*
X37484D1*
X31707Y53750D2*
X33767D1*
X35437D2*
X37497D1*
X31692Y53725D2*
X33756D1*
X35448D2*
X37512D1*
X31676Y53699D2*
X33745D1*
X35459D2*
X37528D1*
X31660Y53674D2*
X33735D1*
X35469D2*
X37544D1*
X31643Y53648D2*
X33726D1*
X35478D2*
X37561D1*
X31626Y53623D2*
X33717D1*
X35488D2*
X37578D1*
X31609Y53598D2*
X33706D1*
X35499D2*
X37595D1*
X31591Y53572D2*
X33694D1*
X35510D2*
X37612D1*
X31571Y53547D2*
X33684D1*
X35520D2*
X37630D1*
X31548Y53521D2*
X33676D1*
X35529D2*
X37650D1*
X31524Y53496D2*
X33666D1*
X35538D2*
X37673D1*
X31504Y53471D2*
X33655D1*
X35549D2*
X37695D1*
X31489Y53445D2*
X33644D1*
X35561D2*
X37712D1*
X31478Y53420D2*
X33635D1*
X35571D2*
X37725D1*
X31481Y53394D2*
X33628D1*
X35579D2*
X37724D1*
X31490Y53369D2*
X33622D1*
X35588D2*
X37711D1*
X31507Y53344D2*
X33613D1*
X35597D2*
X37691D1*
X31532Y53318D2*
X33599D1*
X35605D2*
X37666D1*
X31561Y53293D2*
X33581D1*
X35616D2*
X37639D1*
X31589Y53267D2*
X33563D1*
X35630D2*
X37613D1*
X31616Y53242D2*
X33547D1*
X35647D2*
X37587D1*
X31642Y53217D2*
X33534D1*
X35664D2*
X37561D1*
X31668Y53191D2*
X33041D1*
X33090D2*
X33524D1*
X35677D2*
X36114D1*
X36163D2*
X37536D1*
X31694Y53166D2*
X32993D1*
X33137D2*
X33514D1*
X35689D2*
X36067D1*
X36212D2*
X37510D1*
X31719Y53140D2*
X32949D1*
X33182D2*
X33502D1*
X35701D2*
X36022D1*
X36259D2*
X37485D1*
X31744Y53115D2*
X32906D1*
X33226D2*
X33491D1*
X35713D2*
X35978D1*
X36305D2*
X37460D1*
X31769Y53090D2*
X32864D1*
X33271D2*
X33482D1*
X35722D2*
X35933D1*
X36346D2*
X37435D1*
X31791Y53064D2*
X32828D1*
X33313D2*
X33476D1*
X35729D2*
X35892D1*
X36380D2*
X37413D1*
X31810Y53039D2*
X32798D1*
X33350D2*
X33469D1*
X35735D2*
X35854D1*
X36408D2*
X37394D1*
X31829Y53013D2*
X32769D1*
X33385D2*
X33459D1*
X35745D2*
X35819D1*
X36437D2*
X37375D1*
X31850Y52988D2*
X32736D1*
X33421D2*
X33446D1*
X35758D2*
X35783D1*
X36468D2*
X37354D1*
X31873Y52963D2*
X32701D1*
X36503D2*
X37331D1*
X31898Y52937D2*
X32664D1*
X36540D2*
X37306D1*
X31923Y52912D2*
X32627D1*
X36577D2*
X37282D1*
X31948Y52886D2*
X32589D1*
X36615D2*
X37256D1*
X31973Y52861D2*
X32551D1*
X36653D2*
X37231D1*
X32000Y52836D2*
X32513D1*
X36691D2*
X37206D1*
X32028Y52810D2*
X32476D1*
X36729D2*
X37180D1*
X32060Y52785D2*
X32440D1*
X36767D2*
X37155D1*
X32092Y52759D2*
X32406D1*
X36804D2*
X37129D1*
X32120Y52734D2*
X32372D1*
X36838D2*
X37105D1*
X32145Y52709D2*
X32341D1*
X36867D2*
X37081D1*
X32165Y52683D2*
X32313D1*
X36893D2*
X37054D1*
X32183Y52658D2*
X32284D1*
X36921D2*
X37019D1*
X32202Y52632D2*
X32253D1*
X36952D2*
X36977D1*
X23675Y70175D2*
X32311D1*
X23675Y70149D2*
X32311D1*
X23675Y70124D2*
X32311D1*
X23675Y70098D2*
X32311D1*
X23675Y70073D2*
X32311D1*
X23675Y70048D2*
X32311D1*
X23675Y70022D2*
X32311D1*
X23675Y69997D2*
X32311D1*
X23675Y69971D2*
X32311D1*
X23675Y69946D2*
X32311D1*
X23675Y69921D2*
X32311D1*
X23675Y69895D2*
X32311D1*
X23675Y69870D2*
X32311D1*
X23675Y69844D2*
X23980D1*
X26469D2*
X26749D1*
X29238D2*
X29543D1*
X32032D2*
X32311D1*
X23675Y69819D2*
X23980D1*
X26469D2*
X26749D1*
X29238D2*
X29543D1*
X32032D2*
X32311D1*
X23675Y69794D2*
X23980D1*
X26469D2*
X26749D1*
X29238D2*
X29543D1*
X32032D2*
X32311D1*
X23675Y69768D2*
X23980D1*
X26469D2*
X26749D1*
X29238D2*
X29543D1*
X32032D2*
X32311D1*
X23675Y69743D2*
X23980D1*
X26469D2*
X26749D1*
X29238D2*
X29543D1*
X32032D2*
X32311D1*
X23675Y69717D2*
X23980D1*
X26469D2*
X26749D1*
X29238D2*
X29543D1*
X32032D2*
X32311D1*
X23675Y69692D2*
X23980D1*
X26469D2*
X26749D1*
X29238D2*
X29543D1*
X32032D2*
X32311D1*
X23675Y69667D2*
X23980D1*
X26469D2*
X26749D1*
X29238D2*
X29543D1*
X32032D2*
X32311D1*
X23675Y69641D2*
X23980D1*
X26469D2*
X26749D1*
X29238D2*
X29543D1*
X32032D2*
X32311D1*
X23675Y69616D2*
X23980D1*
X26469D2*
X26749D1*
X29238D2*
X29543D1*
X32032D2*
X32311D1*
X23675Y69590D2*
X23980D1*
X26469D2*
X26749D1*
X29238D2*
X29543D1*
X32032D2*
X32311D1*
X23675Y69565D2*
X23980D1*
X26469D2*
X26749D1*
X29238D2*
X29543D1*
X32032D2*
X32311D1*
X23675Y69540D2*
X23980D1*
X26469D2*
X26749D1*
X27968D2*
X28019D1*
X29238D2*
X29543D1*
X32032D2*
X32311D1*
X23675Y69514D2*
X23980D1*
X26469D2*
X26749D1*
X27832D2*
X28157D1*
X29238D2*
X29543D1*
X32032D2*
X32311D1*
X23675Y69489D2*
X23980D1*
X26469D2*
X26749D1*
X27726D2*
X28267D1*
X29238D2*
X29543D1*
X32032D2*
X32311D1*
X23675Y69463D2*
X23980D1*
X26469D2*
X26749D1*
X27645D2*
X28349D1*
X29238D2*
X29543D1*
X32032D2*
X32311D1*
X23675Y69438D2*
X23980D1*
X26469D2*
X26749D1*
X27581D2*
X28414D1*
X29238D2*
X29543D1*
X32032D2*
X32311D1*
X23675Y69413D2*
X23980D1*
X26469D2*
X26749D1*
X27532D2*
X28468D1*
X29238D2*
X29543D1*
X32032D2*
X32311D1*
X23675Y69387D2*
X23980D1*
X26469D2*
X26749D1*
X27491D2*
X28513D1*
X29238D2*
X29543D1*
X32032D2*
X32311D1*
X23675Y69362D2*
X23980D1*
X26469D2*
X26749D1*
X27453D2*
X28552D1*
X29238D2*
X29543D1*
X32032D2*
X32311D1*
X23675Y69336D2*
X23980D1*
X26469D2*
X26749D1*
X27416D2*
X28584D1*
X29238D2*
X29543D1*
X32032D2*
X32311D1*
X23675Y69311D2*
X23980D1*
X26469D2*
X26749D1*
X27382D2*
X28612D1*
X29238D2*
X29543D1*
X32032D2*
X32311D1*
X23675Y69286D2*
X23980D1*
X26469D2*
X26749D1*
X27354D2*
X28638D1*
X29238D2*
X29543D1*
X32032D2*
X32311D1*
X23675Y69260D2*
X23980D1*
X26469D2*
X26749D1*
X27329D2*
X28662D1*
X29238D2*
X29543D1*
X32032D2*
X32311D1*
X23675Y69235D2*
X23980D1*
X26469D2*
X26749D1*
X27306D2*
X28688D1*
X29238D2*
X29543D1*
X32032D2*
X32311D1*
X23675Y69209D2*
X23980D1*
X26469D2*
X26749D1*
X27285D2*
X28712D1*
X29238D2*
X29543D1*
X32032D2*
X32311D1*
X23675Y69184D2*
X23980D1*
X26469D2*
X26749D1*
X27264D2*
X28734D1*
X29238D2*
X29543D1*
X32032D2*
X32311D1*
X23675Y69159D2*
X23980D1*
X26469D2*
X26749D1*
X27243D2*
X28754D1*
X29238D2*
X29543D1*
X32032D2*
X32311D1*
X23675Y69133D2*
X23980D1*
X26469D2*
X26749D1*
X27225D2*
X28772D1*
X29238D2*
X29543D1*
X32032D2*
X32311D1*
X23675Y69108D2*
X23980D1*
X26469D2*
X26749D1*
X27211D2*
X28789D1*
X29238D2*
X29543D1*
X32032D2*
X32311D1*
X23675Y69082D2*
X23980D1*
X26469D2*
X26749D1*
X27199D2*
X28805D1*
X29238D2*
X29543D1*
X32032D2*
X32311D1*
X23675Y69057D2*
X23980D1*
X26469D2*
X26749D1*
X27186D2*
X28819D1*
X29238D2*
X29543D1*
X32032D2*
X32311D1*
X23675Y69032D2*
X23980D1*
X26469D2*
X26749D1*
X27171D2*
X27974D1*
X28013D2*
X28830D1*
X29238D2*
X29543D1*
X32032D2*
X32311D1*
X23675Y69006D2*
X23980D1*
X26469D2*
X26749D1*
X27155D2*
X27889D1*
X28099D2*
X28840D1*
X29238D2*
X29543D1*
X32032D2*
X32311D1*
X23675Y68981D2*
X23980D1*
X26469D2*
X26749D1*
X27143D2*
X27821D1*
X28170D2*
X28852D1*
X29238D2*
X29543D1*
X32032D2*
X32311D1*
X23675Y68955D2*
X23980D1*
X26469D2*
X26749D1*
X27135D2*
X27771D1*
X28225D2*
X28863D1*
X29238D2*
X29543D1*
X32032D2*
X32311D1*
X23675Y68930D2*
X23980D1*
X26469D2*
X26749D1*
X27128D2*
X27732D1*
X28268D2*
X28873D1*
X29238D2*
X29543D1*
X32032D2*
X32311D1*
X23675Y68905D2*
X23980D1*
X26469D2*
X26749D1*
X27121D2*
X27698D1*
X28300D2*
X28882D1*
X29238D2*
X29543D1*
X32032D2*
X32311D1*
X23675Y68879D2*
X23980D1*
X26469D2*
X26749D1*
X27113D2*
X27668D1*
X28325D2*
X28891D1*
X29238D2*
X29543D1*
X32032D2*
X32311D1*
X23675Y68854D2*
X23980D1*
X26469D2*
X26749D1*
X27109D2*
X27645D1*
X28346D2*
X28898D1*
X29238D2*
X29543D1*
X32032D2*
X32311D1*
X23675Y68828D2*
X23980D1*
X26469D2*
X26749D1*
X27105D2*
X27628D1*
X28364D2*
X28903D1*
X29238D2*
X29543D1*
X32032D2*
X32311D1*
X23675Y68803D2*
X23980D1*
X26469D2*
X26749D1*
X27101D2*
X27615D1*
X28378D2*
X28906D1*
X29238D2*
X29543D1*
X32032D2*
X32311D1*
X23675Y68778D2*
X23980D1*
X26469D2*
X26749D1*
X27094D2*
X27604D1*
X28389D2*
X28907D1*
X29238D2*
X29543D1*
X32032D2*
X32311D1*
X23675Y68752D2*
X23980D1*
X26469D2*
X26749D1*
X27088D2*
X27592D1*
X28399D2*
X28908D1*
X29238D2*
X29543D1*
X32032D2*
X32311D1*
X23675Y68727D2*
X23980D1*
X26469D2*
X26749D1*
X27083D2*
X27581D1*
X28408D2*
X28908D1*
X29238D2*
X29543D1*
X32032D2*
X32311D1*
X23675Y68701D2*
X23980D1*
X26469D2*
X26749D1*
X27081D2*
X27572D1*
X28416D2*
X28908D1*
X29238D2*
X29543D1*
X32032D2*
X32311D1*
X23675Y68676D2*
X23980D1*
X26469D2*
X26749D1*
X27080D2*
X27567D1*
X28421D2*
X28908D1*
X29238D2*
X29543D1*
X32032D2*
X32311D1*
X23675Y68651D2*
X23980D1*
X26469D2*
X26749D1*
X27079D2*
X27564D1*
X28423D2*
X28908D1*
X29238D2*
X29543D1*
X32032D2*
X32311D1*
X23675Y68625D2*
X23980D1*
X26469D2*
X26749D1*
X27079D2*
X27563D1*
X28424D2*
X28908D1*
X29238D2*
X29543D1*
X32032D2*
X32311D1*
X23675Y68600D2*
X23980D1*
X26469D2*
X26749D1*
X27079D2*
X27563D1*
X28424D2*
X28908D1*
X29238D2*
X29543D1*
X32032D2*
X32311D1*
X23675Y68574D2*
X23980D1*
X26469D2*
X26749D1*
X27080D2*
X27567D1*
X28421D2*
X28908D1*
X29238D2*
X29543D1*
X32032D2*
X32311D1*
X23675Y68549D2*
X23980D1*
X26469D2*
X26749D1*
X27083D2*
X27576D1*
X28415D2*
X28908D1*
X29238D2*
X29543D1*
X32032D2*
X32311D1*
X23675Y68524D2*
X23980D1*
X26469D2*
X26749D1*
X27089D2*
X27589D1*
X28407D2*
X28908D1*
X29238D2*
X29543D1*
X32032D2*
X32311D1*
X23675Y68498D2*
X23980D1*
X26469D2*
X26749D1*
X27096D2*
X27601D1*
X28399D2*
X28908D1*
X29238D2*
X29543D1*
X32032D2*
X32311D1*
X23675Y68473D2*
X23980D1*
X26469D2*
X26749D1*
X27100D2*
X27611D1*
X28387D2*
X28907D1*
X29238D2*
X29543D1*
X32032D2*
X32311D1*
X23675Y68447D2*
X23980D1*
X26469D2*
X26749D1*
X27103D2*
X27622D1*
X28372D2*
X28904D1*
X29238D2*
X29543D1*
X32032D2*
X32311D1*
X23675Y68422D2*
X23980D1*
X26469D2*
X26749D1*
X27105D2*
X27639D1*
X28356D2*
X28897D1*
X29238D2*
X29543D1*
X32032D2*
X32311D1*
X23675Y68397D2*
X23980D1*
X26469D2*
X26749D1*
X27108D2*
X27663D1*
X28335D2*
X28890D1*
X29238D2*
X29543D1*
X32032D2*
X32311D1*
X23675Y68371D2*
X23980D1*
X26469D2*
X26749D1*
X27115D2*
X27692D1*
X28308D2*
X28882D1*
X29238D2*
X29543D1*
X32032D2*
X32311D1*
X23675Y68346D2*
X23980D1*
X26469D2*
X26749D1*
X27122D2*
X27723D1*
X28275D2*
X28873D1*
X29238D2*
X29543D1*
X32032D2*
X32311D1*
X23675Y68320D2*
X23980D1*
X26469D2*
X26749D1*
X27130D2*
X27759D1*
X28235D2*
X28862D1*
X29238D2*
X29543D1*
X32032D2*
X32311D1*
X23675Y68295D2*
X23980D1*
X26469D2*
X26749D1*
X27139D2*
X27811D1*
X28179D2*
X28851D1*
X29238D2*
X29543D1*
X32032D2*
X32311D1*
X23675Y68270D2*
X23980D1*
X26469D2*
X26749D1*
X27151D2*
X27895D1*
X28093D2*
X28841D1*
X29238D2*
X29543D1*
X32032D2*
X32311D1*
X23675Y68244D2*
X23980D1*
X26469D2*
X26749D1*
X27165D2*
X28012D1*
X27975D2*
X28832D1*
X29238D2*
X29543D1*
X32032D2*
X32311D1*
X23675Y68219D2*
X23980D1*
X26469D2*
X26749D1*
X27180D2*
X28822D1*
X29238D2*
X29543D1*
X32032D2*
X32311D1*
X23675Y68193D2*
X23980D1*
X26469D2*
X26749D1*
X27192D2*
X28810D1*
X29238D2*
X29543D1*
X32032D2*
X32311D1*
X23675Y68168D2*
X23980D1*
X26469D2*
X26749D1*
X27201D2*
X28796D1*
X29238D2*
X29543D1*
X32032D2*
X32311D1*
X23675Y68143D2*
X23980D1*
X26469D2*
X26749D1*
X27201D2*
X28780D1*
X29238D2*
X29543D1*
X32032D2*
X32311D1*
X23675Y68117D2*
X23980D1*
X26469D2*
X26749D1*
X27190D2*
X28763D1*
X29238D2*
X29543D1*
X32032D2*
X32311D1*
X23675Y68092D2*
X23980D1*
X26469D2*
X26749D1*
X27173D2*
X28743D1*
X29238D2*
X29543D1*
X32032D2*
X32311D1*
X23675Y68066D2*
X23980D1*
X26469D2*
X26749D1*
X27152D2*
X28719D1*
X29238D2*
X29543D1*
X32032D2*
X32311D1*
X23675Y68041D2*
X23980D1*
X26469D2*
X26749D1*
X27129D2*
X28695D1*
X29238D2*
X29543D1*
X32032D2*
X32311D1*
X23675Y68016D2*
X23980D1*
X26469D2*
X26749D1*
X27104D2*
X28671D1*
X29238D2*
X29543D1*
X32032D2*
X32311D1*
X23675Y67990D2*
X23980D1*
X26469D2*
X26749D1*
X27080D2*
X28644D1*
X29238D2*
X29543D1*
X32032D2*
X32311D1*
X23675Y67965D2*
X23980D1*
X26469D2*
X26749D1*
X27057D2*
X28616D1*
X29238D2*
X29543D1*
X32032D2*
X32311D1*
X23675Y67939D2*
X23980D1*
X26469D2*
X26749D1*
X27034D2*
X28587D1*
X29238D2*
X29543D1*
X32032D2*
X32311D1*
X23675Y67914D2*
X23980D1*
X26469D2*
X26749D1*
X27009D2*
X28553D1*
X29238D2*
X29543D1*
X32032D2*
X32311D1*
X23675Y67889D2*
X23980D1*
X26469D2*
X26749D1*
X26982D2*
X28515D1*
X29238D2*
X29543D1*
X32032D2*
X32311D1*
X23675Y67863D2*
X23980D1*
X26469D2*
X26749D1*
X26954D2*
X28473D1*
X29238D2*
X29543D1*
X32032D2*
X32311D1*
X23675Y67838D2*
X23980D1*
X26469D2*
X26749D1*
X26928D2*
X27454D1*
X27564D2*
X28427D1*
X29238D2*
X29543D1*
X32032D2*
X32311D1*
X23675Y67812D2*
X23980D1*
X26469D2*
X26749D1*
X26902D2*
X27436D1*
X27621D2*
X28371D1*
X29238D2*
X29543D1*
X32032D2*
X32311D1*
X23675Y67787D2*
X23980D1*
X26469D2*
X26749D1*
X26876D2*
X27414D1*
X27684D2*
X28307D1*
X29238D2*
X29543D1*
X32032D2*
X32311D1*
X23675Y67762D2*
X23980D1*
X26469D2*
X26750D1*
X26849D2*
X27391D1*
X27750D2*
X28239D1*
X29238D2*
X29543D1*
X32032D2*
X32311D1*
X23675Y67736D2*
X23980D1*
X26469D2*
X26754D1*
X26820D2*
X27366D1*
X27816D2*
X28171D1*
X29238D2*
X29543D1*
X32032D2*
X32311D1*
X23675Y67711D2*
X23980D1*
X26469D2*
X26762D1*
X26786D2*
X27338D1*
X29238D2*
X29543D1*
X32032D2*
X32311D1*
X23675Y67685D2*
X23980D1*
X26469D2*
X27310D1*
X29238D2*
X29543D1*
X32032D2*
X32311D1*
X23675Y67660D2*
X23980D1*
X26469D2*
X27283D1*
X29238D2*
X29543D1*
X32032D2*
X32311D1*
X23675Y67635D2*
X23980D1*
X26469D2*
X27257D1*
X29238D2*
X29543D1*
X32032D2*
X32311D1*
X23675Y67609D2*
X23980D1*
X26469D2*
X27232D1*
X29238D2*
X29543D1*
X32032D2*
X32311D1*
X23675Y67584D2*
X23980D1*
X26469D2*
X27209D1*
X29238D2*
X29543D1*
X32032D2*
X32311D1*
X23675Y67558D2*
X23980D1*
X26469D2*
X27187D1*
X29238D2*
X29543D1*
X32032D2*
X32311D1*
X23675Y67533D2*
X23980D1*
X26469D2*
X27163D1*
X29238D2*
X29543D1*
X32032D2*
X32311D1*
X23675Y67508D2*
X23980D1*
X26469D2*
X27138D1*
X29238D2*
X29543D1*
X32032D2*
X32311D1*
X23675Y67482D2*
X23980D1*
X26469D2*
X27114D1*
X29238D2*
X29543D1*
X32032D2*
X32311D1*
X23675Y67457D2*
X23980D1*
X26469D2*
X27092D1*
X29238D2*
X29543D1*
X32032D2*
X32311D1*
X23675Y67431D2*
X23980D1*
X26469D2*
X27074D1*
X29238D2*
X29543D1*
X32032D2*
X32311D1*
X23675Y67406D2*
X23980D1*
X26469D2*
X27062D1*
X29238D2*
X29543D1*
X32032D2*
X32311D1*
X23675Y67381D2*
X32311D1*
X23675Y67355D2*
X32311D1*
X23675Y67330D2*
X32311D1*
X23675Y67304D2*
X32311D1*
X23675Y67279D2*
X32311D1*
X23675Y67254D2*
X32311D1*
X23675Y67228D2*
X32311D1*
X23675Y67203D2*
X32311D1*
X23675Y67177D2*
X32311D1*
X23675Y67152D2*
X32311D1*
X23675Y67127D2*
X32311D1*
X23675Y67101D2*
X32311D1*
X23675Y67076D2*
X23980D1*
X26190D2*
X26749D1*
X29238D2*
X29543D1*
X32032D2*
X32311D1*
X23675Y67050D2*
X23980D1*
X26165D2*
X26749D1*
X29238D2*
X29543D1*
X32032D2*
X32311D1*
X23675Y67025D2*
X23980D1*
X26139D2*
X26749D1*
X29238D2*
X29543D1*
X32032D2*
X32311D1*
X23675Y67000D2*
X23980D1*
X26114D2*
X26749D1*
X29238D2*
X29543D1*
X32032D2*
X32311D1*
X23675Y66974D2*
X23980D1*
X26088D2*
X26749D1*
X29238D2*
X29543D1*
X32032D2*
X32311D1*
X23675Y66949D2*
X23980D1*
X26063D2*
X26749D1*
X29238D2*
X29543D1*
X32032D2*
X32311D1*
X23675Y66923D2*
X23980D1*
X26038D2*
X26749D1*
X29238D2*
X29543D1*
X32032D2*
X32311D1*
X23675Y66898D2*
X23980D1*
X26012D2*
X26749D1*
X29238D2*
X29543D1*
X32032D2*
X32311D1*
X23675Y66873D2*
X23980D1*
X25987D2*
X26749D1*
X29238D2*
X29543D1*
X32032D2*
X32311D1*
X23675Y66847D2*
X23980D1*
X25961D2*
X26749D1*
X29238D2*
X29543D1*
X32032D2*
X32311D1*
X23675Y66822D2*
X23980D1*
X25936D2*
X26749D1*
X29238D2*
X29543D1*
X32032D2*
X32311D1*
X23675Y66796D2*
X23980D1*
X25911D2*
X26419D1*
X26469D2*
X26749D1*
X29238D2*
X29543D1*
X32032D2*
X32311D1*
X23675Y66771D2*
X23980D1*
X25885D2*
X26393D1*
X26469D2*
X26749D1*
X29238D2*
X29543D1*
X32032D2*
X32311D1*
X23675Y66746D2*
X23980D1*
X25072D2*
X25352D1*
X25860D2*
X26368D1*
X26469D2*
X26749D1*
X29238D2*
X29543D1*
X32032D2*
X32311D1*
X23675Y66720D2*
X23980D1*
X24983D2*
X25443D1*
X25834D2*
X26342D1*
X26469D2*
X26749D1*
X29238D2*
X29543D1*
X32032D2*
X32311D1*
X23675Y66695D2*
X23980D1*
X24905D2*
X25528D1*
X25807D2*
X26316D1*
X26469D2*
X26749D1*
X29238D2*
X29543D1*
X32032D2*
X32311D1*
X23675Y66669D2*
X23980D1*
X24839D2*
X25615D1*
X25774D2*
X26288D1*
X26469D2*
X26749D1*
X29238D2*
X29543D1*
X32032D2*
X32311D1*
X23675Y66644D2*
X23980D1*
X24785D2*
X25709D1*
X25731D2*
X26260D1*
X26469D2*
X26749D1*
X29238D2*
X29543D1*
X32032D2*
X32311D1*
X23675Y66619D2*
X23980D1*
X24739D2*
X26233D1*
X26469D2*
X26749D1*
X29238D2*
X29543D1*
X32032D2*
X32311D1*
X23675Y66593D2*
X23980D1*
X24697D2*
X26208D1*
X26469D2*
X26749D1*
X29238D2*
X29543D1*
X32032D2*
X32311D1*
X23675Y66568D2*
X23980D1*
X24661D2*
X26182D1*
X26469D2*
X26749D1*
X29238D2*
X29543D1*
X32032D2*
X32311D1*
X23675Y66542D2*
X23980D1*
X24628D2*
X26157D1*
X26469D2*
X26749D1*
X29238D2*
X29543D1*
X32032D2*
X32311D1*
X23675Y66517D2*
X23980D1*
X24597D2*
X26134D1*
X26469D2*
X26749D1*
X29238D2*
X29543D1*
X32032D2*
X32311D1*
X23675Y66492D2*
X23980D1*
X24568D2*
X26111D1*
X26469D2*
X26749D1*
X29238D2*
X29543D1*
X32032D2*
X32311D1*
X23675Y66466D2*
X23980D1*
X24541D2*
X26087D1*
X26469D2*
X26749D1*
X29238D2*
X29543D1*
X32032D2*
X32311D1*
X23675Y66441D2*
X23980D1*
X24518D2*
X26063D1*
X26469D2*
X26749D1*
X29238D2*
X29543D1*
X32032D2*
X32311D1*
X23675Y66415D2*
X23980D1*
X24495D2*
X26039D1*
X26469D2*
X26749D1*
X29238D2*
X29543D1*
X32032D2*
X32311D1*
X23675Y66390D2*
X23980D1*
X24474D2*
X26019D1*
X26469D2*
X26749D1*
X29238D2*
X29543D1*
X32032D2*
X32311D1*
X23675Y66365D2*
X23980D1*
X24453D2*
X26004D1*
X26469D2*
X26749D1*
X29238D2*
X29543D1*
X32032D2*
X32311D1*
X23675Y66339D2*
X23980D1*
X24436D2*
X26005D1*
X26469D2*
X26749D1*
X29238D2*
X29543D1*
X32032D2*
X32311D1*
X23675Y66314D2*
X23980D1*
X24423D2*
X26016D1*
X26469D2*
X26749D1*
X29238D2*
X29543D1*
X32032D2*
X32311D1*
X23675Y66288D2*
X23980D1*
X24412D2*
X26027D1*
X26469D2*
X26749D1*
X29238D2*
X29543D1*
X32032D2*
X32311D1*
X23675Y66263D2*
X23980D1*
X24400D2*
X26036D1*
X26469D2*
X26749D1*
X29238D2*
X29543D1*
X32032D2*
X32311D1*
X23675Y66238D2*
X23980D1*
X24386D2*
X25156D1*
X25260D2*
X26046D1*
X26469D2*
X26749D1*
X29238D2*
X29543D1*
X32032D2*
X32311D1*
X23675Y66212D2*
X23980D1*
X24373D2*
X25073D1*
X25351D2*
X26054D1*
X26469D2*
X26749D1*
X29238D2*
X29543D1*
X32032D2*
X32311D1*
X23675Y66187D2*
X23980D1*
X24363D2*
X25009D1*
X25417D2*
X26063D1*
X26469D2*
X26749D1*
X29238D2*
X29543D1*
X32032D2*
X32311D1*
X23675Y66161D2*
X23980D1*
X24353D2*
X24962D1*
X25463D2*
X26072D1*
X26469D2*
X26749D1*
X29238D2*
X29543D1*
X32032D2*
X32311D1*
X23675Y66136D2*
X23980D1*
X24345D2*
X24927D1*
X25498D2*
X26083D1*
X26469D2*
X26749D1*
X29238D2*
X29543D1*
X32032D2*
X32311D1*
X23675Y66111D2*
X23980D1*
X24339D2*
X24898D1*
X25527D2*
X26094D1*
X26469D2*
X26749D1*
X29238D2*
X29543D1*
X32032D2*
X32311D1*
X23675Y66085D2*
X23980D1*
X24333D2*
X24874D1*
X25553D2*
X26103D1*
X26469D2*
X26749D1*
X29238D2*
X29543D1*
X32032D2*
X32311D1*
X23675Y66060D2*
X23980D1*
X24326D2*
X24855D1*
X25576D2*
X26109D1*
X26469D2*
X26749D1*
X29238D2*
X29543D1*
X32032D2*
X32311D1*
X23675Y66034D2*
X23980D1*
X24319D2*
X24836D1*
X25594D2*
X26112D1*
X26469D2*
X26749D1*
X29238D2*
X29543D1*
X32032D2*
X32311D1*
X23675Y66009D2*
X23980D1*
X24314D2*
X24820D1*
X25609D2*
X26114D1*
X26469D2*
X26749D1*
X29238D2*
X29543D1*
X32032D2*
X32311D1*
X23675Y65984D2*
X23980D1*
X24308D2*
X24807D1*
X25620D2*
X26118D1*
X26469D2*
X26749D1*
X29238D2*
X29543D1*
X32032D2*
X32311D1*
X23675Y65958D2*
X23980D1*
X24301D2*
X24799D1*
X25626D2*
X26124D1*
X26469D2*
X26749D1*
X29238D2*
X29543D1*
X32032D2*
X32311D1*
X23675Y65933D2*
X23980D1*
X24294D2*
X24796D1*
X25629D2*
X26131D1*
X26469D2*
X26749D1*
X29238D2*
X29543D1*
X32032D2*
X32311D1*
X23675Y65907D2*
X23980D1*
X24289D2*
X24794D1*
X25630D2*
X26135D1*
X26469D2*
X26749D1*
X29238D2*
X29543D1*
X32032D2*
X32311D1*
X23675Y65882D2*
X23980D1*
X24287D2*
X24793D1*
X25631D2*
X26137D1*
X26469D2*
X26749D1*
X29238D2*
X29543D1*
X32032D2*
X32311D1*
X23675Y65857D2*
X23980D1*
X24286D2*
X24793D1*
X25631D2*
X26138D1*
X26469D2*
X26749D1*
X29238D2*
X29543D1*
X32032D2*
X32311D1*
X23675Y65831D2*
X23980D1*
X24286D2*
X24793D1*
X25631D2*
X26138D1*
X26469D2*
X26749D1*
X29238D2*
X29543D1*
X32032D2*
X32311D1*
X23675Y65806D2*
X23980D1*
X24289D2*
X24793D1*
X25631D2*
X26135D1*
X26469D2*
X26749D1*
X29238D2*
X29543D1*
X32032D2*
X32311D1*
X23675Y65780D2*
X23980D1*
X24295D2*
X24793D1*
X25631D2*
X26129D1*
X26469D2*
X26749D1*
X29238D2*
X29543D1*
X32032D2*
X32311D1*
X23675Y65755D2*
X23980D1*
X24302D2*
X24795D1*
X25630D2*
X26122D1*
X26469D2*
X26749D1*
X29238D2*
X29543D1*
X32032D2*
X32311D1*
X23675Y65730D2*
X23980D1*
X24306D2*
X24799D1*
X25626D2*
X26118D1*
X26469D2*
X26749D1*
X29238D2*
X29543D1*
X32032D2*
X32311D1*
X23675Y65704D2*
X23980D1*
X24310D2*
X24813D1*
X25617D2*
X26116D1*
X26469D2*
X26749D1*
X29238D2*
X29543D1*
X32032D2*
X32311D1*
X23675Y65679D2*
X23980D1*
X24314D2*
X24828D1*
X25603D2*
X26114D1*
X26469D2*
X26749D1*
X29238D2*
X29543D1*
X32032D2*
X32311D1*
X23675Y65653D2*
X23980D1*
X24321D2*
X24842D1*
X25587D2*
X26113D1*
X26469D2*
X26749D1*
X29238D2*
X29543D1*
X32032D2*
X32311D1*
X23675Y65628D2*
X23980D1*
X24328D2*
X24859D1*
X25567D2*
X26109D1*
X26469D2*
X26749D1*
X29238D2*
X29543D1*
X32032D2*
X32311D1*
X23675Y65603D2*
X23980D1*
X24336D2*
X24882D1*
X25543D2*
X26099D1*
X26469D2*
X26749D1*
X29238D2*
X29543D1*
X32032D2*
X32311D1*
X23675Y65577D2*
X23980D1*
X24344D2*
X24908D1*
X25517D2*
X26087D1*
X26469D2*
X26749D1*
X29238D2*
X29543D1*
X32032D2*
X32311D1*
X23675Y65552D2*
X23980D1*
X24352D2*
X24939D1*
X25486D2*
X26076D1*
X26469D2*
X26749D1*
X29238D2*
X29543D1*
X32032D2*
X32311D1*
X23675Y65526D2*
X23980D1*
X24358D2*
X24986D1*
X25438D2*
X26068D1*
X26469D2*
X26749D1*
X29238D2*
X29543D1*
X32032D2*
X32311D1*
X23675Y65501D2*
X23980D1*
X24365D2*
X25074D1*
X25350D2*
X26061D1*
X26469D2*
X26749D1*
X29238D2*
X29543D1*
X32032D2*
X32311D1*
X23675Y65476D2*
X23980D1*
X24375D2*
X25221D1*
X25203D2*
X26053D1*
X26469D2*
X26749D1*
X29238D2*
X29543D1*
X32032D2*
X32311D1*
X23675Y65450D2*
X23980D1*
X24389D2*
X26041D1*
X26469D2*
X26749D1*
X29238D2*
X29543D1*
X32032D2*
X32311D1*
X23675Y65425D2*
X23980D1*
X24404D2*
X26027D1*
X26469D2*
X26749D1*
X29238D2*
X29543D1*
X32032D2*
X32311D1*
X23675Y65399D2*
X23980D1*
X24417D2*
X26011D1*
X26469D2*
X26749D1*
X29238D2*
X29543D1*
X32032D2*
X32311D1*
X23675Y65374D2*
X23980D1*
X24432D2*
X25995D1*
X26469D2*
X26749D1*
X29238D2*
X29543D1*
X32032D2*
X32311D1*
X23675Y65349D2*
X23980D1*
X24448D2*
X25977D1*
X26469D2*
X26749D1*
X29238D2*
X29543D1*
X32032D2*
X32311D1*
X23675Y65323D2*
X23980D1*
X24467D2*
X25958D1*
X26469D2*
X26749D1*
X29238D2*
X29543D1*
X32032D2*
X32311D1*
X23675Y65298D2*
X23980D1*
X24487D2*
X25937D1*
X26469D2*
X26749D1*
X29238D2*
X29543D1*
X32032D2*
X32311D1*
X23675Y65272D2*
X23980D1*
X24508D2*
X25916D1*
X26469D2*
X26749D1*
X29238D2*
X29543D1*
X32032D2*
X32311D1*
X23675Y65247D2*
X23980D1*
X24533D2*
X25892D1*
X26469D2*
X26749D1*
X27130D2*
X28857D1*
X29238D2*
X29543D1*
X32032D2*
X32311D1*
X23675Y65222D2*
X23980D1*
X24560D2*
X25867D1*
X26469D2*
X26749D1*
X27110D2*
X28882D1*
X29238D2*
X29543D1*
X32032D2*
X32311D1*
X23675Y65196D2*
X23980D1*
X24588D2*
X25843D1*
X26469D2*
X26749D1*
X27089D2*
X28908D1*
X29238D2*
X29543D1*
X32032D2*
X32311D1*
X23675Y65171D2*
X23980D1*
X24615D2*
X25816D1*
X26469D2*
X26749D1*
X27067D2*
X28933D1*
X29238D2*
X29543D1*
X32032D2*
X32311D1*
X23675Y65145D2*
X23980D1*
X24645D2*
X25784D1*
X26469D2*
X26749D1*
X27044D2*
X28959D1*
X29238D2*
X29543D1*
X32032D2*
X32311D1*
X23675Y65120D2*
X23980D1*
X24680D2*
X25749D1*
X26469D2*
X26749D1*
X27018D2*
X28984D1*
X29238D2*
X29543D1*
X32032D2*
X32311D1*
X23675Y65095D2*
X23980D1*
X24720D2*
X25712D1*
X26469D2*
X26749D1*
X26991D2*
X29009D1*
X29238D2*
X29543D1*
X32032D2*
X32311D1*
X23675Y65069D2*
X23980D1*
X24762D2*
X25669D1*
X26469D2*
X26749D1*
X26963D2*
X29035D1*
X29238D2*
X29543D1*
X32032D2*
X32311D1*
X23675Y65044D2*
X23980D1*
X24811D2*
X25618D1*
X26469D2*
X26749D1*
X26936D2*
X29060D1*
X29238D2*
X29543D1*
X32032D2*
X32311D1*
X23675Y65018D2*
X23980D1*
X24869D2*
X25559D1*
X26469D2*
X26749D1*
X26910D2*
X29086D1*
X29238D2*
X29543D1*
X32032D2*
X32311D1*
X23675Y64993D2*
X23980D1*
X24928D2*
X25502D1*
X26469D2*
X26749D1*
X26885D2*
X29111D1*
X29238D2*
X29543D1*
X32032D2*
X32311D1*
X23675Y64968D2*
X23980D1*
X24978D2*
X25457D1*
X26469D2*
X26751D1*
X26859D2*
X29137D1*
X29237D2*
X29543D1*
X32032D2*
X32311D1*
X23675Y64942D2*
X23980D1*
X25018D2*
X25424D1*
X26469D2*
X26756D1*
X26833D2*
X29167D1*
X29233D2*
X29543D1*
X32032D2*
X32311D1*
X23675Y64917D2*
X23980D1*
X25036D2*
X25413D1*
X26469D2*
X26775D1*
X26805D2*
X29201D1*
X29224D2*
X29543D1*
X32032D2*
X32311D1*
X23675Y64891D2*
X23980D1*
X25042D2*
X25407D1*
X26469D2*
X29543D1*
X32032D2*
X32311D1*
X23675Y64866D2*
X23980D1*
X25045D2*
X25404D1*
X26469D2*
X27257D1*
X28730D2*
X29543D1*
X32032D2*
X32311D1*
X23675Y64841D2*
X23980D1*
X25046D2*
X25403D1*
X26469D2*
X27232D1*
X28755D2*
X29543D1*
X32032D2*
X32311D1*
X23675Y64815D2*
X23980D1*
X25047D2*
X25403D1*
X26469D2*
X27209D1*
X28781D2*
X29543D1*
X32032D2*
X32311D1*
X23675Y64790D2*
X23980D1*
X25047D2*
X25403D1*
X26469D2*
X27187D1*
X28806D2*
X29543D1*
X32032D2*
X32311D1*
X23675Y64764D2*
X23980D1*
X25047D2*
X25403D1*
X26469D2*
X27163D1*
X28832D2*
X29543D1*
X32032D2*
X32311D1*
X23675Y64739D2*
X23980D1*
X25047D2*
X25403D1*
X26469D2*
X27137D1*
X28857D2*
X29543D1*
X32032D2*
X32311D1*
X23675Y64714D2*
X23980D1*
X25047D2*
X25403D1*
X26469D2*
X27113D1*
X28882D2*
X29543D1*
X32032D2*
X32311D1*
X23675Y64688D2*
X23980D1*
X25047D2*
X25403D1*
X26469D2*
X27087D1*
X28908D2*
X29543D1*
X32032D2*
X32311D1*
X23675Y64663D2*
X23980D1*
X25047D2*
X25403D1*
X26469D2*
X27058D1*
X28933D2*
X29543D1*
X32032D2*
X32311D1*
X23675Y64637D2*
X23980D1*
X25047D2*
X25403D1*
X26469D2*
X27030D1*
X28959D2*
X29543D1*
X32032D2*
X32311D1*
X23675Y64612D2*
X32311D1*
X23675Y64587D2*
X32311D1*
X23675Y64561D2*
X32311D1*
X23675Y64536D2*
X32311D1*
X23675Y64510D2*
X32311D1*
X23675Y64485D2*
X32311D1*
X23675Y64460D2*
X32311D1*
X23675Y64434D2*
X32311D1*
X23675Y64409D2*
X32311D1*
X23675Y64383D2*
X32311D1*
X23675Y64358D2*
X32311D1*
X23675Y64333D2*
X32311D1*
X23675Y64307D2*
X32311D1*
X23675Y64282D2*
X23980D1*
X25047D2*
X25403D1*
X26196D2*
X26749D1*
X29238D2*
X29822D1*
X32032D2*
X32311D1*
X23675Y64256D2*
X23980D1*
X25047D2*
X25403D1*
X26158D2*
X26749D1*
X29238D2*
X29848D1*
X32032D2*
X32311D1*
X23675Y64231D2*
X23980D1*
X25047D2*
X25403D1*
X26127D2*
X26749D1*
X29238D2*
X29873D1*
X32032D2*
X32311D1*
X23675Y64206D2*
X23980D1*
X25047D2*
X25403D1*
X26099D2*
X26749D1*
X29238D2*
X29898D1*
X32032D2*
X32311D1*
X23675Y64180D2*
X23980D1*
X25047D2*
X25403D1*
X26072D2*
X26749D1*
X29238D2*
X29924D1*
X32032D2*
X32311D1*
X23675Y64155D2*
X23980D1*
X25047D2*
X25403D1*
X26047D2*
X26749D1*
X29238D2*
X29949D1*
X32032D2*
X32311D1*
X23675Y64129D2*
X23980D1*
X25047D2*
X25403D1*
X26024D2*
X26749D1*
X29238D2*
X29975D1*
X32032D2*
X32311D1*
X23675Y64104D2*
X23980D1*
X25047D2*
X25403D1*
X26001D2*
X26749D1*
X29238D2*
X30000D1*
X32032D2*
X32311D1*
X23675Y64079D2*
X23980D1*
X25047D2*
X25403D1*
X25977D2*
X26749D1*
X29238D2*
X30025D1*
X32032D2*
X32311D1*
X23675Y64053D2*
X23980D1*
X25047D2*
X25403D1*
X25951D2*
X26749D1*
X29238D2*
X30051D1*
X32032D2*
X32311D1*
X23675Y64028D2*
X23980D1*
X25045D2*
X25404D1*
X25924D2*
X26749D1*
X29238D2*
X30076D1*
X32032D2*
X32311D1*
X23675Y64002D2*
X23980D1*
X25040D2*
X25406D1*
X25896D2*
X26387D1*
X26469D2*
X26749D1*
X29238D2*
X29543D1*
X29594D2*
X30102D1*
X32032D2*
X32311D1*
X23675Y63977D2*
X23980D1*
X25020D2*
X25420D1*
X25869D2*
X26369D1*
X26469D2*
X26749D1*
X27968D2*
X28044D1*
X29238D2*
X29543D1*
X29619D2*
X30127D1*
X32032D2*
X32311D1*
X23675Y63952D2*
X23980D1*
X24975D2*
X25458D1*
X25844D2*
X26347D1*
X26469D2*
X26749D1*
X27839D2*
X28164D1*
X29238D2*
X29543D1*
X29644D2*
X30152D1*
X30559D2*
X31016D1*
X32032D2*
X32311D1*
X23675Y63926D2*
X23980D1*
X24920D2*
X25509D1*
X25818D2*
X26324D1*
X26469D2*
X26749D1*
X27733D2*
X28263D1*
X29238D2*
X29543D1*
X29670D2*
X30178D1*
X30492D2*
X31075D1*
X32032D2*
X32311D1*
X23675Y63901D2*
X23980D1*
X24862D2*
X25569D1*
X25792D2*
X26299D1*
X26469D2*
X26749D1*
X27650D2*
X28342D1*
X29238D2*
X29543D1*
X29695D2*
X30205D1*
X30428D2*
X31137D1*
X32032D2*
X32311D1*
X23675Y63875D2*
X23980D1*
X24808D2*
X25634D1*
X25766D2*
X26271D1*
X26469D2*
X26749D1*
X27588D2*
X28405D1*
X29238D2*
X29543D1*
X29721D2*
X30239D1*
X30370D2*
X31193D1*
X32032D2*
X32311D1*
X23675Y63850D2*
X23980D1*
X24757D2*
X25707D1*
X25738D2*
X26243D1*
X26469D2*
X26749D1*
X27538D2*
X28459D1*
X29238D2*
X29543D1*
X29746D2*
X30281D1*
X30313D2*
X31241D1*
X32032D2*
X32311D1*
X23675Y63825D2*
X23980D1*
X24713D2*
X26217D1*
X26469D2*
X26749D1*
X27495D2*
X28505D1*
X29238D2*
X29543D1*
X29771D2*
X31282D1*
X32032D2*
X32311D1*
X23675Y63799D2*
X23980D1*
X24676D2*
X26191D1*
X26469D2*
X26749D1*
X27457D2*
X28542D1*
X29238D2*
X29543D1*
X29797D2*
X31318D1*
X32032D2*
X32311D1*
X23675Y63774D2*
X23980D1*
X24645D2*
X26166D1*
X26469D2*
X26749D1*
X27423D2*
X28574D1*
X29238D2*
X29543D1*
X29822D2*
X31351D1*
X32032D2*
X32311D1*
X23675Y63748D2*
X23980D1*
X24616D2*
X26143D1*
X26469D2*
X26749D1*
X27395D2*
X28605D1*
X29238D2*
X29543D1*
X29848D2*
X31381D1*
X32032D2*
X32311D1*
X23675Y63723D2*
X23980D1*
X24587D2*
X26120D1*
X26469D2*
X26749D1*
X27367D2*
X28634D1*
X29238D2*
X29543D1*
X29873D2*
X31411D1*
X32032D2*
X32311D1*
X23675Y63698D2*
X23980D1*
X24559D2*
X26096D1*
X26469D2*
X26749D1*
X27338D2*
X28660D1*
X29238D2*
X29543D1*
X29898D2*
X31440D1*
X32032D2*
X32311D1*
X23675Y63672D2*
X23980D1*
X24533D2*
X26071D1*
X26469D2*
X26749D1*
X27310D2*
X28683D1*
X29238D2*
X29543D1*
X29924D2*
X31466D1*
X32032D2*
X32311D1*
X23675Y63647D2*
X23980D1*
X24509D2*
X26047D1*
X26469D2*
X26749D1*
X27284D2*
X28706D1*
X29238D2*
X29543D1*
X29949D2*
X31487D1*
X32032D2*
X32311D1*
X23675Y63621D2*
X23980D1*
X24487D2*
X26025D1*
X26469D2*
X26749D1*
X27262D2*
X28727D1*
X29238D2*
X29543D1*
X29975D2*
X31507D1*
X32032D2*
X32311D1*
X23675Y63596D2*
X23980D1*
X24466D2*
X26005D1*
X26469D2*
X26749D1*
X27242D2*
X28745D1*
X29238D2*
X29543D1*
X30000D2*
X31527D1*
X32032D2*
X32311D1*
X23675Y63571D2*
X23980D1*
X24448D2*
X25998D1*
X26469D2*
X26749D1*
X27224D2*
X28763D1*
X29238D2*
X29543D1*
X30025D2*
X31547D1*
X32032D2*
X32311D1*
X23675Y63545D2*
X23980D1*
X24433D2*
X26005D1*
X26469D2*
X26749D1*
X27207D2*
X28781D1*
X29238D2*
X29543D1*
X30004D2*
X31564D1*
X32032D2*
X32311D1*
X23675Y63520D2*
X23980D1*
X24418D2*
X26016D1*
X26469D2*
X26749D1*
X27193D2*
X28797D1*
X29238D2*
X29543D1*
X29986D2*
X31579D1*
X32032D2*
X32311D1*
X23675Y63494D2*
X23980D1*
X24403D2*
X26030D1*
X26469D2*
X26749D1*
X27182D2*
X28811D1*
X29238D2*
X29543D1*
X29971D2*
X31594D1*
X32032D2*
X32311D1*
X23675Y63469D2*
X23980D1*
X24387D2*
X26042D1*
X26469D2*
X26749D1*
X27169D2*
X28825D1*
X29238D2*
X29543D1*
X29960D2*
X31610D1*
X32032D2*
X32311D1*
X23675Y63444D2*
X23980D1*
X24375D2*
X25082D1*
X25343D2*
X26052D1*
X26469D2*
X26749D1*
X27154D2*
X27907D1*
X28114D2*
X28838D1*
X29238D2*
X29543D1*
X29950D2*
X30669D1*
X30874D2*
X31625D1*
X32032D2*
X32311D1*
X23675Y63418D2*
X23980D1*
X24366D2*
X25024D1*
X25400D2*
X26059D1*
X26469D2*
X26749D1*
X27143D2*
X27836D1*
X28176D2*
X28850D1*
X29238D2*
X29543D1*
X29940D2*
X30611D1*
X30945D2*
X31638D1*
X32032D2*
X32311D1*
X23675Y63393D2*
X23980D1*
X24360D2*
X24978D1*
X25446D2*
X26066D1*
X26469D2*
X26749D1*
X27135D2*
X27782D1*
X28225D2*
X28862D1*
X29238D2*
X29543D1*
X29929D2*
X30563D1*
X30999D2*
X31646D1*
X32032D2*
X32311D1*
X23675Y63367D2*
X23980D1*
X24352D2*
X24941D1*
X25484D2*
X26077D1*
X26469D2*
X26749D1*
X27128D2*
X27738D1*
X28263D2*
X28872D1*
X29238D2*
X29543D1*
X29918D2*
X30522D1*
X31043D2*
X31653D1*
X32032D2*
X32311D1*
X23675Y63342D2*
X23980D1*
X24344D2*
X24909D1*
X25516D2*
X26090D1*
X26469D2*
X26750D1*
X27120D2*
X27702D1*
X28294D2*
X28878D1*
X29238D2*
X29543D1*
X29908D2*
X30489D1*
X31079D2*
X31660D1*
X32032D2*
X32311D1*
X23675Y63317D2*
X23980D1*
X24336D2*
X24881D1*
X25544D2*
X26101D1*
X26469D2*
X26754D1*
X27113D2*
X27673D1*
X28321D2*
X28885D1*
X29238D2*
X29543D1*
X29899D2*
X30461D1*
X31108D2*
X31667D1*
X32032D2*
X32311D1*
X23675Y63291D2*
X23980D1*
X24327D2*
X24862D1*
X25566D2*
X26108D1*
X26469D2*
X26764D1*
X27109D2*
X27651D1*
X28344D2*
X28892D1*
X29238D2*
X29543D1*
X29890D2*
X30437D1*
X31129D2*
X31672D1*
X32032D2*
X32311D1*
X23675Y63266D2*
X23980D1*
X24320D2*
X24847D1*
X25583D2*
X26111D1*
X26469D2*
X26781D1*
X27106D2*
X27634D1*
X28363D2*
X28899D1*
X29238D2*
X29543D1*
X29882D2*
X30418D1*
X31146D2*
X31675D1*
X32032D2*
X32311D1*
X23675Y63240D2*
X23980D1*
X24314D2*
X24833D1*
X25598D2*
X27620D1*
X28378D2*
X28904D1*
X29238D2*
X29543D1*
X29877D2*
X30403D1*
X31161D2*
X31677D1*
X32032D2*
X32311D1*
X23675Y63215D2*
X23980D1*
X24308D2*
X24818D1*
X25611D2*
X27606D1*
X28389D2*
X28906D1*
X29238D2*
X29543D1*
X29875D2*
X30392D1*
X31174D2*
X31680D1*
X32032D2*
X32311D1*
X23675Y63190D2*
X23980D1*
X24301D2*
X24806D1*
X25620D2*
X27594D1*
X28399D2*
X28907D1*
X29238D2*
X29543D1*
X29874D2*
X30382D1*
X31187D2*
X31687D1*
X32032D2*
X32311D1*
X23675Y63164D2*
X23980D1*
X24294D2*
X24799D1*
X25626D2*
X27582D1*
X28408D2*
X28908D1*
X29238D2*
X29543D1*
X29873D2*
X30373D1*
X31199D2*
X31693D1*
X32032D2*
X32311D1*
X23675Y63139D2*
X23980D1*
X24289D2*
X24796D1*
X25629D2*
X27572D1*
X28416D2*
X28908D1*
X29238D2*
X29543D1*
X29873D2*
X30365D1*
X31209D2*
X31698D1*
X32032D2*
X32311D1*
X23675Y63113D2*
X23980D1*
X24287D2*
X24794D1*
X25630D2*
X27567D1*
X28421D2*
X28908D1*
X29238D2*
X29543D1*
X29873D2*
X30360D1*
X31214D2*
X31700D1*
X32032D2*
X32311D1*
X23675Y63088D2*
X23980D1*
X24286D2*
X24793D1*
X25631D2*
X27564D1*
X28423D2*
X28908D1*
X29238D2*
X29543D1*
X29873D2*
X30358D1*
X31217D2*
X31701D1*
X32032D2*
X32311D1*
X23675Y63063D2*
X23980D1*
X24285D2*
X24793D1*
X25631D2*
X27563D1*
X28424D2*
X28908D1*
X29238D2*
X29543D1*
X29873D2*
X30357D1*
X31218D2*
X31701D1*
X32032D2*
X32311D1*
X23675Y63037D2*
X23980D1*
X24285D2*
X24793D1*
X25631D2*
X27563D1*
X28424D2*
X28908D1*
X29238D2*
X29543D1*
X29873D2*
X30360D1*
X31218D2*
X31701D1*
X32032D2*
X32311D1*
X23675Y63012D2*
X23980D1*
X24286D2*
X24793D1*
X25631D2*
X27566D1*
X28421D2*
X28908D1*
X29238D2*
X29543D1*
X29873D2*
X30366D1*
X31215D2*
X31698D1*
X32032D2*
X32311D1*
X23675Y62986D2*
X23980D1*
X24289D2*
X24794D1*
X25630D2*
X27573D1*
X28415D2*
X28908D1*
X29238D2*
X29543D1*
X29873D2*
X30373D1*
X31208D2*
X31691D1*
X32032D2*
X32311D1*
X23675Y62961D2*
X23980D1*
X24295D2*
X24798D1*
X25627D2*
X27583D1*
X28407D2*
X28908D1*
X29238D2*
X29543D1*
X29873D2*
X30378D1*
X31198D2*
X31685D1*
X32032D2*
X32311D1*
X23675Y62936D2*
X23980D1*
X24303D2*
X24808D1*
X25620D2*
X27594D1*
X28400D2*
X28908D1*
X29238D2*
X29543D1*
X29874D2*
X30384D1*
X31187D2*
X31681D1*
X32032D2*
X32311D1*
X23675Y62910D2*
X23980D1*
X24310D2*
X24821D1*
X25609D2*
X27607D1*
X28389D2*
X28907D1*
X29238D2*
X29543D1*
X29877D2*
X30393D1*
X31174D2*
X31678D1*
X32032D2*
X32311D1*
X23675Y62885D2*
X23980D1*
X24319D2*
X24836D1*
X25594D2*
X27623D1*
X28375D2*
X28904D1*
X29238D2*
X29543D1*
X29883D2*
X30406D1*
X31161D2*
X31676D1*
X32032D2*
X32311D1*
X23675Y62859D2*
X23980D1*
X24327D2*
X24853D1*
X25575D2*
X26110D1*
X26469D2*
X26749D1*
X27105D2*
X27642D1*
X28357D2*
X28897D1*
X29238D2*
X29543D1*
X29890D2*
X30424D1*
X31145D2*
X31672D1*
X32032D2*
X32311D1*
X23675Y62834D2*
X23980D1*
X24332D2*
X24874D1*
X25553D2*
X26103D1*
X26469D2*
X26749D1*
X27109D2*
X27662D1*
X28336D2*
X28891D1*
X29238D2*
X29543D1*
X29895D2*
X30445D1*
X31125D2*
X31666D1*
X32032D2*
X32311D1*
X23675Y62809D2*
X23980D1*
X24338D2*
X24897D1*
X25529D2*
X26093D1*
X26469D2*
X26749D1*
X27115D2*
X27683D1*
X28314D2*
X28886D1*
X29238D2*
X29543D1*
X29901D2*
X30468D1*
X31102D2*
X31660D1*
X32032D2*
X32311D1*
X23675Y62783D2*
X23980D1*
X24345D2*
X24923D1*
X25502D2*
X26082D1*
X26469D2*
X26749D1*
X27121D2*
X27709D1*
X28286D2*
X28880D1*
X29238D2*
X29543D1*
X29909D2*
X30498D1*
X31074D2*
X31655D1*
X32032D2*
X32311D1*
X23675Y62758D2*
X23980D1*
X24353D2*
X24958D1*
X25470D2*
X26072D1*
X26469D2*
X26749D1*
X27127D2*
X27745D1*
X28251D2*
X28872D1*
X29238D2*
X29543D1*
X29919D2*
X30536D1*
X31037D2*
X31651D1*
X32032D2*
X32311D1*
X23675Y62732D2*
X23980D1*
X24362D2*
X25012D1*
X25418D2*
X26064D1*
X26469D2*
X26749D1*
X27133D2*
X27800D1*
X28194D2*
X28862D1*
X29238D2*
X29543D1*
X29931D2*
X30593D1*
X30981D2*
X31643D1*
X32032D2*
X32311D1*
X23675Y62707D2*
X23980D1*
X24374D2*
X25097D1*
X25329D2*
X26055D1*
X26469D2*
X26749D1*
X27144D2*
X27889D1*
X28103D2*
X28850D1*
X29238D2*
X29543D1*
X29943D2*
X30682D1*
X30892D2*
X31631D1*
X32032D2*
X32311D1*
X23675Y62682D2*
X23980D1*
X24388D2*
X25215D1*
X25199D2*
X26046D1*
X26469D2*
X26749D1*
X27158D2*
X28009D1*
X27980D2*
X28838D1*
X29238D2*
X29543D1*
X29955D2*
X30803D1*
X30771D2*
X31616D1*
X32032D2*
X32311D1*
X23675Y62656D2*
X23980D1*
X24400D2*
X26037D1*
X26469D2*
X26749D1*
X27172D2*
X28825D1*
X29238D2*
X29543D1*
X29966D2*
X31603D1*
X32032D2*
X32311D1*
X23675Y62631D2*
X23980D1*
X24410D2*
X26025D1*
X26469D2*
X26749D1*
X27186D2*
X28812D1*
X29238D2*
X29543D1*
X29978D2*
X31589D1*
X32032D2*
X32311D1*
X23675Y62605D2*
X23980D1*
X24422D2*
X26010D1*
X26469D2*
X26749D1*
X27200D2*
X28797D1*
X29238D2*
X29543D1*
X29994D2*
X31573D1*
X32032D2*
X32311D1*
X23675Y62580D2*
X23980D1*
X24436D2*
X25994D1*
X26469D2*
X26749D1*
X27216D2*
X28780D1*
X29238D2*
X29543D1*
X30012D2*
X31557D1*
X32032D2*
X32311D1*
X23675Y62555D2*
X23980D1*
X24455D2*
X25977D1*
X26469D2*
X26749D1*
X27235D2*
X28764D1*
X29238D2*
X29543D1*
X30028D2*
X31541D1*
X32032D2*
X32311D1*
X23675Y62529D2*
X23980D1*
X24474D2*
X25957D1*
X26469D2*
X26749D1*
X27256D2*
X28746D1*
X29238D2*
X29543D1*
X30044D2*
X31523D1*
X32032D2*
X32311D1*
X23675Y62504D2*
X23980D1*
X24495D2*
X25934D1*
X26469D2*
X26749D1*
X27276D2*
X28726D1*
X29238D2*
X29543D1*
X30062D2*
X31503D1*
X32032D2*
X32311D1*
X23675Y62478D2*
X23980D1*
X24517D2*
X25910D1*
X26469D2*
X26749D1*
X27297D2*
X28703D1*
X29238D2*
X29543D1*
X30084D2*
X31479D1*
X32032D2*
X32311D1*
X23675Y62453D2*
X23980D1*
X24540D2*
X25885D1*
X26469D2*
X26749D1*
X27319D2*
X28678D1*
X29238D2*
X29543D1*
X30110D2*
X31452D1*
X32032D2*
X32311D1*
X23675Y62428D2*
X23980D1*
X24565D2*
X25860D1*
X26469D2*
X26749D1*
X27343D2*
X28653D1*
X29238D2*
X29543D1*
X30135D2*
X31425D1*
X32032D2*
X32311D1*
X23675Y62402D2*
X23980D1*
X24591D2*
X25834D1*
X26469D2*
X26749D1*
X27369D2*
X28627D1*
X29238D2*
X29543D1*
X30161D2*
X31398D1*
X32032D2*
X32311D1*
X23675Y62377D2*
X23980D1*
X24620D2*
X25808D1*
X26469D2*
X26749D1*
X27397D2*
X28598D1*
X29238D2*
X29543D1*
X30192D2*
X31371D1*
X32032D2*
X32311D1*
X23675Y62351D2*
X23980D1*
X24652D2*
X25779D1*
X26469D2*
X26749D1*
X27429D2*
X28563D1*
X29238D2*
X29543D1*
X30225D2*
X31342D1*
X32032D2*
X32311D1*
X23675Y62326D2*
X23980D1*
X24688D2*
X25746D1*
X26469D2*
X26749D1*
X27466D2*
X28524D1*
X29238D2*
X29543D1*
X30262D2*
X31308D1*
X32032D2*
X32311D1*
X23675Y62301D2*
X23980D1*
X24728D2*
X25706D1*
X26469D2*
X26749D1*
X27509D2*
X28482D1*
X29238D2*
X29543D1*
X30301D2*
X31268D1*
X32032D2*
X32311D1*
X23675Y62275D2*
X23980D1*
X24774D2*
X25659D1*
X26469D2*
X26749D1*
X27557D2*
X28436D1*
X29238D2*
X29543D1*
X30346D2*
X31218D1*
X32032D2*
X32311D1*
X23675Y62250D2*
X23980D1*
X24827D2*
X25602D1*
X26469D2*
X26749D1*
X27611D2*
X28383D1*
X29238D2*
X29543D1*
X30401D2*
X31159D1*
X32032D2*
X32311D1*
X23675Y62224D2*
X23980D1*
X24891D2*
X25531D1*
X26469D2*
X26749D1*
X27671D2*
X28320D1*
X29238D2*
X29543D1*
X30471D2*
X31093D1*
X32032D2*
X32311D1*
X23675Y62199D2*
X23980D1*
X24966D2*
X25446D1*
X26469D2*
X26749D1*
X27740D2*
X28248D1*
X29238D2*
X29543D1*
X30560D2*
X31019D1*
X32032D2*
X32311D1*
X23675Y62174D2*
X23980D1*
X25047D2*
X25352D1*
X26469D2*
X26749D1*
X27816D2*
X28171D1*
X29238D2*
X29543D1*
X30660D2*
X30940D1*
X32032D2*
X32311D1*
X23675Y62148D2*
X23980D1*
X26469D2*
X26749D1*
X29238D2*
X29543D1*
X32032D2*
X32311D1*
X23675Y62123D2*
X23980D1*
X26469D2*
X26749D1*
X29238D2*
X29543D1*
X32032D2*
X32311D1*
X23675Y62097D2*
X23980D1*
X26469D2*
X26749D1*
X29238D2*
X29543D1*
X32032D2*
X32311D1*
X23675Y62072D2*
X23980D1*
X26469D2*
X26749D1*
X29238D2*
X29543D1*
X32032D2*
X32311D1*
X23675Y62047D2*
X23980D1*
X26469D2*
X26749D1*
X29238D2*
X29543D1*
X32032D2*
X32311D1*
X23675Y62021D2*
X23980D1*
X26469D2*
X26749D1*
X29238D2*
X29543D1*
X32032D2*
X32311D1*
X23675Y61996D2*
X23980D1*
X26469D2*
X26749D1*
X29238D2*
X29543D1*
X32032D2*
X32311D1*
X23675Y61970D2*
X23980D1*
X26469D2*
X26749D1*
X29238D2*
X29543D1*
X32032D2*
X32311D1*
X23675Y61945D2*
X23980D1*
X26469D2*
X26749D1*
X29238D2*
X29543D1*
X32032D2*
X32311D1*
X23675Y61920D2*
X23980D1*
X26469D2*
X26749D1*
X29238D2*
X29543D1*
X32032D2*
X32311D1*
X23675Y61894D2*
X23980D1*
X26469D2*
X26749D1*
X29238D2*
X29543D1*
X32032D2*
X32311D1*
X23675Y61869D2*
X23980D1*
X26469D2*
X26749D1*
X29238D2*
X29543D1*
X32032D2*
X32311D1*
X23675Y61843D2*
X23980D1*
X26469D2*
X26749D1*
X29238D2*
X29543D1*
X32032D2*
X32311D1*
X23675Y61818D2*
X32311D1*
X23675Y61793D2*
X32311D1*
X23675Y61767D2*
X32311D1*
X23675Y61742D2*
X32311D1*
X23675Y61716D2*
X32311D1*
X23675Y61691D2*
X32311D1*
X23675Y61666D2*
X32311D1*
X23675Y61640D2*
X32311D1*
X23675Y61615D2*
X32311D1*
X23675Y61589D2*
X32311D1*
X23675Y61564D2*
X32311D1*
X23675Y61539D2*
X32311D1*
X18681Y73614D2*
Y73589D1*
X18478Y73563D1*
X18275Y73538D1*
Y73513D1*
X18173Y73487D1*
X18088Y73462D1*
X18011Y73436D1*
X17940Y73411D1*
X17879Y73386D1*
X17822Y73360D1*
X17769Y73335D1*
X17721Y73309D1*
X17677Y73284D1*
X17634Y73259D1*
X17601Y73233D1*
X17579Y73208D1*
X17564Y73182D1*
X17488D1*
X17458Y73157D1*
X17423Y73132D1*
X17387Y73106D1*
X17349Y73081D1*
X17308Y73055D1*
X17269Y73030D1*
X17234Y73005D1*
X17201Y72979D1*
X17168Y72954D1*
X17133Y72928D1*
X17099Y72903D1*
X17068Y72878D1*
X17037Y72852D1*
X17004Y72827D1*
X16974Y72801D1*
X16943Y72776D1*
X16910Y72751D1*
X16875Y72725D1*
X16843Y72700D1*
X16813Y72674D1*
X16787Y72649D1*
X16762Y72624D1*
X16737Y72598D1*
X16710Y72573D1*
X16686Y72547D1*
X16666Y72522D1*
X16649Y72497D1*
X16631Y72471D1*
X16611Y72446D1*
X16589Y72420D1*
X16564Y72395D1*
X16539Y72370D1*
X16514Y72344D1*
X16487Y72319D1*
X16461Y72293D1*
X16436Y72268D1*
X16416Y72243D1*
X16399Y72217D1*
X16381Y72192D1*
X16358Y72166D1*
X16335Y72141D1*
X16311Y72116D1*
X16286Y72090D1*
X16266Y72065D1*
X16253Y72039D1*
X16241Y72014D1*
X16226Y71989D1*
X16204Y71963D1*
X16180Y71938D1*
X16156Y71912D1*
X16136Y71887D1*
X16122Y71862D1*
X16110Y71836D1*
X16099Y71811D1*
X16086Y71785D1*
X16068Y71760D1*
X16047Y71735D1*
X16030Y71709D1*
X16014Y71684D1*
X15997Y71658D1*
X15980Y71633D1*
X15964Y71608D1*
X15947Y71582D1*
X15931Y71557D1*
X15921Y71531D1*
X15912Y71506D1*
X15904Y71481D1*
X15896Y71455D1*
X15890Y71430D1*
X15881Y71404D1*
X15868Y71379D1*
X15854Y71354D1*
X15845Y71328D1*
X15839Y71303D1*
X15834Y71277D1*
X15827Y71252D1*
X15820Y71227D1*
X15813Y71201D1*
X15805Y71176D1*
X15791Y71150D1*
X15778Y71125D1*
X15769Y71100D1*
X15764Y71074D1*
X15761Y71049D1*
X15757Y71023D1*
X15750Y70998D1*
X15744Y70973D1*
X15739Y70947D1*
X15735Y70922D1*
X15727Y70896D1*
X15715Y70871D1*
X15701Y70846D1*
X15693Y70820D1*
X15688Y70795D1*
X15686Y70769D1*
X15685Y70744D1*
X15684Y70719D1*
Y70693D1*
Y70668D1*
Y70642D1*
Y70617D1*
Y70592D1*
Y70566D1*
Y70541D1*
Y70515D1*
Y70490D1*
Y70465D1*
Y70439D1*
Y70414D1*
Y70388D1*
Y70363D1*
Y70338D1*
Y70312D1*
Y70287D1*
Y70261D1*
Y70236D1*
Y70211D1*
Y70185D1*
Y70160D1*
Y70134D1*
Y70109D1*
Y70084D1*
Y70058D1*
Y70033D1*
Y70007D1*
Y69982D1*
X15686Y69957D1*
X15690Y69931D1*
X15704Y69906D1*
X15718Y69880D1*
X15727Y69855D1*
X15731Y69830D1*
X15734Y69804D1*
X15735Y69779D1*
X15736Y69753D1*
X15739Y69728D1*
X15745Y69703D1*
X15754Y69677D1*
X15765Y69652D1*
X15779Y69626D1*
X15793Y69601D1*
X15803Y69576D1*
X15809Y69550D1*
X15814Y69525D1*
X15821Y69499D1*
X15828Y69474D1*
X15834Y69449D1*
X15843Y69423D1*
X15857Y69398D1*
X15870Y69372D1*
X15879Y69347D1*
X15885Y69322D1*
X15890Y69296D1*
X15897Y69271D1*
X15906Y69245D1*
X15917Y69220D1*
X15932Y69195D1*
X15948Y69169D1*
X15963Y69144D1*
X15981Y69118D1*
X15996Y69093D1*
X16006Y69068D1*
X16012Y69042D1*
X16019Y69017D1*
X16033Y68991D1*
X16052Y68966D1*
X16070Y68941D1*
X16085Y68915D1*
X16097Y68890D1*
X16108Y68864D1*
X16120Y68839D1*
X16137Y68814D1*
X16157Y68788D1*
X16180Y68763D1*
X16201Y68737D1*
X16218Y68712D1*
X16232Y68687D1*
X16247Y68661D1*
X16266Y68636D1*
X16288Y68610D1*
X16311Y68585D1*
X16336Y68560D1*
X16362Y68534D1*
X16388Y68509D1*
X16416Y68483D1*
X16447Y68458D1*
X16476Y68433D1*
X16504Y68407D1*
X16530Y68382D1*
X16554Y68356D1*
X16573Y68331D1*
X16588Y68306D1*
X16602Y68280D1*
X16621Y68255D1*
X16644Y68229D1*
X16666Y68204D1*
X16691Y68179D1*
X16720Y68153D1*
X16756Y68128D1*
X16796Y68102D1*
X16835Y68077D1*
X16874Y68052D1*
X16912Y68026D1*
X16949Y68001D1*
X16990Y67975D1*
X17030Y67950D1*
X17066Y67925D1*
X17103Y67899D1*
X17142Y67874D1*
X17179Y67848D1*
X17211Y67823D1*
X17242Y67798D1*
X17276Y67772D1*
X17317Y67747D1*
X17364Y67721D1*
X17411Y67696D1*
X17458Y67671D1*
X17500Y67645D1*
X17536Y67620D1*
X17552Y67594D1*
X17564Y67569D1*
X17620D1*
X17665Y67544D1*
X17709Y67518D1*
X17751Y67493D1*
X17797Y67467D1*
X17848Y67442D1*
X17904Y67417D1*
X17971Y67391D1*
X18046Y67366D1*
X20053Y73614D2*
Y73589D1*
X20166Y73563D1*
X20256Y73538D1*
X20323Y73513D1*
X20383Y73487D1*
X20356Y73462D1*
X20332Y73436D1*
X20403Y73411D1*
X20461Y73386D1*
X20504Y73360D1*
X20538Y73335D1*
X20567Y73309D1*
X20594Y73284D1*
X20619Y73259D1*
X20640Y73233D1*
X20653Y73208D1*
X20663Y73182D1*
X20790D1*
Y73157D1*
Y73132D1*
Y73106D1*
X20866D1*
X20870Y73081D1*
X20879Y73055D1*
X20891Y73030D1*
X20561Y73386D2*
Y73360D1*
X20586Y73386D2*
X20563Y73360D1*
X20536Y73335D1*
X20565Y73309D1*
X20592Y73284D1*
X20618Y73259D1*
X20639Y73233D1*
X20653Y73208D1*
X20663Y73182D1*
X20790D1*
Y73157D1*
Y73132D1*
Y73106D1*
X20866D1*
X20870Y73081D1*
X20879Y73055D1*
X20891Y73030D1*
X20637Y73335D2*
X20664Y73309D1*
X20688Y73284D1*
X20663Y73335D2*
X20917Y73055D2*
X20891Y73030D1*
X20942Y73055D2*
X20948Y73030D1*
X20966Y73005D1*
X20988Y72979D1*
X21011Y72954D1*
X21036Y72928D1*
X21061Y72903D1*
X21086Y72878D1*
X21111Y72852D1*
X21137Y72827D1*
X21163Y72801D1*
X21192Y72776D1*
X21222Y72751D1*
X21250Y72725D1*
X21270Y72700D1*
X21286Y72674D1*
X21300Y72649D1*
X21317Y72624D1*
X21336Y72598D1*
X21359Y72573D1*
X21383Y72547D1*
X21408Y72522D1*
X21433Y72497D1*
X21460Y72471D1*
X21487Y72446D1*
X21515Y72420D1*
X21540Y72395D1*
X21560Y72370D1*
X21577Y72344D1*
X21595Y72319D1*
X21614Y72293D1*
X21630Y72268D1*
X21643Y72243D1*
X21657Y72217D1*
X21676Y72192D1*
X21698Y72166D1*
X21721Y72141D1*
X21742Y72116D1*
X21762Y72090D1*
X21779Y72065D1*
X21798Y72039D1*
X21816Y72014D1*
X21833Y71989D1*
X21846Y71963D1*
X21860Y71938D1*
X21879Y71912D1*
X21901Y71887D1*
X21924Y71862D1*
X21945Y71836D1*
X21964Y71811D1*
X21978Y71785D1*
X21990Y71760D1*
X21999Y71735D1*
X22006Y71709D1*
X22015Y71684D1*
X22029Y71658D1*
X22044Y71633D1*
X22060Y71608D1*
X22077Y71582D1*
X22092Y71557D1*
X22103Y71531D1*
X22111Y71506D1*
X22119Y71481D1*
X22127Y71455D1*
X22133Y71430D1*
X22142Y71404D1*
X22156Y71379D1*
X22170Y71354D1*
X22182Y71328D1*
X22193Y71303D1*
X22204Y71277D1*
X22216Y71252D1*
X22231Y71227D1*
X22245Y71201D1*
X22254Y71176D1*
X22260Y71150D1*
X22266Y71125D1*
X22273Y71100D1*
X22279Y71074D1*
X22284Y71049D1*
X22287Y71023D1*
X22289Y70998D1*
X22296Y70973D1*
X22309Y70947D1*
X22324Y70922D1*
X22339Y70896D1*
X22356Y70871D1*
X22371Y70846D1*
X22381Y70820D1*
X22386Y70795D1*
X22388Y70769D1*
X22389Y70744D1*
X22391Y70719D1*
X22394Y70693D1*
X22400Y70668D1*
X22407Y70642D1*
X22411Y70617D1*
X22413Y70592D1*
X22414Y70566D1*
X22415Y70541D1*
Y70515D1*
X22417Y70490D1*
X22421Y70465D1*
X22435Y70439D1*
X22449Y70414D1*
X22458Y70388D1*
X22462Y70363D1*
X22465Y70338D1*
Y70312D1*
X22466Y70287D1*
Y70261D1*
Y70236D1*
Y70211D1*
Y70185D1*
Y70160D1*
Y70134D1*
Y70109D1*
Y70084D1*
Y70058D1*
Y70033D1*
Y70007D1*
Y69982D1*
Y69957D1*
Y69931D1*
Y69906D1*
Y69880D1*
Y69855D1*
Y69830D1*
Y69804D1*
Y69779D1*
Y69753D1*
Y69728D1*
Y69703D1*
Y69677D1*
Y69652D1*
Y69626D1*
Y69601D1*
Y69576D1*
Y69550D1*
Y69525D1*
Y69499D1*
Y69474D1*
Y69449D1*
Y69423D1*
Y69398D1*
Y69372D1*
Y69347D1*
Y69322D1*
Y69296D1*
Y69271D1*
Y69245D1*
Y69220D1*
Y69195D1*
Y69169D1*
Y69144D1*
Y69118D1*
X22464Y69093D1*
X22460Y69068D1*
X22446Y69042D1*
X22432Y69017D1*
X22423Y68991D1*
X22418Y68966D1*
X22412Y68941D1*
X22405Y68915D1*
X22398Y68890D1*
X22392Y68864D1*
X22383Y68839D1*
X22370Y68814D1*
X22356Y68788D1*
X22345Y68763D1*
X22333Y68737D1*
X22316Y68712D1*
X22295Y68687D1*
X22278Y68661D1*
X22262Y68636D1*
X22244Y68610D1*
X22224Y68585D1*
X22202Y68560D1*
X22178Y68534D1*
X22158Y68509D1*
X22142Y68483D1*
X22126Y68458D1*
X22103Y68433D1*
X22070Y68407D1*
X22033Y68382D1*
X22000Y68356D1*
X21970Y68331D1*
X21942Y68306D1*
X21917Y68280D1*
X21895Y68255D1*
X21876Y68229D1*
X21862Y68204D1*
X21848Y68179D1*
X21831Y68153D1*
X21806Y68128D1*
X21776Y68102D1*
X21740Y68077D1*
X21699Y68052D1*
X21653Y68026D1*
X18504Y72624D2*
Y72598D1*
Y72573D1*
X18324Y72547D1*
X18148Y72522D1*
Y72497D1*
X18060Y72471D1*
X17990Y72446D1*
X17932Y72420D1*
X17881Y72395D1*
X17837Y72370D1*
X17793Y72344D1*
X17752Y72319D1*
X17717Y72293D1*
X17686Y72268D1*
X17658Y72243D1*
X17632Y72217D1*
X17607Y72192D1*
X17580Y72166D1*
X17552Y72141D1*
X17524Y72116D1*
X17499Y72090D1*
X17481Y72065D1*
X17468Y72039D1*
X17456Y72014D1*
X17438Y71989D1*
X17417Y71963D1*
X17394Y71938D1*
X17369Y71912D1*
X17345Y71887D1*
X17326Y71862D1*
X17309Y71836D1*
X17291Y71811D1*
X17269Y71785D1*
X17247Y71760D1*
X17228Y71735D1*
X17214Y71709D1*
X17202Y71684D1*
X17191Y71658D1*
X17178Y71633D1*
X17160Y71608D1*
X17140Y71582D1*
X17124Y71557D1*
X17112Y71531D1*
X17101Y71506D1*
X17087Y71481D1*
X17073Y71455D1*
X17064Y71430D1*
X17059Y71404D1*
X17056Y71379D1*
X17052Y71354D1*
X17045Y71328D1*
X17037Y71303D1*
X17026Y71277D1*
X17012Y71252D1*
X16997Y71227D1*
X16988Y71201D1*
X16983Y71176D1*
X16979Y71150D1*
X16972Y71125D1*
X16959Y71100D1*
X16946Y71074D1*
X16936Y71049D1*
X16928Y71023D1*
X16920Y70998D1*
X16913Y70973D1*
X16908Y70947D1*
X16905Y70922D1*
X16904Y70896D1*
Y70871D1*
X16903Y70846D1*
Y70820D1*
Y70795D1*
Y70769D1*
Y70744D1*
Y70719D1*
Y70693D1*
Y70668D1*
Y70642D1*
Y70617D1*
Y70592D1*
Y70566D1*
Y70541D1*
Y70515D1*
Y70490D1*
Y70465D1*
Y70439D1*
Y70414D1*
Y70388D1*
Y70363D1*
Y70338D1*
Y70312D1*
Y70287D1*
Y70261D1*
Y70236D1*
Y70211D1*
Y70185D1*
Y70160D1*
Y70134D1*
Y70109D1*
Y70084D1*
Y70058D1*
Y70033D1*
Y70007D1*
Y69982D1*
Y69957D1*
Y69931D1*
Y69906D1*
Y69880D1*
X16904Y69855D1*
X16908Y69830D1*
X16914Y69804D1*
X16922Y69779D1*
X16933Y69753D1*
X16948Y69728D1*
X16962Y69703D1*
X16973Y69677D1*
X16984Y69652D1*
X17000Y69626D1*
X17017Y69601D1*
X17032Y69576D1*
X17046Y69550D1*
X17060Y69525D1*
X17079Y69499D1*
X17101Y69474D1*
X17124Y69449D1*
X17149Y69423D1*
X17173Y69398D1*
X17192Y69372D1*
X17209Y69347D1*
X17227Y69322D1*
X17249Y69296D1*
X17271Y69271D1*
X17290Y69245D1*
X17304Y69220D1*
X17318Y69195D1*
X17336Y69169D1*
X17364Y69144D1*
X17399Y69118D1*
X17436Y69093D1*
X17473Y69068D1*
X17513Y69042D1*
X17548Y69017D1*
X17574Y68991D1*
X17583Y68966D1*
X17592Y68941D1*
X17607Y68915D1*
X17629Y68890D1*
X17659Y68864D1*
X17695Y68839D1*
X17735Y68814D1*
X17776Y68788D1*
X17821Y68763D1*
X17869Y68737D1*
X19443Y72624D2*
Y72598D1*
Y72573D1*
X19569Y72547D1*
X19667Y72522D1*
X19738Y72497D1*
X19796Y72471D1*
X19845Y72446D1*
X19890Y72420D1*
X19934Y72395D1*
X19975Y72370D1*
X20010Y72344D1*
X20039Y72319D1*
X20061Y72293D1*
X20078Y72268D1*
X20097Y72243D1*
X20119Y72217D1*
X20148Y72192D1*
X20185Y72166D1*
X20221Y72141D1*
X20248Y72116D1*
X20267Y72090D1*
X20283Y72065D1*
X20300Y72039D1*
X20320Y72014D1*
X20343Y71989D1*
X20367Y71963D1*
X20392Y71938D1*
X20417Y71912D1*
X20444Y71887D1*
X20471Y71862D1*
X20499Y71836D1*
X20526Y71811D1*
X20551Y71785D1*
X20573Y71760D1*
X20592Y71735D1*
X20608Y71709D1*
X20627Y71684D1*
X20649Y71658D1*
X20672Y71633D1*
X20696Y71608D1*
X20721Y71582D1*
X20741Y71557D1*
X20756Y71531D1*
X20769Y71506D1*
X20787Y71481D1*
X20809Y71455D1*
X20832Y71430D1*
X20853Y71404D1*
X20872Y71379D1*
X20888Y71354D1*
X20906Y71328D1*
X20927Y71303D1*
X20948Y71277D1*
X20966Y71252D1*
X20984Y71227D1*
X21000Y71201D1*
X21014Y71176D1*
X21025Y71150D1*
X21034Y71125D1*
X21039Y71100D1*
X21044Y71074D1*
X21051Y71049D1*
X21064Y71023D1*
X21077Y70998D1*
X21086Y70973D1*
X21092Y70947D1*
X21097Y70922D1*
X21104Y70896D1*
X21113Y70871D1*
X21124Y70846D1*
X21139Y70820D1*
X21153Y70795D1*
X21162Y70769D1*
X21167Y70744D1*
X21170Y70719D1*
X21174Y70693D1*
X21181Y70668D1*
X21187Y70642D1*
X21192Y70617D1*
X21194Y70592D1*
X21197Y70566D1*
X21204Y70541D1*
X21217Y70515D1*
X21230Y70490D1*
X21238Y70465D1*
X21243Y70439D1*
X21245Y70414D1*
X21246Y70388D1*
X21247Y70363D1*
Y70338D1*
Y70312D1*
Y70287D1*
Y70261D1*
Y70236D1*
Y70211D1*
Y70185D1*
Y70160D1*
Y70134D1*
Y70109D1*
Y70084D1*
Y70058D1*
Y70033D1*
Y70007D1*
Y69982D1*
Y69957D1*
Y69931D1*
Y69906D1*
Y69880D1*
Y69855D1*
Y69830D1*
Y69804D1*
Y69779D1*
Y69753D1*
Y69728D1*
Y69703D1*
Y69677D1*
Y69652D1*
Y69626D1*
Y69601D1*
Y69576D1*
Y69550D1*
Y69525D1*
Y69499D1*
Y69474D1*
Y69449D1*
Y69423D1*
Y69398D1*
X21249Y69372D1*
X21253Y69347D1*
X21267Y69322D1*
X21283Y69296D1*
X21298Y69271D1*
X21274Y69245D1*
X21257Y69220D1*
X21251Y69195D1*
X21249Y69169D1*
X21248Y69144D1*
X21247Y69118D1*
X21244Y69093D1*
X21237Y69068D1*
X21207Y69042D1*
X21171Y69017D1*
X20815Y69372D2*
X20768Y69347D1*
X20719Y69322D1*
X20680Y69296D1*
X20652Y69271D1*
X20637Y69245D1*
X20561D1*
X20536Y69220D1*
X20501Y69195D1*
X20459Y69169D1*
X20417Y69144D1*
X20378Y69118D1*
X20342Y69093D1*
X20303Y69068D1*
X20264Y69042D1*
X20227Y69017D1*
X20195Y68991D1*
X20165Y68966D1*
X20139Y68941D1*
X20113Y68915D1*
X20087Y68890D1*
X20062Y68864D1*
X20036Y68839D1*
X20010Y68814D1*
X19986Y68788D1*
X19961Y68763D1*
X19932Y68737D1*
X19896Y68712D1*
X19856Y68687D1*
X19816Y68661D1*
X19778Y68636D1*
X19740Y68610D1*
X19701Y68585D1*
X19654Y68560D1*
X19600Y68534D1*
X19546Y68509D1*
X19487Y68483D1*
X19417Y68458D1*
X19332Y68433D1*
X19219Y68407D1*
X19073Y68382D1*
X18910Y68356D1*
X20942Y69372D2*
Y69347D1*
Y69322D1*
X21018D1*
X21026Y69296D1*
X21039Y69271D1*
X21052Y69245D1*
X21060Y69220D1*
X21066Y69195D1*
X21062Y69169D1*
X21049Y69144D1*
X21036Y69118D1*
X21026Y69093D1*
X21027Y69068D1*
X21046Y69042D1*
X21069Y69017D1*
X21044Y69372D2*
Y69347D1*
X21069Y69372D2*
X21052Y69347D1*
X21035Y69322D1*
X21031Y69296D1*
X21042Y69271D1*
X21053Y69245D1*
X21061Y69220D1*
X21066Y69195D1*
X21062Y69169D1*
X21049Y69144D1*
X21036Y69118D1*
X21026Y69093D1*
X21027Y69068D1*
X21046Y69042D1*
X21069Y69017D1*
X21094Y69042D2*
X21069Y69017D1*
X21145Y69042D2*
X21171Y69017D1*
X17843Y68814D2*
X17870Y68788D1*
X17894Y68763D1*
X17818Y68737D1*
X17869Y68814D2*
X17894Y68737D2*
X17915Y68712D1*
X17939Y68687D1*
X17963Y68661D1*
X17990Y68636D1*
X18021Y68610D1*
X17996Y68687D2*
X18023Y68661D1*
X18046Y68636D1*
X17996Y68610D1*
X18021Y68687D2*
X17994Y68661D1*
X17970Y68636D1*
X18021Y68610D1*
X18097Y68661D2*
X18085Y68636D1*
X18072Y68610D1*
X18135Y68585D1*
X18212Y68560D1*
X18300Y68534D1*
X18273Y68509D1*
X18250Y68483D1*
X18375Y68458D1*
X18504Y68433D1*
Y68407D1*
X18732Y68382D1*
X18961Y68356D1*
X20942Y68407D2*
X20879Y68382D1*
X20826Y68356D1*
X20782Y68331D1*
X20743Y68306D1*
X20711Y68280D1*
X20682Y68255D1*
X20655Y68229D1*
X20631Y68204D1*
X20610Y68179D1*
X20588Y68153D1*
X20559Y68128D1*
X20522Y68102D1*
X20485Y68077D1*
X20451Y68052D1*
X20419Y68026D1*
X20388Y68001D1*
X20352Y67975D1*
X20312Y67950D1*
X20272Y67925D1*
X20231Y67899D1*
X20188Y67874D1*
X20145Y67848D1*
X20100Y67823D1*
X20051Y67798D1*
X20002Y67772D1*
X19952Y67747D1*
X19901Y67721D1*
X19854Y67696D1*
X19810Y67671D1*
X19768Y67645D1*
X19734Y67620D1*
X19713Y67594D1*
X19697Y67569D1*
X19610D1*
X19550Y67544D1*
X19494Y67518D1*
X19438Y67493D1*
X19365Y67467D1*
X19262Y67442D1*
X19139Y67417D1*
Y67391D1*
X18986Y67366D1*
X20815Y68407D2*
X20898Y68382D1*
X20962Y68356D1*
X21009Y68331D1*
X21045Y68306D1*
X21075Y68280D1*
X21102Y68255D1*
X21128Y68229D1*
X21152Y68204D1*
X21169Y68179D1*
X21182Y68153D1*
X21180Y68128D1*
X21175Y68102D1*
X21165Y68077D1*
X21151Y68052D1*
X21138Y68026D1*
X21127Y68001D1*
X21129Y67975D1*
X21141Y67950D1*
X21156Y67925D1*
X21171Y67899D1*
X21552Y68102D2*
X21544Y68077D1*
X21511Y68052D1*
X21465Y68026D1*
X21416Y68001D1*
X21367Y67975D1*
X21315Y67950D1*
X21265Y67925D1*
X21221Y67899D1*
X21602Y68102D2*
X21609Y68077D1*
X21629Y68052D1*
X21653Y68026D1*
X34081Y59922D2*
X34073Y59897D1*
X34065Y59871D1*
X34060Y59846D1*
X34057Y59821D1*
X34053Y59795D1*
X34046Y59770D1*
X34039Y59744D1*
X34035Y59719D1*
X34031Y59694D1*
X34027Y59668D1*
X34021Y59643D1*
X34014Y59617D1*
X34009Y59592D1*
X34007Y59567D1*
X34006Y59541D1*
X34004Y59516D1*
X34001Y59490D1*
X33995Y59465D1*
X33988Y59440D1*
X33984Y59414D1*
X33981Y59389D1*
X33976Y59363D1*
X33970Y59338D1*
X33963Y59313D1*
X33959Y59287D1*
X33956Y59262D1*
X33955Y59236D1*
X33954Y59211D1*
X33950Y59186D1*
X33944Y59160D1*
X33938Y59135D1*
X33933Y59109D1*
X33930Y59084D1*
X33925Y59059D1*
X33919Y59033D1*
X33912Y59008D1*
X33908Y58982D1*
X33905Y58957D1*
X33903Y58932D1*
X33900Y58906D1*
X33893Y58881D1*
X33885Y58855D1*
X33875Y58830D1*
X33848Y58805D1*
X33809Y58779D1*
X33755Y58754D1*
X33688Y58728D1*
X33615Y58703D1*
X33541Y58678D1*
X33472Y58652D1*
X33409Y58627D1*
X33350Y58601D1*
X33292Y58576D1*
X33224Y58551D1*
X33138Y58525D1*
X33040Y58500D1*
X35123Y59922D2*
X35131Y59897D1*
X35139Y59871D1*
X35144Y59846D1*
X35147Y59821D1*
X35152Y59795D1*
X35158Y59770D1*
X35165Y59744D1*
X35170Y59719D1*
X35173Y59694D1*
X35177Y59668D1*
X35184Y59643D1*
X35190Y59617D1*
X35195Y59592D1*
X35197Y59567D1*
X35199Y59541D1*
X35203Y59516D1*
X35209Y59490D1*
X35216Y59465D1*
X35220Y59440D1*
X35223Y59414D1*
X35225Y59389D1*
X35228Y59363D1*
X35235Y59338D1*
X35241Y59313D1*
X35246Y59287D1*
X35249Y59262D1*
X35253Y59236D1*
X35260Y59211D1*
X35267Y59186D1*
X35271Y59160D1*
X35273Y59135D1*
X35275Y59109D1*
X35276Y59084D1*
X35279Y59059D1*
X35285Y59033D1*
X35292Y59008D1*
X35297Y58982D1*
X35300Y58957D1*
X35304Y58932D1*
X35311Y58906D1*
X35318Y58881D1*
X35324Y58855D1*
X35332Y58830D1*
X35357Y58805D1*
X35396Y58779D1*
X35450Y58754D1*
X35516Y58728D1*
X35590Y58703D1*
X35663Y58678D1*
X35732Y58652D1*
X35795Y58627D1*
X35854Y58601D1*
X35912Y58576D1*
X35980Y58551D1*
X36066Y58525D1*
X36164Y58500D1*
X32176Y59084D2*
X32151Y59059D1*
X32126Y59033D1*
X32100Y59008D1*
X32075Y58982D1*
X32049Y58957D1*
X32024Y58932D1*
X31999Y58906D1*
X31974Y58881D1*
X31952Y58855D1*
X31933Y58830D1*
X31914Y58805D1*
X31893Y58779D1*
X31870Y58754D1*
X31845Y58728D1*
X31821Y58703D1*
X31795Y58678D1*
X31770Y58652D1*
X31745Y58627D1*
X31719Y58601D1*
X31694Y58576D1*
X31668Y58551D1*
X31644Y58525D1*
X31622Y58500D1*
X31602Y58474D1*
X31579Y58449D1*
X31553Y58424D1*
X31527Y58398D1*
X31505Y58373D1*
X31485Y58347D1*
X31465Y58322D1*
X31483Y58297D1*
X31504Y58271D1*
X31530Y58246D1*
X31556Y58220D1*
X31578Y58195D1*
X31598Y58170D1*
X31616Y58144D1*
X31630Y58119D1*
X31642Y58093D1*
X31655Y58068D1*
X31670Y58043D1*
X31686Y58017D1*
X31702Y57992D1*
X31719Y57966D1*
X31736Y57941D1*
X31753Y57916D1*
X31770Y57890D1*
X31787Y57865D1*
X31805Y57839D1*
X31824Y57814D1*
X31843Y57789D1*
X31858Y57763D1*
X31870Y57738D1*
X31883Y57712D1*
X31899Y57687D1*
X31915Y57662D1*
X31931Y57636D1*
X31948Y57611D1*
X31965Y57585D1*
X31982Y57560D1*
X31999Y57535D1*
X32014Y57509D1*
X32028Y57484D1*
X32038Y57458D1*
X32044Y57433D1*
X32046Y57408D1*
X32044Y57382D1*
X32038Y57357D1*
X32028Y57331D1*
X32017Y57306D1*
X32005Y57281D1*
X31992Y57255D1*
X31980Y57230D1*
X31967Y57204D1*
X31954Y57179D1*
X31941Y57154D1*
X31929Y57128D1*
X31917Y57103D1*
X31908Y57077D1*
X31901Y57052D1*
X31895Y57027D1*
X31887Y57001D1*
X31876Y56976D1*
X31865Y56950D1*
X31856Y56925D1*
X31847Y56900D1*
X31838Y56874D1*
X31829Y56849D1*
X31821Y56823D1*
X31812Y56798D1*
X31804Y56773D1*
X31796Y56747D1*
X31787Y56722D1*
X31777Y56696D1*
X31766Y56671D1*
X31737Y56646D1*
X31667Y56620D1*
X31572Y56595D1*
X31455Y56569D1*
X31325Y56544D1*
X31189Y56519D1*
X31052Y56493D1*
X30925Y56468D1*
X30825Y56442D1*
X30750Y56417D1*
X30721Y56392D1*
X30712Y56366D1*
X30707Y56341D1*
X30704Y56315D1*
Y56290D1*
X30703Y56265D1*
Y56239D1*
Y56214D1*
Y56188D1*
Y56163D1*
Y56138D1*
Y56112D1*
Y56087D1*
Y56061D1*
Y56036D1*
Y56011D1*
Y55985D1*
Y55960D1*
Y55934D1*
Y55909D1*
Y55884D1*
Y55858D1*
Y55833D1*
Y55807D1*
Y55782D1*
Y55757D1*
Y55731D1*
Y55706D1*
Y55680D1*
Y55655D1*
Y55630D1*
Y55604D1*
Y55579D1*
Y55553D1*
Y55528D1*
Y55503D1*
Y55477D1*
Y55452D1*
Y55426D1*
X30704Y55401D1*
X30707Y55376D1*
X30725Y55350D1*
X30781Y55325D1*
X30867Y55299D1*
X30980Y55274D1*
X31106Y55249D1*
X31237Y55223D1*
Y55198D1*
X31368Y55172D1*
X31494Y55147D1*
X31598Y55122D1*
X31670Y55096D1*
X31721Y55071D1*
X31742Y55045D1*
X31757Y55020D1*
X31768Y54995D1*
X31778Y54969D1*
X31787Y54944D1*
X31795Y54918D1*
X31804Y54893D1*
X31812Y54868D1*
X31817Y54842D1*
X31823Y54817D1*
X31830Y54791D1*
X31838Y54766D1*
X31846Y54741D1*
X31856Y54715D1*
X31867Y54690D1*
X31878Y54664D1*
X31891Y54639D1*
X31903Y54614D1*
X31913Y54588D1*
X31922Y54563D1*
X31931Y54537D1*
X31939Y54512D1*
X31948Y54487D1*
X31957Y54461D1*
X31968Y54436D1*
X31980Y54410D1*
X31992Y54385D1*
X32004Y54360D1*
X32013Y54334D1*
X32018Y54309D1*
Y54283D1*
X32012Y54258D1*
X32002Y54233D1*
X31988Y54207D1*
X31973Y54182D1*
X31960Y54156D1*
X31949Y54131D1*
X31936Y54106D1*
X31921Y54080D1*
X31905Y54055D1*
X31888Y54029D1*
X31871Y54004D1*
X31855Y53979D1*
X31838Y53953D1*
X31821Y53928D1*
X31804Y53902D1*
X31786Y53877D1*
X31767Y53852D1*
X31748Y53826D1*
X31733Y53801D1*
X31721Y53775D1*
X31707Y53750D1*
X31692Y53725D1*
X31676Y53699D1*
X31660Y53674D1*
X31643Y53648D1*
X31626Y53623D1*
X31609Y53598D1*
X31591Y53572D1*
X31571Y53547D1*
X31548Y53521D1*
X31524Y53496D1*
X31504Y53471D1*
X31489Y53445D1*
X31478Y53420D1*
X31481Y53394D1*
X31490Y53369D1*
X31507Y53344D1*
X31532Y53318D1*
X31561Y53293D1*
X31589Y53267D1*
X31616Y53242D1*
X31642Y53217D1*
X31668Y53191D1*
X31694Y53166D1*
X31719Y53140D1*
X31744Y53115D1*
X31769Y53090D1*
X31791Y53064D1*
X31810Y53039D1*
X31829Y53013D1*
X31850Y52988D1*
X31873Y52963D1*
X31898Y52937D1*
X31923Y52912D1*
X31948Y52886D1*
X31973Y52861D1*
X32000Y52836D1*
X32028Y52810D1*
X32060Y52785D1*
X32092Y52759D1*
X32120Y52734D1*
X32145Y52709D1*
X32165Y52683D1*
X32183Y52658D1*
X32202Y52632D1*
X32278Y59084D2*
X32312Y59059D1*
X32346Y59033D1*
X32380Y59008D1*
X32414Y58982D1*
X32451Y58957D1*
X32488Y58932D1*
X32526Y58906D1*
X32562Y58881D1*
X32594Y58855D1*
X32623Y58830D1*
X32651Y58805D1*
X32683Y58779D1*
X32718Y58754D1*
X32755Y58728D1*
X32793Y58703D1*
X32831Y58678D1*
X32872Y58652D1*
X32914Y58627D1*
X32955Y58601D1*
X32998Y58576D1*
X33049Y58551D1*
X33115Y58525D1*
X33192Y58500D1*
X36926Y59084D2*
X36897Y59059D1*
X36864Y59033D1*
X36829Y59008D1*
X36792Y58982D1*
X36754Y58957D1*
X36717Y58932D1*
X36679Y58906D1*
X36642Y58881D1*
X36610Y58855D1*
X36582Y58830D1*
X36553Y58805D1*
X36521Y58779D1*
X36487Y58754D1*
X36451Y58728D1*
X36414Y58703D1*
X36373Y58678D1*
X36330Y58652D1*
X36288Y58627D1*
X36248Y58601D1*
X36206Y58576D1*
X36155Y58551D1*
X36089Y58525D1*
X36012Y58500D1*
X37028Y59084D2*
X37053Y59059D1*
X37079Y59033D1*
X37104Y59008D1*
X37129Y58982D1*
X37155Y58957D1*
X37180Y58932D1*
X37206Y58906D1*
X37230Y58881D1*
X37252Y58855D1*
X37271Y58830D1*
X37290Y58805D1*
X37311Y58779D1*
X37334Y58754D1*
X37359Y58728D1*
X37384Y58703D1*
X37409Y58678D1*
X37434Y58652D1*
X37460Y58627D1*
X37485Y58601D1*
X37510Y58576D1*
X37536Y58551D1*
X37560Y58525D1*
X37582Y58500D1*
X37602Y58474D1*
X37622Y58449D1*
X37646Y58424D1*
X37674Y58398D1*
X37699Y58373D1*
X37719Y58347D1*
X37722Y58322D1*
X37710Y58297D1*
X37692Y58271D1*
X37670Y58246D1*
X37649Y58220D1*
X37630Y58195D1*
X37609Y58170D1*
X37590Y58144D1*
X37575Y58119D1*
X37563Y58093D1*
X37549Y58068D1*
X37534Y58043D1*
X37518Y58017D1*
X37502Y57992D1*
X37485Y57966D1*
X37468Y57941D1*
X37451Y57916D1*
X37434Y57890D1*
X37417Y57865D1*
X37400Y57839D1*
X37383Y57814D1*
X37367Y57789D1*
X37353Y57763D1*
X37339Y57738D1*
X37323Y57712D1*
X37307Y57687D1*
X37290Y57662D1*
X37273Y57636D1*
X37256Y57611D1*
X37240Y57585D1*
X37223Y57560D1*
X37206Y57535D1*
X37190Y57509D1*
X37176Y57484D1*
X37166Y57458D1*
X37160Y57433D1*
X37158Y57408D1*
X37160Y57382D1*
X37166Y57357D1*
X37176Y57331D1*
X37187Y57306D1*
X37200Y57281D1*
X37212Y57255D1*
X37225Y57230D1*
X37237Y57204D1*
X37250Y57179D1*
X37263Y57154D1*
X37275Y57128D1*
X37288Y57103D1*
X37301Y57077D1*
X37313Y57052D1*
X37322Y57027D1*
X37329Y57001D1*
X37335Y56976D1*
X37342Y56950D1*
X37350Y56925D1*
X37358Y56900D1*
X37367Y56874D1*
X37375Y56849D1*
X37383Y56823D1*
X37392Y56798D1*
X37401Y56773D1*
X37410Y56747D1*
X37422Y56722D1*
X37437Y56696D1*
X37455Y56671D1*
X37479Y56646D1*
X37545Y56620D1*
X37639Y56595D1*
X37757Y56569D1*
X37886Y56544D1*
X38020Y56519D1*
X38155Y56493D1*
X38281Y56468D1*
X38380Y56442D1*
X38454Y56417D1*
X38483Y56392D1*
X38493Y56366D1*
X38498Y56341D1*
X38500Y56315D1*
X38501Y56290D1*
Y56265D1*
Y56239D1*
Y56214D1*
Y56188D1*
Y56163D1*
Y56138D1*
Y56112D1*
Y56087D1*
Y56061D1*
Y56036D1*
Y56011D1*
Y55985D1*
Y55960D1*
Y55934D1*
Y55909D1*
Y55884D1*
Y55858D1*
Y55833D1*
Y55807D1*
Y55782D1*
Y55757D1*
Y55731D1*
Y55706D1*
Y55680D1*
Y55655D1*
Y55630D1*
Y55604D1*
Y55579D1*
Y55553D1*
Y55528D1*
Y55503D1*
Y55477D1*
Y55452D1*
Y55426D1*
X38500Y55401D1*
X38497Y55376D1*
X38480Y55350D1*
X38423Y55325D1*
X38337Y55299D1*
X38224Y55274D1*
X38098Y55249D1*
X37968Y55223D1*
Y55198D1*
X37836Y55172D1*
X37710Y55147D1*
X37606Y55122D1*
X37534Y55096D1*
X37484Y55071D1*
X37462Y55045D1*
X37447Y55020D1*
X37436Y54995D1*
X37426Y54969D1*
X37417Y54944D1*
X37409Y54918D1*
X37400Y54893D1*
X37393Y54868D1*
X37387Y54842D1*
X37381Y54817D1*
X37374Y54791D1*
X37366Y54766D1*
X37358Y54741D1*
X37349Y54715D1*
X37341Y54690D1*
X37333Y54664D1*
X37323Y54639D1*
X37312Y54614D1*
X37300Y54588D1*
X37288Y54563D1*
X37276Y54537D1*
X37266Y54512D1*
X37257Y54487D1*
X37247Y54461D1*
X37236Y54436D1*
X37224Y54410D1*
X37212Y54385D1*
X37200Y54360D1*
X37191Y54334D1*
X37186Y54309D1*
X37187Y54283D1*
X37192Y54258D1*
X37203Y54233D1*
X37216Y54207D1*
X37231Y54182D1*
X37244Y54156D1*
X37255Y54131D1*
X37268Y54106D1*
X37284Y54080D1*
X37299Y54055D1*
X37316Y54029D1*
X37333Y54004D1*
X37350Y53979D1*
X37367Y53953D1*
X37387Y53928D1*
X37406Y53902D1*
X37425Y53877D1*
X37442Y53852D1*
X37459Y53826D1*
X37472Y53801D1*
X37484Y53775D1*
X37497Y53750D1*
X37512Y53725D1*
X37528Y53699D1*
X37544Y53674D1*
X37561Y53648D1*
X37578Y53623D1*
X37595Y53598D1*
X37612Y53572D1*
X37630Y53547D1*
X37650Y53521D1*
X37673Y53496D1*
X37695Y53471D1*
X37712Y53445D1*
X37725Y53420D1*
X37724Y53394D1*
X37711Y53369D1*
X37691Y53344D1*
X37666Y53318D1*
X37639Y53293D1*
X37613Y53267D1*
X37587Y53242D1*
X37561Y53217D1*
X37536Y53191D1*
X37510Y53166D1*
X37485Y53140D1*
X37460Y53115D1*
X37435Y53090D1*
X37413Y53064D1*
X37394Y53039D1*
X37375Y53013D1*
X37354Y52988D1*
X37331Y52963D1*
X37306Y52937D1*
X37282Y52912D1*
X37256Y52886D1*
X37231Y52861D1*
X37206Y52836D1*
X37180Y52810D1*
X37155Y52785D1*
X37129Y52759D1*
X37105Y52734D1*
X37081Y52709D1*
X37054Y52683D1*
X37019Y52658D1*
X36977Y52632D1*
X34640Y57001D2*
X34499Y56976D1*
X34373Y56950D1*
X34269Y56925D1*
X34186Y56900D1*
X34120Y56874D1*
X34065Y56849D1*
X34018Y56823D1*
X33977Y56798D1*
X33941Y56773D1*
X33909Y56747D1*
X33881Y56722D1*
X33858Y56696D1*
X33838Y56671D1*
X33819Y56646D1*
X33798Y56620D1*
X33775Y56595D1*
X33751Y56569D1*
X33730Y56544D1*
X33712Y56519D1*
X33696Y56493D1*
X33681Y56468D1*
X33666Y56442D1*
X33649Y56417D1*
X33634Y56392D1*
X33620Y56366D1*
X33610Y56341D1*
X33602Y56315D1*
X33593Y56290D1*
X33579Y56265D1*
X33564Y56239D1*
X33552Y56214D1*
X33541Y56188D1*
X33532Y56163D1*
X33523Y56138D1*
X33514Y56112D1*
X33507Y56087D1*
X33502Y56061D1*
X33499Y56036D1*
X33498Y56011D1*
X33497Y55985D1*
Y55960D1*
Y55934D1*
Y55909D1*
Y55884D1*
Y55858D1*
Y55833D1*
Y55807D1*
Y55782D1*
Y55757D1*
X33498Y55731D1*
X33501Y55706D1*
X33508Y55680D1*
X33514Y55655D1*
X33518Y55630D1*
X33521Y55604D1*
X33523Y55579D1*
X33527Y55553D1*
X33533Y55528D1*
X33541Y55503D1*
X33552Y55477D1*
X33568Y55452D1*
X33585Y55426D1*
X33602Y55401D1*
X33616Y55376D1*
X33630Y55350D1*
X33644Y55325D1*
X33659Y55299D1*
X33675Y55274D1*
X33688Y55249D1*
X33699Y55223D1*
X33713Y55198D1*
X33732Y55172D1*
X33753Y55147D1*
X33774Y55122D1*
X33796Y55096D1*
X33821Y55071D1*
X33848Y55045D1*
X33876Y55020D1*
X33904Y54995D1*
X33933Y54969D1*
X33965Y54944D1*
X34000Y54918D1*
X34033Y54893D1*
X34061Y54868D1*
X34085Y54842D1*
X34108Y54817D1*
X34127Y54791D1*
X34142Y54766D1*
X34140Y54741D1*
X34134Y54715D1*
X34125Y54690D1*
X34116Y54664D1*
X34107Y54639D1*
X34098Y54614D1*
X34086Y54588D1*
X34075Y54563D1*
X34062Y54537D1*
X34051Y54512D1*
X34041Y54487D1*
X34035Y54461D1*
X34028Y54436D1*
X34020Y54410D1*
X34010Y54385D1*
X33999Y54360D1*
X33989Y54334D1*
X33980Y54309D1*
X33971Y54283D1*
X33960Y54258D1*
X33948Y54233D1*
X33938Y54207D1*
X33930Y54182D1*
X33921Y54156D1*
X33912Y54131D1*
X33904Y54106D1*
X33895Y54080D1*
X33887Y54055D1*
X33878Y54029D1*
X33869Y54004D1*
X33858Y53979D1*
X33846Y53953D1*
X33834Y53928D1*
X33822Y53902D1*
X33812Y53877D1*
X33803Y53852D1*
X33794Y53826D1*
X33785Y53801D1*
X33777Y53775D1*
X33767Y53750D1*
X33756Y53725D1*
X33745Y53699D1*
X33735Y53674D1*
X33726Y53648D1*
X33717Y53623D1*
X33706Y53598D1*
X33694Y53572D1*
X33684Y53547D1*
X33676Y53521D1*
X33666Y53496D1*
X33655Y53471D1*
X33644Y53445D1*
X33635Y53420D1*
X33628Y53394D1*
X33622Y53369D1*
X33613Y53344D1*
X33599Y53318D1*
X33581Y53293D1*
X33563Y53267D1*
X33547Y53242D1*
X33534Y53217D1*
X33524Y53191D1*
X33514Y53166D1*
X33502Y53140D1*
X33491Y53115D1*
X33482Y53090D1*
X33476Y53064D1*
X33469Y53039D1*
X33459Y53013D1*
X33446Y52988D1*
X34564Y57001D2*
X34702Y56976D1*
X34825Y56950D1*
X34929Y56925D1*
X35014Y56900D1*
X35082Y56874D1*
X35138Y56849D1*
X35185Y56823D1*
X35227Y56798D1*
X35263Y56773D1*
X35295Y56747D1*
X35323Y56722D1*
X35346Y56696D1*
X35366Y56671D1*
X35385Y56646D1*
X35406Y56620D1*
X35429Y56595D1*
X35453Y56569D1*
X35474Y56544D1*
X35493Y56519D1*
X35511Y56493D1*
X35529Y56468D1*
X35545Y56442D1*
X35560Y56417D1*
X35573Y56392D1*
X35586Y56366D1*
X35599Y56341D1*
X35611Y56315D1*
X35620Y56290D1*
X35626Y56265D1*
X35631Y56239D1*
X35638Y56214D1*
X35651Y56188D1*
X35665Y56163D1*
X35678Y56138D1*
X35688Y56112D1*
X35697Y56087D1*
X35702Y56061D1*
X35705Y56036D1*
X35706Y56011D1*
X35707Y55985D1*
Y55960D1*
Y55934D1*
Y55909D1*
Y55884D1*
Y55858D1*
Y55833D1*
Y55807D1*
Y55782D1*
Y55757D1*
Y55731D1*
X35706Y55706D1*
X35703Y55680D1*
X35697Y55655D1*
X35690Y55630D1*
X35686Y55604D1*
X35681Y55579D1*
X35674Y55553D1*
X35661Y55528D1*
X35647Y55503D1*
X35635Y55477D1*
X35623Y55452D1*
X35611Y55426D1*
X35599Y55401D1*
X35586Y55376D1*
X35574Y55350D1*
X35560Y55325D1*
X35545Y55299D1*
X35529Y55274D1*
X35516Y55249D1*
X35505Y55223D1*
X35491Y55198D1*
X35473Y55172D1*
X35455Y55147D1*
X35437Y55122D1*
X35418Y55096D1*
X35394Y55071D1*
X35365Y55045D1*
X35334Y55020D1*
X35303Y54995D1*
X35273Y54969D1*
X35239Y54944D1*
X35205Y54918D1*
X35172Y54893D1*
X35144Y54868D1*
X35119Y54842D1*
X35097Y54817D1*
X35077Y54791D1*
X35063Y54766D1*
X35064Y54741D1*
X35070Y54715D1*
X35080Y54690D1*
X35092Y54664D1*
X35103Y54639D1*
X35113Y54614D1*
X35122Y54588D1*
X35132Y54563D1*
X35143Y54537D1*
X35154Y54512D1*
X35163Y54487D1*
X35170Y54461D1*
X35176Y54436D1*
X35184Y54410D1*
X35194Y54385D1*
X35205Y54360D1*
X35215Y54334D1*
X35224Y54309D1*
X35234Y54283D1*
X35245Y54258D1*
X35256Y54233D1*
X35266Y54207D1*
X35275Y54182D1*
X35284Y54156D1*
X35292Y54131D1*
X35300Y54106D1*
X35310Y54080D1*
X35321Y54055D1*
X35332Y54029D1*
X35342Y54004D1*
X35351Y53979D1*
X35361Y53953D1*
X35372Y53928D1*
X35383Y53902D1*
X35393Y53877D1*
X35402Y53852D1*
X35411Y53826D1*
X35419Y53801D1*
X35427Y53775D1*
X35437Y53750D1*
X35448Y53725D1*
X35459Y53699D1*
X35469Y53674D1*
X35478Y53648D1*
X35488Y53623D1*
X35499Y53598D1*
X35510Y53572D1*
X35520Y53547D1*
X35529Y53521D1*
X35538Y53496D1*
X35549Y53471D1*
X35561Y53445D1*
X35571Y53420D1*
X35579Y53394D1*
X35588Y53369D1*
X35597Y53344D1*
X35605Y53318D1*
X35616Y53293D1*
X35630Y53267D1*
X35647Y53242D1*
X35664Y53217D1*
X35677Y53191D1*
X35689Y53166D1*
X35701Y53140D1*
X35713Y53115D1*
X35722Y53090D1*
X35729Y53064D1*
X35735Y53039D1*
X35745Y53013D1*
X35758Y52988D1*
X33091Y53217D2*
X33041Y53191D1*
X32993Y53166D1*
X32949Y53140D1*
X32906Y53115D1*
X32864Y53090D1*
X32828Y53064D1*
X32798Y53039D1*
X32769Y53013D1*
X32736Y52988D1*
X32701Y52963D1*
X32664Y52937D1*
X32627Y52912D1*
X32589Y52886D1*
X32551Y52861D1*
X32513Y52836D1*
X32476Y52810D1*
X32440Y52785D1*
X32406Y52759D1*
X32372Y52734D1*
X32341Y52709D1*
X32313Y52683D1*
X32284Y52658D1*
X32253Y52632D1*
X33040Y53217D2*
X33090Y53191D1*
X33137Y53166D1*
X33182Y53140D1*
X33226Y53115D1*
X33271Y53090D1*
X33313Y53064D1*
X33350Y53039D1*
X33385Y53013D1*
X33421Y52988D1*
X36164Y53217D2*
X36114Y53191D1*
X36067Y53166D1*
X36022Y53140D1*
X35978Y53115D1*
X35933Y53090D1*
X35892Y53064D1*
X35854Y53039D1*
X35819Y53013D1*
X35783Y52988D1*
X36113Y53217D2*
X36163Y53191D1*
X36212Y53166D1*
X36259Y53140D1*
X36305Y53115D1*
X36346Y53090D1*
X36380Y53064D1*
X36408Y53039D1*
X36437Y53013D1*
X36468Y52988D1*
X36503Y52963D1*
X36540Y52937D1*
X36577Y52912D1*
X36615Y52886D1*
X36653Y52861D1*
X36691Y52836D1*
X36729Y52810D1*
X36767Y52785D1*
X36804Y52759D1*
X36838Y52734D1*
X36867Y52709D1*
X36893Y52683D1*
X36921Y52658D1*
X36952Y52632D1*
X23675Y70175D2*
Y70149D1*
Y70124D1*
Y70098D1*
Y70073D1*
Y70048D1*
Y70022D1*
Y69997D1*
Y69971D1*
Y69946D1*
Y69921D1*
Y69895D1*
Y69870D1*
Y69844D1*
Y69819D1*
Y69794D1*
Y69768D1*
Y69743D1*
Y69717D1*
Y69692D1*
Y69667D1*
Y69641D1*
Y69616D1*
Y69590D1*
Y69565D1*
Y69540D1*
Y69514D1*
Y69489D1*
Y69463D1*
Y69438D1*
Y69413D1*
Y69387D1*
Y69362D1*
Y69336D1*
Y69311D1*
Y69286D1*
Y69260D1*
Y69235D1*
Y69209D1*
Y69184D1*
Y69159D1*
Y69133D1*
Y69108D1*
Y69082D1*
Y69057D1*
Y69032D1*
Y69006D1*
Y68981D1*
Y68955D1*
Y68930D1*
Y68905D1*
Y68879D1*
Y68854D1*
Y68828D1*
Y68803D1*
Y68778D1*
Y68752D1*
Y68727D1*
Y68701D1*
Y68676D1*
Y68651D1*
Y68625D1*
Y68600D1*
Y68574D1*
Y68549D1*
Y68524D1*
Y68498D1*
Y68473D1*
Y68447D1*
Y68422D1*
Y68397D1*
Y68371D1*
Y68346D1*
Y68320D1*
Y68295D1*
Y68270D1*
Y68244D1*
Y68219D1*
Y68193D1*
Y68168D1*
Y68143D1*
Y68117D1*
Y68092D1*
Y68066D1*
Y68041D1*
Y68016D1*
Y67990D1*
Y67965D1*
Y67939D1*
Y67914D1*
Y67889D1*
Y67863D1*
Y67838D1*
Y67812D1*
Y67787D1*
Y67762D1*
Y67736D1*
Y67711D1*
Y67685D1*
Y67660D1*
Y67635D1*
Y67609D1*
Y67584D1*
Y67558D1*
Y67533D1*
Y67508D1*
Y67482D1*
Y67457D1*
Y67431D1*
Y67406D1*
Y67381D1*
Y67355D1*
Y67330D1*
Y67304D1*
Y67279D1*
Y67254D1*
Y67228D1*
Y67203D1*
Y67177D1*
Y67152D1*
Y67127D1*
Y67101D1*
Y67076D1*
Y67050D1*
Y67025D1*
Y67000D1*
Y66974D1*
Y66949D1*
Y66923D1*
Y66898D1*
Y66873D1*
Y66847D1*
Y66822D1*
Y66796D1*
Y66771D1*
Y66746D1*
Y66720D1*
Y66695D1*
Y66669D1*
Y66644D1*
Y66619D1*
Y66593D1*
Y66568D1*
Y66542D1*
Y66517D1*
Y66492D1*
Y66466D1*
Y66441D1*
Y66415D1*
Y66390D1*
Y66365D1*
Y66339D1*
Y66314D1*
Y66288D1*
Y66263D1*
Y66238D1*
Y66212D1*
Y66187D1*
Y66161D1*
Y66136D1*
Y66111D1*
Y66085D1*
Y66060D1*
Y66034D1*
Y66009D1*
Y65984D1*
Y65958D1*
Y65933D1*
Y65907D1*
Y65882D1*
Y65857D1*
Y65831D1*
Y65806D1*
Y65780D1*
Y65755D1*
Y65730D1*
Y65704D1*
Y65679D1*
Y65653D1*
Y65628D1*
Y65603D1*
Y65577D1*
Y65552D1*
Y65526D1*
Y65501D1*
Y65476D1*
Y65450D1*
Y65425D1*
Y65399D1*
Y65374D1*
Y65349D1*
Y65323D1*
Y65298D1*
Y65272D1*
Y65247D1*
Y65222D1*
Y65196D1*
Y65171D1*
Y65145D1*
Y65120D1*
Y65095D1*
Y65069D1*
Y65044D1*
Y65018D1*
Y64993D1*
Y64968D1*
Y64942D1*
Y64917D1*
Y64891D1*
Y64866D1*
Y64841D1*
Y64815D1*
Y64790D1*
Y64764D1*
Y64739D1*
Y64714D1*
Y64688D1*
Y64663D1*
Y64637D1*
Y64612D1*
Y64587D1*
Y64561D1*
Y64536D1*
Y64510D1*
Y64485D1*
Y64460D1*
Y64434D1*
Y64409D1*
Y64383D1*
Y64358D1*
Y64333D1*
Y64307D1*
Y64282D1*
Y64256D1*
Y64231D1*
Y64206D1*
Y64180D1*
Y64155D1*
Y64129D1*
Y64104D1*
Y64079D1*
Y64053D1*
Y64028D1*
Y64002D1*
Y63977D1*
Y63952D1*
Y63926D1*
Y63901D1*
Y63875D1*
Y63850D1*
Y63825D1*
Y63799D1*
Y63774D1*
Y63748D1*
Y63723D1*
Y63698D1*
Y63672D1*
Y63647D1*
Y63621D1*
Y63596D1*
Y63571D1*
Y63545D1*
Y63520D1*
Y63494D1*
Y63469D1*
Y63444D1*
Y63418D1*
Y63393D1*
Y63367D1*
Y63342D1*
Y63317D1*
Y63291D1*
Y63266D1*
Y63240D1*
Y63215D1*
Y63190D1*
Y63164D1*
Y63139D1*
Y63113D1*
Y63088D1*
Y63063D1*
Y63037D1*
Y63012D1*
Y62986D1*
Y62961D1*
Y62936D1*
Y62910D1*
Y62885D1*
Y62859D1*
Y62834D1*
Y62809D1*
Y62783D1*
Y62758D1*
Y62732D1*
Y62707D1*
Y62682D1*
Y62656D1*
Y62631D1*
Y62605D1*
Y62580D1*
Y62555D1*
Y62529D1*
Y62504D1*
Y62478D1*
Y62453D1*
Y62428D1*
Y62402D1*
Y62377D1*
Y62351D1*
Y62326D1*
Y62301D1*
Y62275D1*
Y62250D1*
Y62224D1*
Y62199D1*
Y62174D1*
Y62148D1*
Y62123D1*
Y62097D1*
Y62072D1*
Y62047D1*
Y62021D1*
Y61996D1*
Y61970D1*
Y61945D1*
Y61920D1*
Y61894D1*
Y61869D1*
Y61843D1*
Y61818D1*
Y61793D1*
Y61767D1*
Y61742D1*
Y61716D1*
Y61691D1*
Y61666D1*
Y61640D1*
Y61615D1*
Y61589D1*
Y61564D1*
Y61539D1*
X32311Y70175D2*
Y70149D1*
Y70124D1*
Y70098D1*
Y70073D1*
Y70048D1*
Y70022D1*
Y69997D1*
Y69971D1*
Y69946D1*
Y69921D1*
Y69895D1*
Y69870D1*
Y69844D1*
Y69819D1*
Y69794D1*
Y69768D1*
Y69743D1*
Y69717D1*
Y69692D1*
Y69667D1*
Y69641D1*
Y69616D1*
Y69590D1*
Y69565D1*
Y69540D1*
Y69514D1*
Y69489D1*
Y69463D1*
Y69438D1*
Y69413D1*
Y69387D1*
Y69362D1*
Y69336D1*
Y69311D1*
Y69286D1*
Y69260D1*
Y69235D1*
Y69209D1*
Y69184D1*
Y69159D1*
Y69133D1*
Y69108D1*
Y69082D1*
Y69057D1*
Y69032D1*
Y69006D1*
Y68981D1*
Y68955D1*
Y68930D1*
Y68905D1*
Y68879D1*
Y68854D1*
Y68828D1*
Y68803D1*
Y68778D1*
Y68752D1*
Y68727D1*
Y68701D1*
Y68676D1*
Y68651D1*
Y68625D1*
Y68600D1*
Y68574D1*
Y68549D1*
Y68524D1*
Y68498D1*
Y68473D1*
Y68447D1*
Y68422D1*
Y68397D1*
Y68371D1*
Y68346D1*
Y68320D1*
Y68295D1*
Y68270D1*
Y68244D1*
Y68219D1*
Y68193D1*
Y68168D1*
Y68143D1*
Y68117D1*
Y68092D1*
Y68066D1*
Y68041D1*
Y68016D1*
Y67990D1*
Y67965D1*
Y67939D1*
Y67914D1*
Y67889D1*
Y67863D1*
Y67838D1*
Y67812D1*
Y67787D1*
Y67762D1*
Y67736D1*
Y67711D1*
Y67685D1*
Y67660D1*
Y67635D1*
Y67609D1*
Y67584D1*
Y67558D1*
Y67533D1*
Y67508D1*
Y67482D1*
Y67457D1*
Y67431D1*
Y67406D1*
Y67381D1*
Y67355D1*
Y67330D1*
Y67304D1*
Y67279D1*
Y67254D1*
Y67228D1*
Y67203D1*
Y67177D1*
Y67152D1*
Y67127D1*
Y67101D1*
Y67076D1*
Y67050D1*
Y67025D1*
Y67000D1*
Y66974D1*
Y66949D1*
Y66923D1*
Y66898D1*
Y66873D1*
Y66847D1*
Y66822D1*
Y66796D1*
Y66771D1*
Y66746D1*
Y66720D1*
Y66695D1*
Y66669D1*
Y66644D1*
Y66619D1*
Y66593D1*
Y66568D1*
Y66542D1*
Y66517D1*
Y66492D1*
Y66466D1*
Y66441D1*
Y66415D1*
Y66390D1*
Y66365D1*
Y66339D1*
Y66314D1*
Y66288D1*
Y66263D1*
Y66238D1*
Y66212D1*
Y66187D1*
Y66161D1*
Y66136D1*
Y66111D1*
Y66085D1*
Y66060D1*
Y66034D1*
Y66009D1*
Y65984D1*
Y65958D1*
Y65933D1*
Y65907D1*
Y65882D1*
Y65857D1*
Y65831D1*
Y65806D1*
Y65780D1*
Y65755D1*
Y65730D1*
Y65704D1*
Y65679D1*
Y65653D1*
Y65628D1*
Y65603D1*
Y65577D1*
Y65552D1*
Y65526D1*
Y65501D1*
Y65476D1*
Y65450D1*
Y65425D1*
Y65399D1*
Y65374D1*
Y65349D1*
Y65323D1*
Y65298D1*
Y65272D1*
Y65247D1*
Y65222D1*
Y65196D1*
Y65171D1*
Y65145D1*
Y65120D1*
Y65095D1*
Y65069D1*
Y65044D1*
Y65018D1*
Y64993D1*
Y64968D1*
Y64942D1*
Y64917D1*
Y64891D1*
Y64866D1*
Y64841D1*
Y64815D1*
Y64790D1*
Y64764D1*
Y64739D1*
Y64714D1*
Y64688D1*
Y64663D1*
Y64637D1*
Y64612D1*
Y64587D1*
Y64561D1*
Y64536D1*
Y64510D1*
Y64485D1*
Y64460D1*
Y64434D1*
Y64409D1*
Y64383D1*
Y64358D1*
Y64333D1*
Y64307D1*
Y64282D1*
Y64256D1*
Y64231D1*
Y64206D1*
Y64180D1*
Y64155D1*
Y64129D1*
Y64104D1*
Y64079D1*
Y64053D1*
Y64028D1*
Y64002D1*
Y63977D1*
Y63952D1*
Y63926D1*
Y63901D1*
Y63875D1*
Y63850D1*
Y63825D1*
Y63799D1*
Y63774D1*
Y63748D1*
Y63723D1*
Y63698D1*
Y63672D1*
Y63647D1*
Y63621D1*
Y63596D1*
Y63571D1*
Y63545D1*
Y63520D1*
Y63494D1*
Y63469D1*
Y63444D1*
Y63418D1*
Y63393D1*
Y63367D1*
Y63342D1*
Y63317D1*
Y63291D1*
Y63266D1*
Y63240D1*
Y63215D1*
Y63190D1*
Y63164D1*
Y63139D1*
Y63113D1*
Y63088D1*
Y63063D1*
Y63037D1*
Y63012D1*
Y62986D1*
Y62961D1*
Y62936D1*
Y62910D1*
Y62885D1*
Y62859D1*
Y62834D1*
Y62809D1*
Y62783D1*
Y62758D1*
Y62732D1*
Y62707D1*
Y62682D1*
Y62656D1*
Y62631D1*
Y62605D1*
Y62580D1*
Y62555D1*
Y62529D1*
Y62504D1*
Y62478D1*
Y62453D1*
Y62428D1*
Y62402D1*
Y62377D1*
Y62351D1*
Y62326D1*
Y62301D1*
Y62275D1*
Y62250D1*
Y62224D1*
Y62199D1*
Y62174D1*
Y62148D1*
Y62123D1*
Y62097D1*
Y62072D1*
Y62047D1*
Y62021D1*
Y61996D1*
Y61970D1*
Y61945D1*
Y61920D1*
Y61894D1*
Y61869D1*
Y61843D1*
Y61818D1*
Y61793D1*
Y61767D1*
Y61742D1*
Y61716D1*
Y61691D1*
Y61666D1*
Y61640D1*
Y61615D1*
Y61589D1*
Y61564D1*
Y61539D1*
X23980Y69870D2*
Y69844D1*
Y69819D1*
Y69794D1*
Y69768D1*
Y69743D1*
Y69717D1*
Y69692D1*
Y69667D1*
Y69641D1*
Y69616D1*
Y69590D1*
Y69565D1*
Y69540D1*
Y69514D1*
Y69489D1*
Y69463D1*
Y69438D1*
Y69413D1*
Y69387D1*
Y69362D1*
Y69336D1*
Y69311D1*
Y69286D1*
Y69260D1*
Y69235D1*
Y69209D1*
Y69184D1*
Y69159D1*
Y69133D1*
Y69108D1*
Y69082D1*
Y69057D1*
Y69032D1*
Y69006D1*
Y68981D1*
Y68955D1*
Y68930D1*
Y68905D1*
Y68879D1*
Y68854D1*
Y68828D1*
Y68803D1*
Y68778D1*
Y68752D1*
Y68727D1*
Y68701D1*
Y68676D1*
Y68651D1*
Y68625D1*
Y68600D1*
Y68574D1*
Y68549D1*
Y68524D1*
Y68498D1*
Y68473D1*
Y68447D1*
Y68422D1*
Y68397D1*
Y68371D1*
Y68346D1*
Y68320D1*
Y68295D1*
Y68270D1*
Y68244D1*
Y68219D1*
Y68193D1*
Y68168D1*
Y68143D1*
Y68117D1*
Y68092D1*
Y68066D1*
Y68041D1*
Y68016D1*
Y67990D1*
Y67965D1*
Y67939D1*
Y67914D1*
Y67889D1*
Y67863D1*
Y67838D1*
Y67812D1*
Y67787D1*
Y67762D1*
Y67736D1*
Y67711D1*
Y67685D1*
Y67660D1*
Y67635D1*
Y67609D1*
Y67584D1*
Y67558D1*
Y67533D1*
Y67508D1*
Y67482D1*
Y67457D1*
Y67431D1*
Y67406D1*
Y67381D1*
X26469Y69870D2*
Y69844D1*
Y69819D1*
Y69794D1*
Y69768D1*
Y69743D1*
Y69717D1*
Y69692D1*
Y69667D1*
Y69641D1*
Y69616D1*
Y69590D1*
Y69565D1*
Y69540D1*
Y69514D1*
Y69489D1*
Y69463D1*
Y69438D1*
Y69413D1*
Y69387D1*
Y69362D1*
Y69336D1*
Y69311D1*
Y69286D1*
Y69260D1*
Y69235D1*
Y69209D1*
Y69184D1*
Y69159D1*
Y69133D1*
Y69108D1*
Y69082D1*
Y69057D1*
Y69032D1*
Y69006D1*
Y68981D1*
Y68955D1*
Y68930D1*
Y68905D1*
Y68879D1*
Y68854D1*
Y68828D1*
Y68803D1*
Y68778D1*
Y68752D1*
Y68727D1*
Y68701D1*
Y68676D1*
Y68651D1*
Y68625D1*
Y68600D1*
Y68574D1*
Y68549D1*
Y68524D1*
Y68498D1*
Y68473D1*
Y68447D1*
Y68422D1*
Y68397D1*
Y68371D1*
Y68346D1*
Y68320D1*
Y68295D1*
Y68270D1*
Y68244D1*
Y68219D1*
Y68193D1*
Y68168D1*
Y68143D1*
Y68117D1*
Y68092D1*
Y68066D1*
Y68041D1*
Y68016D1*
Y67990D1*
Y67965D1*
Y67939D1*
Y67914D1*
Y67889D1*
Y67863D1*
Y67838D1*
Y67812D1*
Y67787D1*
Y67762D1*
Y67736D1*
Y67711D1*
Y67685D1*
Y67660D1*
Y67635D1*
Y67609D1*
Y67584D1*
Y67558D1*
Y67533D1*
Y67508D1*
Y67482D1*
Y67457D1*
Y67431D1*
Y67406D1*
Y67381D1*
X26749Y69870D2*
Y69844D1*
Y69819D1*
Y69794D1*
Y69768D1*
Y69743D1*
Y69717D1*
Y69692D1*
Y69667D1*
Y69641D1*
Y69616D1*
Y69590D1*
Y69565D1*
Y69540D1*
Y69514D1*
Y69489D1*
Y69463D1*
Y69438D1*
Y69413D1*
Y69387D1*
Y69362D1*
Y69336D1*
Y69311D1*
Y69286D1*
Y69260D1*
Y69235D1*
Y69209D1*
Y69184D1*
Y69159D1*
Y69133D1*
Y69108D1*
Y69082D1*
Y69057D1*
Y69032D1*
Y69006D1*
Y68981D1*
Y68955D1*
Y68930D1*
Y68905D1*
Y68879D1*
Y68854D1*
Y68828D1*
Y68803D1*
Y68778D1*
Y68752D1*
Y68727D1*
Y68701D1*
Y68676D1*
Y68651D1*
Y68625D1*
Y68600D1*
Y68574D1*
Y68549D1*
Y68524D1*
Y68498D1*
Y68473D1*
Y68447D1*
Y68422D1*
Y68397D1*
Y68371D1*
Y68346D1*
Y68320D1*
Y68295D1*
Y68270D1*
Y68244D1*
Y68219D1*
Y68193D1*
Y68168D1*
Y68143D1*
Y68117D1*
Y68092D1*
Y68066D1*
Y68041D1*
Y68016D1*
Y67990D1*
Y67965D1*
Y67939D1*
Y67914D1*
Y67889D1*
Y67863D1*
Y67838D1*
Y67812D1*
Y67787D1*
X26750Y67762D1*
X26754Y67736D1*
X26762Y67711D1*
X26774Y67685D1*
X29238Y69870D2*
Y69844D1*
Y69819D1*
Y69794D1*
Y69768D1*
Y69743D1*
Y69717D1*
Y69692D1*
Y69667D1*
Y69641D1*
Y69616D1*
Y69590D1*
Y69565D1*
Y69540D1*
Y69514D1*
Y69489D1*
Y69463D1*
Y69438D1*
Y69413D1*
Y69387D1*
Y69362D1*
Y69336D1*
Y69311D1*
Y69286D1*
Y69260D1*
Y69235D1*
Y69209D1*
Y69184D1*
Y69159D1*
Y69133D1*
Y69108D1*
Y69082D1*
Y69057D1*
Y69032D1*
Y69006D1*
Y68981D1*
Y68955D1*
Y68930D1*
Y68905D1*
Y68879D1*
Y68854D1*
Y68828D1*
Y68803D1*
Y68778D1*
Y68752D1*
Y68727D1*
Y68701D1*
Y68676D1*
Y68651D1*
Y68625D1*
Y68600D1*
Y68574D1*
Y68549D1*
Y68524D1*
Y68498D1*
Y68473D1*
Y68447D1*
Y68422D1*
Y68397D1*
Y68371D1*
Y68346D1*
Y68320D1*
Y68295D1*
Y68270D1*
Y68244D1*
Y68219D1*
Y68193D1*
Y68168D1*
Y68143D1*
Y68117D1*
Y68092D1*
Y68066D1*
Y68041D1*
Y68016D1*
Y67990D1*
Y67965D1*
Y67939D1*
Y67914D1*
Y67889D1*
Y67863D1*
Y67838D1*
Y67812D1*
Y67787D1*
Y67762D1*
Y67736D1*
Y67711D1*
Y67685D1*
Y67660D1*
Y67635D1*
Y67609D1*
Y67584D1*
Y67558D1*
Y67533D1*
Y67508D1*
Y67482D1*
Y67457D1*
Y67431D1*
Y67406D1*
Y67381D1*
X29543Y69870D2*
Y69844D1*
Y69819D1*
Y69794D1*
Y69768D1*
Y69743D1*
Y69717D1*
Y69692D1*
Y69667D1*
Y69641D1*
Y69616D1*
Y69590D1*
Y69565D1*
Y69540D1*
Y69514D1*
Y69489D1*
Y69463D1*
Y69438D1*
Y69413D1*
Y69387D1*
Y69362D1*
Y69336D1*
Y69311D1*
Y69286D1*
Y69260D1*
Y69235D1*
Y69209D1*
Y69184D1*
Y69159D1*
Y69133D1*
Y69108D1*
Y69082D1*
Y69057D1*
Y69032D1*
Y69006D1*
Y68981D1*
Y68955D1*
Y68930D1*
Y68905D1*
Y68879D1*
Y68854D1*
Y68828D1*
Y68803D1*
Y68778D1*
Y68752D1*
Y68727D1*
Y68701D1*
Y68676D1*
Y68651D1*
Y68625D1*
Y68600D1*
Y68574D1*
Y68549D1*
Y68524D1*
Y68498D1*
Y68473D1*
Y68447D1*
Y68422D1*
Y68397D1*
Y68371D1*
Y68346D1*
Y68320D1*
Y68295D1*
Y68270D1*
Y68244D1*
Y68219D1*
Y68193D1*
Y68168D1*
Y68143D1*
Y68117D1*
Y68092D1*
Y68066D1*
Y68041D1*
Y68016D1*
Y67990D1*
Y67965D1*
Y67939D1*
Y67914D1*
Y67889D1*
Y67863D1*
Y67838D1*
Y67812D1*
Y67787D1*
Y67762D1*
Y67736D1*
Y67711D1*
Y67685D1*
Y67660D1*
Y67635D1*
Y67609D1*
Y67584D1*
Y67558D1*
Y67533D1*
Y67508D1*
Y67482D1*
Y67457D1*
Y67431D1*
Y67406D1*
Y67381D1*
X32032Y69870D2*
Y69844D1*
Y69819D1*
Y69794D1*
Y69768D1*
Y69743D1*
Y69717D1*
Y69692D1*
Y69667D1*
Y69641D1*
Y69616D1*
Y69590D1*
Y69565D1*
Y69540D1*
Y69514D1*
Y69489D1*
Y69463D1*
Y69438D1*
Y69413D1*
Y69387D1*
Y69362D1*
Y69336D1*
Y69311D1*
Y69286D1*
Y69260D1*
Y69235D1*
Y69209D1*
Y69184D1*
Y69159D1*
Y69133D1*
Y69108D1*
Y69082D1*
Y69057D1*
Y69032D1*
Y69006D1*
Y68981D1*
Y68955D1*
Y68930D1*
Y68905D1*
Y68879D1*
Y68854D1*
Y68828D1*
Y68803D1*
Y68778D1*
Y68752D1*
Y68727D1*
Y68701D1*
Y68676D1*
Y68651D1*
Y68625D1*
Y68600D1*
Y68574D1*
Y68549D1*
Y68524D1*
Y68498D1*
Y68473D1*
Y68447D1*
Y68422D1*
Y68397D1*
Y68371D1*
Y68346D1*
Y68320D1*
Y68295D1*
Y68270D1*
Y68244D1*
Y68219D1*
Y68193D1*
Y68168D1*
Y68143D1*
Y68117D1*
Y68092D1*
Y68066D1*
Y68041D1*
Y68016D1*
Y67990D1*
Y67965D1*
Y67939D1*
Y67914D1*
Y67889D1*
Y67863D1*
Y67838D1*
Y67812D1*
Y67787D1*
Y67762D1*
Y67736D1*
Y67711D1*
Y67685D1*
Y67660D1*
Y67635D1*
Y67609D1*
Y67584D1*
Y67558D1*
Y67533D1*
Y67508D1*
Y67482D1*
Y67457D1*
Y67431D1*
Y67406D1*
Y67381D1*
X27968Y69540D2*
X27832Y69514D1*
X27726Y69489D1*
X27645Y69463D1*
X27581Y69438D1*
X27532Y69413D1*
X27491Y69387D1*
X27453Y69362D1*
X27416Y69336D1*
X27382Y69311D1*
X27354Y69286D1*
X27329Y69260D1*
X27306Y69235D1*
X27285Y69209D1*
X27264Y69184D1*
X27243Y69159D1*
X27225Y69133D1*
X27211Y69108D1*
X27199Y69082D1*
X27186Y69057D1*
X27171Y69032D1*
X27155Y69006D1*
X27143Y68981D1*
X27135Y68955D1*
X27128Y68930D1*
X27121Y68905D1*
X27113Y68879D1*
X27109Y68854D1*
X27105Y68828D1*
X27101Y68803D1*
X27094Y68778D1*
X27088Y68752D1*
X27083Y68727D1*
X27081Y68701D1*
X27080Y68676D1*
X27079Y68651D1*
Y68625D1*
Y68600D1*
X27080Y68574D1*
X27083Y68549D1*
X27089Y68524D1*
X27096Y68498D1*
X27100Y68473D1*
X27103Y68447D1*
X27105Y68422D1*
X27108Y68397D1*
X27115Y68371D1*
X27122Y68346D1*
X27130Y68320D1*
X27139Y68295D1*
X27151Y68270D1*
X27165Y68244D1*
X27180Y68219D1*
X27192Y68193D1*
X27201Y68168D1*
Y68143D1*
X27190Y68117D1*
X27173Y68092D1*
X27152Y68066D1*
X27129Y68041D1*
X27104Y68016D1*
X27080Y67990D1*
X27057Y67965D1*
X27034Y67939D1*
X27009Y67914D1*
X26982Y67889D1*
X26954Y67863D1*
X26928Y67838D1*
X26902Y67812D1*
X26876Y67787D1*
X26849Y67762D1*
X26820Y67736D1*
X26786Y67711D1*
X26749Y67685D1*
X28019Y69540D2*
X28157Y69514D1*
X28267Y69489D1*
X28349Y69463D1*
X28414Y69438D1*
X28468Y69413D1*
X28513Y69387D1*
X28552Y69362D1*
X28584Y69336D1*
X28612Y69311D1*
X28638Y69286D1*
X28662Y69260D1*
X28688Y69235D1*
X28712Y69209D1*
X28734Y69184D1*
X28754Y69159D1*
X28772Y69133D1*
X28789Y69108D1*
X28805Y69082D1*
X28819Y69057D1*
X28830Y69032D1*
X28840Y69006D1*
X28852Y68981D1*
X28863Y68955D1*
X28873Y68930D1*
X28882Y68905D1*
X28891Y68879D1*
X28898Y68854D1*
X28903Y68828D1*
X28906Y68803D1*
X28907Y68778D1*
X28908Y68752D1*
Y68727D1*
Y68701D1*
Y68676D1*
Y68651D1*
Y68625D1*
Y68600D1*
Y68574D1*
Y68549D1*
Y68524D1*
Y68498D1*
X28907Y68473D1*
X28904Y68447D1*
X28897Y68422D1*
X28890Y68397D1*
X28882Y68371D1*
X28873Y68346D1*
X28862Y68320D1*
X28851Y68295D1*
X28841Y68270D1*
X28832Y68244D1*
X28822Y68219D1*
X28810Y68193D1*
X28796Y68168D1*
X28780Y68143D1*
X28763Y68117D1*
X28743Y68092D1*
X28719Y68066D1*
X28695Y68041D1*
X28671Y68016D1*
X28644Y67990D1*
X28616Y67965D1*
X28587Y67939D1*
X28553Y67914D1*
X28515Y67889D1*
X28473Y67863D1*
X28427Y67838D1*
X28371Y67812D1*
X28307Y67787D1*
X28239Y67762D1*
X28171Y67736D1*
X28070Y69057D2*
X27974Y69032D1*
X27889Y69006D1*
X27821Y68981D1*
X27771Y68955D1*
X27732Y68930D1*
X27698Y68905D1*
X27668Y68879D1*
X27645Y68854D1*
X27628Y68828D1*
X27615Y68803D1*
X27604Y68778D1*
X27592Y68752D1*
X27581Y68727D1*
X27572Y68701D1*
X27567Y68676D1*
X27564Y68651D1*
X27563Y68625D1*
Y68600D1*
X27567Y68574D1*
X27576Y68549D1*
X27589Y68524D1*
X27601Y68498D1*
X27611Y68473D1*
X27622Y68447D1*
X27639Y68422D1*
X27663Y68397D1*
X27692Y68371D1*
X27723Y68346D1*
X27759Y68320D1*
X27811Y68295D1*
X27895Y68270D1*
X28012Y68244D1*
X28146Y68219D1*
X27917Y69057D2*
X28013Y69032D1*
X28099Y69006D1*
X28170Y68981D1*
X28225Y68955D1*
X28268Y68930D1*
X28300Y68905D1*
X28325Y68879D1*
X28346Y68854D1*
X28364Y68828D1*
X28378Y68803D1*
X28389Y68778D1*
X28399Y68752D1*
X28408Y68727D1*
X28416Y68701D1*
X28421Y68676D1*
X28423Y68651D1*
X28424Y68625D1*
Y68600D1*
X28421Y68574D1*
X28415Y68549D1*
X28407Y68524D1*
X28399Y68498D1*
X28387Y68473D1*
X28372Y68447D1*
X28356Y68422D1*
X28335Y68397D1*
X28308Y68371D1*
X28275Y68346D1*
X28235Y68320D1*
X28179Y68295D1*
X28093Y68270D1*
X27975Y68244D1*
X27841Y68219D1*
X27460Y67863D2*
X27454Y67838D1*
X27436Y67812D1*
X27414Y67787D1*
X27391Y67762D1*
X27366Y67736D1*
X27338Y67711D1*
X27310Y67685D1*
X27283Y67660D1*
X27257Y67635D1*
X27232Y67609D1*
X27209Y67584D1*
X27187Y67558D1*
X27163Y67533D1*
X27138Y67508D1*
X27114Y67482D1*
X27092Y67457D1*
X27074Y67431D1*
X27062Y67406D1*
X27054Y67381D1*
X27511Y67863D2*
X27564Y67838D1*
X27621Y67812D1*
X27684Y67787D1*
X27750Y67762D1*
X27816Y67736D1*
X23980Y67101D2*
Y67076D1*
Y67050D1*
Y67025D1*
Y67000D1*
Y66974D1*
Y66949D1*
Y66923D1*
Y66898D1*
Y66873D1*
Y66847D1*
Y66822D1*
Y66796D1*
Y66771D1*
Y66746D1*
Y66720D1*
Y66695D1*
Y66669D1*
Y66644D1*
Y66619D1*
Y66593D1*
Y66568D1*
Y66542D1*
Y66517D1*
Y66492D1*
Y66466D1*
Y66441D1*
Y66415D1*
Y66390D1*
Y66365D1*
Y66339D1*
Y66314D1*
Y66288D1*
Y66263D1*
Y66238D1*
Y66212D1*
Y66187D1*
Y66161D1*
Y66136D1*
Y66111D1*
Y66085D1*
Y66060D1*
Y66034D1*
Y66009D1*
Y65984D1*
Y65958D1*
Y65933D1*
Y65907D1*
Y65882D1*
Y65857D1*
Y65831D1*
Y65806D1*
Y65780D1*
Y65755D1*
Y65730D1*
Y65704D1*
Y65679D1*
Y65653D1*
Y65628D1*
Y65603D1*
Y65577D1*
Y65552D1*
Y65526D1*
Y65501D1*
Y65476D1*
Y65450D1*
Y65425D1*
Y65399D1*
Y65374D1*
Y65349D1*
Y65323D1*
Y65298D1*
Y65272D1*
Y65247D1*
Y65222D1*
Y65196D1*
Y65171D1*
Y65145D1*
Y65120D1*
Y65095D1*
Y65069D1*
Y65044D1*
Y65018D1*
Y64993D1*
Y64968D1*
Y64942D1*
Y64917D1*
Y64891D1*
Y64866D1*
Y64841D1*
Y64815D1*
Y64790D1*
Y64764D1*
Y64739D1*
Y64714D1*
Y64688D1*
Y64663D1*
Y64637D1*
Y64612D1*
X26215Y67101D2*
X26190Y67076D1*
X26165Y67050D1*
X26139Y67025D1*
X26114Y67000D1*
X26088Y66974D1*
X26063Y66949D1*
X26038Y66923D1*
X26012Y66898D1*
X25987Y66873D1*
X25961Y66847D1*
X25936Y66822D1*
X25911Y66796D1*
X25885Y66771D1*
X25860Y66746D1*
X25834Y66720D1*
X25807Y66695D1*
X25774Y66669D1*
X25731Y66644D1*
X25682Y66619D1*
X26749Y67101D2*
Y67076D1*
Y67050D1*
Y67025D1*
Y67000D1*
Y66974D1*
Y66949D1*
Y66923D1*
Y66898D1*
Y66873D1*
Y66847D1*
Y66822D1*
Y66796D1*
Y66771D1*
Y66746D1*
Y66720D1*
Y66695D1*
Y66669D1*
Y66644D1*
Y66619D1*
Y66593D1*
Y66568D1*
Y66542D1*
Y66517D1*
Y66492D1*
Y66466D1*
Y66441D1*
Y66415D1*
Y66390D1*
Y66365D1*
Y66339D1*
Y66314D1*
Y66288D1*
Y66263D1*
Y66238D1*
Y66212D1*
Y66187D1*
Y66161D1*
Y66136D1*
Y66111D1*
Y66085D1*
Y66060D1*
Y66034D1*
Y66009D1*
Y65984D1*
Y65958D1*
Y65933D1*
Y65907D1*
Y65882D1*
Y65857D1*
Y65831D1*
Y65806D1*
Y65780D1*
Y65755D1*
Y65730D1*
Y65704D1*
Y65679D1*
Y65653D1*
Y65628D1*
Y65603D1*
Y65577D1*
Y65552D1*
Y65526D1*
Y65501D1*
Y65476D1*
Y65450D1*
Y65425D1*
Y65399D1*
Y65374D1*
Y65349D1*
Y65323D1*
Y65298D1*
Y65272D1*
Y65247D1*
Y65222D1*
Y65196D1*
Y65171D1*
Y65145D1*
Y65120D1*
Y65095D1*
Y65069D1*
Y65044D1*
Y65018D1*
Y64993D1*
X26751Y64968D1*
X26756Y64942D1*
X26775Y64917D1*
X26800Y64891D1*
X29238Y67101D2*
Y67076D1*
Y67050D1*
Y67025D1*
Y67000D1*
Y66974D1*
Y66949D1*
Y66923D1*
Y66898D1*
Y66873D1*
Y66847D1*
Y66822D1*
Y66796D1*
Y66771D1*
Y66746D1*
Y66720D1*
Y66695D1*
Y66669D1*
Y66644D1*
Y66619D1*
Y66593D1*
Y66568D1*
Y66542D1*
Y66517D1*
Y66492D1*
Y66466D1*
Y66441D1*
Y66415D1*
Y66390D1*
Y66365D1*
Y66339D1*
Y66314D1*
Y66288D1*
Y66263D1*
Y66238D1*
Y66212D1*
Y66187D1*
Y66161D1*
Y66136D1*
Y66111D1*
Y66085D1*
Y66060D1*
Y66034D1*
Y66009D1*
Y65984D1*
Y65958D1*
Y65933D1*
Y65907D1*
Y65882D1*
Y65857D1*
Y65831D1*
Y65806D1*
Y65780D1*
Y65755D1*
Y65730D1*
Y65704D1*
Y65679D1*
Y65653D1*
Y65628D1*
Y65603D1*
Y65577D1*
Y65552D1*
Y65526D1*
Y65501D1*
Y65476D1*
Y65450D1*
Y65425D1*
Y65399D1*
Y65374D1*
Y65349D1*
Y65323D1*
Y65298D1*
Y65272D1*
Y65247D1*
Y65222D1*
Y65196D1*
Y65171D1*
Y65145D1*
Y65120D1*
Y65095D1*
Y65069D1*
Y65044D1*
Y65018D1*
Y64993D1*
X29237Y64968D1*
X29233Y64942D1*
X29224Y64917D1*
X29213Y64891D1*
X29543Y67101D2*
Y67076D1*
Y67050D1*
Y67025D1*
Y67000D1*
Y66974D1*
Y66949D1*
Y66923D1*
Y66898D1*
Y66873D1*
Y66847D1*
Y66822D1*
Y66796D1*
Y66771D1*
Y66746D1*
Y66720D1*
Y66695D1*
Y66669D1*
Y66644D1*
Y66619D1*
Y66593D1*
Y66568D1*
Y66542D1*
Y66517D1*
Y66492D1*
Y66466D1*
Y66441D1*
Y66415D1*
Y66390D1*
Y66365D1*
Y66339D1*
Y66314D1*
Y66288D1*
Y66263D1*
Y66238D1*
Y66212D1*
Y66187D1*
Y66161D1*
Y66136D1*
Y66111D1*
Y66085D1*
Y66060D1*
Y66034D1*
Y66009D1*
Y65984D1*
Y65958D1*
Y65933D1*
Y65907D1*
Y65882D1*
Y65857D1*
Y65831D1*
Y65806D1*
Y65780D1*
Y65755D1*
Y65730D1*
Y65704D1*
Y65679D1*
Y65653D1*
Y65628D1*
Y65603D1*
Y65577D1*
Y65552D1*
Y65526D1*
Y65501D1*
Y65476D1*
Y65450D1*
Y65425D1*
Y65399D1*
Y65374D1*
Y65349D1*
Y65323D1*
Y65298D1*
Y65272D1*
Y65247D1*
Y65222D1*
Y65196D1*
Y65171D1*
Y65145D1*
Y65120D1*
Y65095D1*
Y65069D1*
Y65044D1*
Y65018D1*
Y64993D1*
Y64968D1*
Y64942D1*
Y64917D1*
Y64891D1*
Y64866D1*
Y64841D1*
Y64815D1*
Y64790D1*
Y64764D1*
Y64739D1*
Y64714D1*
Y64688D1*
Y64663D1*
Y64637D1*
Y64612D1*
X32032Y67101D2*
Y67076D1*
Y67050D1*
Y67025D1*
Y67000D1*
Y66974D1*
Y66949D1*
Y66923D1*
Y66898D1*
Y66873D1*
Y66847D1*
Y66822D1*
Y66796D1*
Y66771D1*
Y66746D1*
Y66720D1*
Y66695D1*
Y66669D1*
Y66644D1*
Y66619D1*
Y66593D1*
Y66568D1*
Y66542D1*
Y66517D1*
Y66492D1*
Y66466D1*
Y66441D1*
Y66415D1*
Y66390D1*
Y66365D1*
Y66339D1*
Y66314D1*
Y66288D1*
Y66263D1*
Y66238D1*
Y66212D1*
Y66187D1*
Y66161D1*
Y66136D1*
Y66111D1*
Y66085D1*
Y66060D1*
Y66034D1*
Y66009D1*
Y65984D1*
Y65958D1*
Y65933D1*
Y65907D1*
Y65882D1*
Y65857D1*
Y65831D1*
Y65806D1*
Y65780D1*
Y65755D1*
Y65730D1*
Y65704D1*
Y65679D1*
Y65653D1*
Y65628D1*
Y65603D1*
Y65577D1*
Y65552D1*
Y65526D1*
Y65501D1*
Y65476D1*
Y65450D1*
Y65425D1*
Y65399D1*
Y65374D1*
Y65349D1*
Y65323D1*
Y65298D1*
Y65272D1*
Y65247D1*
Y65222D1*
Y65196D1*
Y65171D1*
Y65145D1*
Y65120D1*
Y65095D1*
Y65069D1*
Y65044D1*
Y65018D1*
Y64993D1*
Y64968D1*
Y64942D1*
Y64917D1*
Y64891D1*
Y64866D1*
Y64841D1*
Y64815D1*
Y64790D1*
Y64764D1*
Y64739D1*
Y64714D1*
Y64688D1*
Y64663D1*
Y64637D1*
Y64612D1*
X26444Y66822D2*
X26419Y66796D1*
X26393Y66771D1*
X26368Y66746D1*
X26342Y66720D1*
X26316Y66695D1*
X26288Y66669D1*
X26260Y66644D1*
X26233Y66619D1*
X26208Y66593D1*
X26182Y66568D1*
X26157Y66542D1*
X26134Y66517D1*
X26111Y66492D1*
X26087Y66466D1*
X26063Y66441D1*
X26039Y66415D1*
X26019Y66390D1*
X26004Y66365D1*
X26005Y66339D1*
X26016Y66314D1*
X26027Y66288D1*
X26036Y66263D1*
X26046Y66238D1*
X26054Y66212D1*
X26063Y66187D1*
X26072Y66161D1*
X26083Y66136D1*
X26094Y66111D1*
X26103Y66085D1*
X26109Y66060D1*
X26112Y66034D1*
X26114Y66009D1*
X26118Y65984D1*
X26124Y65958D1*
X26131Y65933D1*
X26135Y65907D1*
X26137Y65882D1*
X26138Y65857D1*
Y65831D1*
X26135Y65806D1*
X26129Y65780D1*
X26122Y65755D1*
X26118Y65730D1*
X26116Y65704D1*
X26114Y65679D1*
X26113Y65653D1*
X26109Y65628D1*
X26099Y65603D1*
X26087Y65577D1*
X26076Y65552D1*
X26068Y65526D1*
X26061Y65501D1*
X26053Y65476D1*
X26041Y65450D1*
X26027Y65425D1*
X26011Y65399D1*
X25995Y65374D1*
X25977Y65349D1*
X25958Y65323D1*
X25937Y65298D1*
X25916Y65272D1*
X25892Y65247D1*
X25867Y65222D1*
X25843Y65196D1*
X25816Y65171D1*
X25784Y65145D1*
X25749Y65120D1*
X25712Y65095D1*
X25669Y65069D1*
X25618Y65044D1*
X25559Y65018D1*
X25502Y64993D1*
X25457Y64968D1*
X25424Y64942D1*
X25413Y64917D1*
X25407Y64891D1*
X25404Y64866D1*
X25403Y64841D1*
Y64815D1*
Y64790D1*
Y64764D1*
Y64739D1*
Y64714D1*
Y64688D1*
Y64663D1*
Y64637D1*
Y64612D1*
X26469Y66822D2*
Y66796D1*
Y66771D1*
Y66746D1*
Y66720D1*
Y66695D1*
Y66669D1*
Y66644D1*
Y66619D1*
Y66593D1*
Y66568D1*
Y66542D1*
Y66517D1*
Y66492D1*
Y66466D1*
Y66441D1*
Y66415D1*
Y66390D1*
Y66365D1*
Y66339D1*
Y66314D1*
Y66288D1*
Y66263D1*
Y66238D1*
Y66212D1*
Y66187D1*
Y66161D1*
Y66136D1*
Y66111D1*
Y66085D1*
Y66060D1*
Y66034D1*
Y66009D1*
Y65984D1*
Y65958D1*
Y65933D1*
Y65907D1*
Y65882D1*
Y65857D1*
Y65831D1*
Y65806D1*
Y65780D1*
Y65755D1*
Y65730D1*
Y65704D1*
Y65679D1*
Y65653D1*
Y65628D1*
Y65603D1*
Y65577D1*
Y65552D1*
Y65526D1*
Y65501D1*
Y65476D1*
Y65450D1*
Y65425D1*
Y65399D1*
Y65374D1*
Y65349D1*
Y65323D1*
Y65298D1*
Y65272D1*
Y65247D1*
Y65222D1*
Y65196D1*
Y65171D1*
Y65145D1*
Y65120D1*
Y65095D1*
Y65069D1*
Y65044D1*
Y65018D1*
Y64993D1*
Y64968D1*
Y64942D1*
Y64917D1*
Y64891D1*
Y64866D1*
Y64841D1*
Y64815D1*
Y64790D1*
Y64764D1*
Y64739D1*
Y64714D1*
Y64688D1*
Y64663D1*
Y64637D1*
Y64612D1*
X25072Y66746D2*
X24983Y66720D1*
X24905Y66695D1*
X24839Y66669D1*
X24785Y66644D1*
X24739Y66619D1*
X24697Y66593D1*
X24661Y66568D1*
X24628Y66542D1*
X24597Y66517D1*
X24568Y66492D1*
X24541Y66466D1*
X24518Y66441D1*
X24495Y66415D1*
X24474Y66390D1*
X24453Y66365D1*
X24436Y66339D1*
X24423Y66314D1*
X24412Y66288D1*
X24400Y66263D1*
X24386Y66238D1*
X24373Y66212D1*
X24363Y66187D1*
X24353Y66161D1*
X24345Y66136D1*
X24339Y66111D1*
X24333Y66085D1*
X24326Y66060D1*
X24319Y66034D1*
X24314Y66009D1*
X24308Y65984D1*
X24301Y65958D1*
X24294Y65933D1*
X24289Y65907D1*
X24287Y65882D1*
X24286Y65857D1*
Y65831D1*
X24289Y65806D1*
X24295Y65780D1*
X24302Y65755D1*
X24306Y65730D1*
X24310Y65704D1*
X24314Y65679D1*
X24321Y65653D1*
X24328Y65628D1*
X24336Y65603D1*
X24344Y65577D1*
X24352Y65552D1*
X24358Y65526D1*
X24365Y65501D1*
X24375Y65476D1*
X24389Y65450D1*
X24404Y65425D1*
X24417Y65399D1*
X24432Y65374D1*
X24448Y65349D1*
X24467Y65323D1*
X24487Y65298D1*
X24508Y65272D1*
X24533Y65247D1*
X24560Y65222D1*
X24588Y65196D1*
X24615Y65171D1*
X24645Y65145D1*
X24680Y65120D1*
X24720Y65095D1*
X24762Y65069D1*
X24811Y65044D1*
X24869Y65018D1*
X24928Y64993D1*
X24978Y64968D1*
X25018Y64942D1*
X25036Y64917D1*
X25042Y64891D1*
X25045Y64866D1*
X25046Y64841D1*
X25047Y64815D1*
Y64790D1*
Y64764D1*
Y64739D1*
Y64714D1*
Y64688D1*
Y64663D1*
Y64637D1*
Y64612D1*
X25352Y66746D2*
X25443Y66720D1*
X25528Y66695D1*
X25615Y66669D1*
X25709Y66644D1*
X25809Y66619D1*
X25250Y66263D2*
X25156Y66238D1*
X25073Y66212D1*
X25009Y66187D1*
X24962Y66161D1*
X24927Y66136D1*
X24898Y66111D1*
X24874Y66085D1*
X24855Y66060D1*
X24836Y66034D1*
X24820Y66009D1*
X24807Y65984D1*
X24799Y65958D1*
X24796Y65933D1*
X24794Y65907D1*
X24793Y65882D1*
Y65857D1*
Y65831D1*
Y65806D1*
Y65780D1*
X24795Y65755D1*
X24799Y65730D1*
X24813Y65704D1*
X24828Y65679D1*
X24842Y65653D1*
X24859Y65628D1*
X24882Y65603D1*
X24908Y65577D1*
X24939Y65552D1*
X24986Y65526D1*
X25074Y65501D1*
X25221Y65476D1*
X25403Y65450D1*
X25149Y66263D2*
X25260Y66238D1*
X25351Y66212D1*
X25417Y66187D1*
X25463Y66161D1*
X25498Y66136D1*
X25527Y66111D1*
X25553Y66085D1*
X25576Y66060D1*
X25594Y66034D1*
X25609Y66009D1*
X25620Y65984D1*
X25626Y65958D1*
X25629Y65933D1*
X25630Y65907D1*
X25631Y65882D1*
Y65857D1*
Y65831D1*
Y65806D1*
Y65780D1*
X25630Y65755D1*
X25626Y65730D1*
X25617Y65704D1*
X25603Y65679D1*
X25587Y65653D1*
X25567Y65628D1*
X25543Y65603D1*
X25517Y65577D1*
X25486Y65552D1*
X25438Y65526D1*
X25350Y65501D1*
X25203Y65476D1*
X25022Y65450D1*
X27130Y65247D2*
X27110Y65222D1*
X27089Y65196D1*
X27067Y65171D1*
X27044Y65145D1*
X27018Y65120D1*
X26991Y65095D1*
X26963Y65069D1*
X26936Y65044D1*
X26910Y65018D1*
X26885Y64993D1*
X26859Y64968D1*
X26833Y64942D1*
X26805Y64917D1*
X26774Y64891D1*
X28857Y65247D2*
X28882Y65222D1*
X28908Y65196D1*
X28933Y65171D1*
X28959Y65145D1*
X28984Y65120D1*
X29009Y65095D1*
X29035Y65069D1*
X29060Y65044D1*
X29086Y65018D1*
X29111Y64993D1*
X29137Y64968D1*
X29167Y64942D1*
X29201Y64917D1*
X29238Y64891D1*
X27282D2*
X27257Y64866D1*
X27232Y64841D1*
X27209Y64815D1*
X27187Y64790D1*
X27163Y64764D1*
X27137Y64739D1*
X27113Y64714D1*
X27087Y64688D1*
X27058Y64663D1*
X27030Y64637D1*
X27003Y64612D1*
X28705Y64891D2*
X28730Y64866D1*
X28755Y64841D1*
X28781Y64815D1*
X28806Y64790D1*
X28832Y64764D1*
X28857Y64739D1*
X28882Y64714D1*
X28908Y64688D1*
X28933Y64663D1*
X28959Y64637D1*
X28984Y64612D1*
X23980Y64307D2*
Y64282D1*
Y64256D1*
Y64231D1*
Y64206D1*
Y64180D1*
Y64155D1*
Y64129D1*
Y64104D1*
Y64079D1*
Y64053D1*
Y64028D1*
Y64002D1*
Y63977D1*
Y63952D1*
Y63926D1*
Y63901D1*
Y63875D1*
Y63850D1*
Y63825D1*
Y63799D1*
Y63774D1*
Y63748D1*
Y63723D1*
Y63698D1*
Y63672D1*
Y63647D1*
Y63621D1*
Y63596D1*
Y63571D1*
Y63545D1*
Y63520D1*
Y63494D1*
Y63469D1*
Y63444D1*
Y63418D1*
Y63393D1*
Y63367D1*
Y63342D1*
Y63317D1*
Y63291D1*
Y63266D1*
Y63240D1*
Y63215D1*
Y63190D1*
Y63164D1*
Y63139D1*
Y63113D1*
Y63088D1*
Y63063D1*
Y63037D1*
Y63012D1*
Y62986D1*
Y62961D1*
Y62936D1*
Y62910D1*
Y62885D1*
Y62859D1*
Y62834D1*
Y62809D1*
Y62783D1*
Y62758D1*
Y62732D1*
Y62707D1*
Y62682D1*
Y62656D1*
Y62631D1*
Y62605D1*
Y62580D1*
Y62555D1*
Y62529D1*
Y62504D1*
Y62478D1*
Y62453D1*
Y62428D1*
Y62402D1*
Y62377D1*
Y62351D1*
Y62326D1*
Y62301D1*
Y62275D1*
Y62250D1*
Y62224D1*
Y62199D1*
Y62174D1*
Y62148D1*
Y62123D1*
Y62097D1*
Y62072D1*
Y62047D1*
Y62021D1*
Y61996D1*
Y61970D1*
Y61945D1*
Y61920D1*
Y61894D1*
Y61869D1*
Y61843D1*
Y61818D1*
X25047Y64307D2*
Y64282D1*
Y64256D1*
Y64231D1*
Y64206D1*
Y64180D1*
Y64155D1*
Y64129D1*
Y64104D1*
Y64079D1*
Y64053D1*
X25045Y64028D1*
X25040Y64002D1*
X25020Y63977D1*
X24975Y63952D1*
X24920Y63926D1*
X24862Y63901D1*
X24808Y63875D1*
X24757Y63850D1*
X24713Y63825D1*
X24676Y63799D1*
X24645Y63774D1*
X24616Y63748D1*
X24587Y63723D1*
X24559Y63698D1*
X24533Y63672D1*
X24509Y63647D1*
X24487Y63621D1*
X24466Y63596D1*
X24448Y63571D1*
X24433Y63545D1*
X24418Y63520D1*
X24403Y63494D1*
X24387Y63469D1*
X24375Y63444D1*
X24366Y63418D1*
X24360Y63393D1*
X24352Y63367D1*
X24344Y63342D1*
X24336Y63317D1*
X24327Y63291D1*
X24320Y63266D1*
X24314Y63240D1*
X24308Y63215D1*
X24301Y63190D1*
X24294Y63164D1*
X24289Y63139D1*
X24287Y63113D1*
X24286Y63088D1*
X24285Y63063D1*
Y63037D1*
X24286Y63012D1*
X24289Y62986D1*
X24295Y62961D1*
X24303Y62936D1*
X24310Y62910D1*
X24319Y62885D1*
X24327Y62859D1*
X24332Y62834D1*
X24338Y62809D1*
X24345Y62783D1*
X24353Y62758D1*
X24362Y62732D1*
X24374Y62707D1*
X24388Y62682D1*
X24400Y62656D1*
X24410Y62631D1*
X24422Y62605D1*
X24436Y62580D1*
X24455Y62555D1*
X24474Y62529D1*
X24495Y62504D1*
X24517Y62478D1*
X24540Y62453D1*
X24565Y62428D1*
X24591Y62402D1*
X24620Y62377D1*
X24652Y62351D1*
X24688Y62326D1*
X24728Y62301D1*
X24774Y62275D1*
X24827Y62250D1*
X24891Y62224D1*
X24966Y62199D1*
X25047Y62174D1*
X25403Y64307D2*
Y64282D1*
Y64256D1*
Y64231D1*
Y64206D1*
Y64180D1*
Y64155D1*
Y64129D1*
Y64104D1*
Y64079D1*
Y64053D1*
X25404Y64028D1*
X25406Y64002D1*
X25420Y63977D1*
X25458Y63952D1*
X25509Y63926D1*
X25569Y63901D1*
X25634Y63875D1*
X25707Y63850D1*
X25784Y63825D1*
X26241Y64307D2*
X26196Y64282D1*
X26158Y64256D1*
X26127Y64231D1*
X26099Y64206D1*
X26072Y64180D1*
X26047Y64155D1*
X26024Y64129D1*
X26001Y64104D1*
X25977Y64079D1*
X25951Y64053D1*
X25924Y64028D1*
X25896Y64002D1*
X25869Y63977D1*
X25844Y63952D1*
X25818Y63926D1*
X25792Y63901D1*
X25766Y63875D1*
X25738Y63850D1*
X25707Y63825D1*
X26749Y64307D2*
Y64282D1*
Y64256D1*
Y64231D1*
Y64206D1*
Y64180D1*
Y64155D1*
Y64129D1*
Y64104D1*
Y64079D1*
Y64053D1*
Y64028D1*
Y64002D1*
Y63977D1*
Y63952D1*
Y63926D1*
Y63901D1*
Y63875D1*
Y63850D1*
Y63825D1*
Y63799D1*
Y63774D1*
Y63748D1*
Y63723D1*
Y63698D1*
Y63672D1*
Y63647D1*
Y63621D1*
Y63596D1*
Y63571D1*
Y63545D1*
Y63520D1*
Y63494D1*
Y63469D1*
Y63444D1*
Y63418D1*
Y63393D1*
Y63367D1*
X26750Y63342D1*
X26754Y63317D1*
X26764Y63291D1*
X26781Y63266D1*
X26800Y63240D1*
X29238Y64307D2*
Y64282D1*
Y64256D1*
Y64231D1*
Y64206D1*
Y64180D1*
Y64155D1*
Y64129D1*
Y64104D1*
Y64079D1*
Y64053D1*
Y64028D1*
Y64002D1*
Y63977D1*
Y63952D1*
Y63926D1*
Y63901D1*
Y63875D1*
Y63850D1*
Y63825D1*
Y63799D1*
Y63774D1*
Y63748D1*
Y63723D1*
Y63698D1*
Y63672D1*
Y63647D1*
Y63621D1*
Y63596D1*
Y63571D1*
Y63545D1*
Y63520D1*
Y63494D1*
Y63469D1*
Y63444D1*
Y63418D1*
Y63393D1*
Y63367D1*
Y63342D1*
Y63317D1*
Y63291D1*
Y63266D1*
Y63240D1*
Y63215D1*
Y63190D1*
Y63164D1*
Y63139D1*
Y63113D1*
Y63088D1*
Y63063D1*
Y63037D1*
Y63012D1*
Y62986D1*
Y62961D1*
Y62936D1*
Y62910D1*
Y62885D1*
Y62859D1*
Y62834D1*
Y62809D1*
Y62783D1*
Y62758D1*
Y62732D1*
Y62707D1*
Y62682D1*
Y62656D1*
Y62631D1*
Y62605D1*
Y62580D1*
Y62555D1*
Y62529D1*
Y62504D1*
Y62478D1*
Y62453D1*
Y62428D1*
Y62402D1*
Y62377D1*
Y62351D1*
Y62326D1*
Y62301D1*
Y62275D1*
Y62250D1*
Y62224D1*
Y62199D1*
Y62174D1*
Y62148D1*
Y62123D1*
Y62097D1*
Y62072D1*
Y62047D1*
Y62021D1*
Y61996D1*
Y61970D1*
Y61945D1*
Y61920D1*
Y61894D1*
Y61869D1*
Y61843D1*
Y61818D1*
X29797Y64307D2*
X29822Y64282D1*
X29848Y64256D1*
X29873Y64231D1*
X29898Y64206D1*
X29924Y64180D1*
X29949Y64155D1*
X29975Y64129D1*
X30000Y64104D1*
X30025Y64079D1*
X30051Y64053D1*
X30076Y64028D1*
X30102Y64002D1*
X30127Y63977D1*
X30152Y63952D1*
X30178Y63926D1*
X30205Y63901D1*
X30239Y63875D1*
X30281Y63850D1*
X30330Y63825D1*
X32032Y64307D2*
Y64282D1*
Y64256D1*
Y64231D1*
Y64206D1*
Y64180D1*
Y64155D1*
Y64129D1*
Y64104D1*
Y64079D1*
Y64053D1*
Y64028D1*
Y64002D1*
Y63977D1*
Y63952D1*
Y63926D1*
Y63901D1*
Y63875D1*
Y63850D1*
Y63825D1*
Y63799D1*
Y63774D1*
Y63748D1*
Y63723D1*
Y63698D1*
Y63672D1*
Y63647D1*
Y63621D1*
Y63596D1*
Y63571D1*
Y63545D1*
Y63520D1*
Y63494D1*
Y63469D1*
Y63444D1*
Y63418D1*
Y63393D1*
Y63367D1*
Y63342D1*
Y63317D1*
Y63291D1*
Y63266D1*
Y63240D1*
Y63215D1*
Y63190D1*
Y63164D1*
Y63139D1*
Y63113D1*
Y63088D1*
Y63063D1*
Y63037D1*
Y63012D1*
Y62986D1*
Y62961D1*
Y62936D1*
Y62910D1*
Y62885D1*
Y62859D1*
Y62834D1*
Y62809D1*
Y62783D1*
Y62758D1*
Y62732D1*
Y62707D1*
Y62682D1*
Y62656D1*
Y62631D1*
Y62605D1*
Y62580D1*
Y62555D1*
Y62529D1*
Y62504D1*
Y62478D1*
Y62453D1*
Y62428D1*
Y62402D1*
Y62377D1*
Y62351D1*
Y62326D1*
Y62301D1*
Y62275D1*
Y62250D1*
Y62224D1*
Y62199D1*
Y62174D1*
Y62148D1*
Y62123D1*
Y62097D1*
Y62072D1*
Y62047D1*
Y62021D1*
Y61996D1*
Y61970D1*
Y61945D1*
Y61920D1*
Y61894D1*
Y61869D1*
Y61843D1*
Y61818D1*
X26393Y64028D2*
X26387Y64002D1*
X26369Y63977D1*
X26347Y63952D1*
X26324Y63926D1*
X26299Y63901D1*
X26271Y63875D1*
X26243Y63850D1*
X26217Y63825D1*
X26191Y63799D1*
X26166Y63774D1*
X26143Y63748D1*
X26120Y63723D1*
X26096Y63698D1*
X26071Y63672D1*
X26047Y63647D1*
X26025Y63621D1*
X26005Y63596D1*
X25998Y63571D1*
X26005Y63545D1*
X26016Y63520D1*
X26030Y63494D1*
X26042Y63469D1*
X26052Y63444D1*
X26059Y63418D1*
X26066Y63393D1*
X26077Y63367D1*
X26090Y63342D1*
X26101Y63317D1*
X26108Y63291D1*
X26111Y63266D1*
X26114Y63240D1*
X26469Y64028D2*
Y64002D1*
Y63977D1*
Y63952D1*
Y63926D1*
Y63901D1*
Y63875D1*
Y63850D1*
Y63825D1*
Y63799D1*
Y63774D1*
Y63748D1*
Y63723D1*
Y63698D1*
Y63672D1*
Y63647D1*
Y63621D1*
Y63596D1*
Y63571D1*
Y63545D1*
Y63520D1*
Y63494D1*
Y63469D1*
Y63444D1*
Y63418D1*
Y63393D1*
Y63367D1*
Y63342D1*
Y63317D1*
Y63291D1*
Y63266D1*
Y63240D1*
X29543Y64028D2*
Y64002D1*
Y63977D1*
Y63952D1*
Y63926D1*
Y63901D1*
Y63875D1*
Y63850D1*
Y63825D1*
Y63799D1*
Y63774D1*
Y63748D1*
Y63723D1*
Y63698D1*
Y63672D1*
Y63647D1*
Y63621D1*
Y63596D1*
Y63571D1*
Y63545D1*
Y63520D1*
Y63494D1*
Y63469D1*
Y63444D1*
Y63418D1*
Y63393D1*
Y63367D1*
Y63342D1*
Y63317D1*
Y63291D1*
Y63266D1*
Y63240D1*
Y63215D1*
Y63190D1*
Y63164D1*
Y63139D1*
Y63113D1*
Y63088D1*
Y63063D1*
Y63037D1*
Y63012D1*
Y62986D1*
Y62961D1*
Y62936D1*
Y62910D1*
Y62885D1*
Y62859D1*
Y62834D1*
Y62809D1*
Y62783D1*
Y62758D1*
Y62732D1*
Y62707D1*
Y62682D1*
Y62656D1*
Y62631D1*
Y62605D1*
Y62580D1*
Y62555D1*
Y62529D1*
Y62504D1*
Y62478D1*
Y62453D1*
Y62428D1*
Y62402D1*
Y62377D1*
Y62351D1*
Y62326D1*
Y62301D1*
Y62275D1*
Y62250D1*
Y62224D1*
Y62199D1*
Y62174D1*
Y62148D1*
Y62123D1*
Y62097D1*
Y62072D1*
Y62047D1*
Y62021D1*
Y61996D1*
Y61970D1*
Y61945D1*
Y61920D1*
Y61894D1*
Y61869D1*
Y61843D1*
Y61818D1*
X29568Y64028D2*
X29594Y64002D1*
X29619Y63977D1*
X29644Y63952D1*
X29670Y63926D1*
X29695Y63901D1*
X29721Y63875D1*
X29746Y63850D1*
X29771Y63825D1*
X29797Y63799D1*
X29822Y63774D1*
X29848Y63748D1*
X29873Y63723D1*
X29898Y63698D1*
X29924Y63672D1*
X29949Y63647D1*
X29975Y63621D1*
X30000Y63596D1*
X30025Y63571D1*
X30004Y63545D1*
X29986Y63520D1*
X29971Y63494D1*
X29960Y63469D1*
X29950Y63444D1*
X29940Y63418D1*
X29929Y63393D1*
X29918Y63367D1*
X29908Y63342D1*
X29899Y63317D1*
X29890Y63291D1*
X29882Y63266D1*
X29877Y63240D1*
X29875Y63215D1*
X29874Y63190D1*
X29873Y63164D1*
Y63139D1*
Y63113D1*
Y63088D1*
Y63063D1*
Y63037D1*
Y63012D1*
Y62986D1*
Y62961D1*
X29874Y62936D1*
X29877Y62910D1*
X29883Y62885D1*
X29890Y62859D1*
X29895Y62834D1*
X29901Y62809D1*
X29909Y62783D1*
X29919Y62758D1*
X29931Y62732D1*
X29943Y62707D1*
X29955Y62682D1*
X29966Y62656D1*
X29978Y62631D1*
X29994Y62605D1*
X30012Y62580D1*
X30028Y62555D1*
X30044Y62529D1*
X30062Y62504D1*
X30084Y62478D1*
X30110Y62453D1*
X30135Y62428D1*
X30161Y62402D1*
X30192Y62377D1*
X30225Y62351D1*
X30262Y62326D1*
X30301Y62301D1*
X30346Y62275D1*
X30401Y62250D1*
X30471Y62224D1*
X30560Y62199D1*
X30660Y62174D1*
X27968Y63977D2*
X27839Y63952D1*
X27733Y63926D1*
X27650Y63901D1*
X27588Y63875D1*
X27538Y63850D1*
X27495Y63825D1*
X27457Y63799D1*
X27423Y63774D1*
X27395Y63748D1*
X27367Y63723D1*
X27338Y63698D1*
X27310Y63672D1*
X27284Y63647D1*
X27262Y63621D1*
X27242Y63596D1*
X27224Y63571D1*
X27207Y63545D1*
X27193Y63520D1*
X27182Y63494D1*
X27169Y63469D1*
X27154Y63444D1*
X27143Y63418D1*
X27135Y63393D1*
X27128Y63367D1*
X27120Y63342D1*
X27113Y63317D1*
X27109Y63291D1*
X27106Y63266D1*
X27104Y63240D1*
X28044Y63977D2*
X28164Y63952D1*
X28263Y63926D1*
X28342Y63901D1*
X28405Y63875D1*
X28459Y63850D1*
X28505Y63825D1*
X28542Y63799D1*
X28574Y63774D1*
X28605Y63748D1*
X28634Y63723D1*
X28660Y63698D1*
X28683Y63672D1*
X28706Y63647D1*
X28727Y63621D1*
X28745Y63596D1*
X28763Y63571D1*
X28781Y63545D1*
X28797Y63520D1*
X28811Y63494D1*
X28825Y63469D1*
X28838Y63444D1*
X28850Y63418D1*
X28862Y63393D1*
X28872Y63367D1*
X28878Y63342D1*
X28885Y63317D1*
X28892Y63291D1*
X28899Y63266D1*
X28904Y63240D1*
X28906Y63215D1*
X28907Y63190D1*
X28908Y63164D1*
Y63139D1*
Y63113D1*
Y63088D1*
Y63063D1*
Y63037D1*
Y63012D1*
Y62986D1*
Y62961D1*
Y62936D1*
X28907Y62910D1*
X28904Y62885D1*
X28897Y62859D1*
X28891Y62834D1*
X28886Y62809D1*
X28880Y62783D1*
X28872Y62758D1*
X28862Y62732D1*
X28850Y62707D1*
X28838Y62682D1*
X28825Y62656D1*
X28812Y62631D1*
X28797Y62605D1*
X28780Y62580D1*
X28764Y62555D1*
X28746Y62529D1*
X28726Y62504D1*
X28703Y62478D1*
X28678Y62453D1*
X28653Y62428D1*
X28627Y62402D1*
X28598Y62377D1*
X28563Y62351D1*
X28524Y62326D1*
X28482Y62301D1*
X28436Y62275D1*
X28383Y62250D1*
X28320Y62224D1*
X28248Y62199D1*
X28171Y62174D1*
X30559Y63952D2*
X30492Y63926D1*
X30428Y63901D1*
X30370Y63875D1*
X30313Y63850D1*
X30254Y63825D1*
X31016Y63952D2*
X31075Y63926D1*
X31137Y63901D1*
X31193Y63875D1*
X31241Y63850D1*
X31282Y63825D1*
X31318Y63799D1*
X31351Y63774D1*
X31381Y63748D1*
X31411Y63723D1*
X31440Y63698D1*
X31466Y63672D1*
X31487Y63647D1*
X31507Y63621D1*
X31527Y63596D1*
X31547Y63571D1*
X31564Y63545D1*
X31579Y63520D1*
X31594Y63494D1*
X31610Y63469D1*
X31625Y63444D1*
X31638Y63418D1*
X31646Y63393D1*
X31653Y63367D1*
X31660Y63342D1*
X31667Y63317D1*
X31672Y63291D1*
X31675Y63266D1*
X31677Y63240D1*
X31680Y63215D1*
X31687Y63190D1*
X31693Y63164D1*
X31698Y63139D1*
X31700Y63113D1*
X31701Y63088D1*
Y63063D1*
Y63037D1*
X31698Y63012D1*
X31691Y62986D1*
X31685Y62961D1*
X31681Y62936D1*
X31678Y62910D1*
X31676Y62885D1*
X31672Y62859D1*
X31666Y62834D1*
X31660Y62809D1*
X31655Y62783D1*
X31651Y62758D1*
X31643Y62732D1*
X31631Y62707D1*
X31616Y62682D1*
X31603Y62656D1*
X31589Y62631D1*
X31573Y62605D1*
X31557Y62580D1*
X31541Y62555D1*
X31523Y62529D1*
X31503Y62504D1*
X31479Y62478D1*
X31452Y62453D1*
X31425Y62428D1*
X31398Y62402D1*
X31371Y62377D1*
X31342Y62351D1*
X31308Y62326D1*
X31268Y62301D1*
X31218Y62275D1*
X31159Y62250D1*
X31093Y62224D1*
X31019Y62199D1*
X30940Y62174D1*
X25149Y63469D2*
X25082Y63444D1*
X25024Y63418D1*
X24978Y63393D1*
X24941Y63367D1*
X24909Y63342D1*
X24881Y63317D1*
X24862Y63291D1*
X24847Y63266D1*
X24833Y63240D1*
X24818Y63215D1*
X24806Y63190D1*
X24799Y63164D1*
X24796Y63139D1*
X24794Y63113D1*
X24793Y63088D1*
Y63063D1*
Y63037D1*
Y63012D1*
X24794Y62986D1*
X24798Y62961D1*
X24808Y62936D1*
X24821Y62910D1*
X24836Y62885D1*
X24853Y62859D1*
X24874Y62834D1*
X24897Y62809D1*
X24923Y62783D1*
X24958Y62758D1*
X25012Y62732D1*
X25097Y62707D1*
X25215Y62682D1*
X25352Y62656D1*
X25276Y63469D2*
X25343Y63444D1*
X25400Y63418D1*
X25446Y63393D1*
X25484Y63367D1*
X25516Y63342D1*
X25544Y63317D1*
X25566Y63291D1*
X25583Y63266D1*
X25598Y63240D1*
X25611Y63215D1*
X25620Y63190D1*
X25626Y63164D1*
X25629Y63139D1*
X25630Y63113D1*
X25631Y63088D1*
Y63063D1*
Y63037D1*
Y63012D1*
X25630Y62986D1*
X25627Y62961D1*
X25620Y62936D1*
X25609Y62910D1*
X25594Y62885D1*
X25575Y62859D1*
X25553Y62834D1*
X25529Y62809D1*
X25502Y62783D1*
X25470Y62758D1*
X25418Y62732D1*
X25329Y62707D1*
X25199Y62682D1*
X25047Y62656D1*
X27993Y63469D2*
X27907Y63444D1*
X27836Y63418D1*
X27782Y63393D1*
X27738Y63367D1*
X27702Y63342D1*
X27673Y63317D1*
X27651Y63291D1*
X27634Y63266D1*
X27620Y63240D1*
X27606Y63215D1*
X27594Y63190D1*
X27582Y63164D1*
X27572Y63139D1*
X27567Y63113D1*
X27564Y63088D1*
X27563Y63063D1*
Y63037D1*
X27566Y63012D1*
X27573Y62986D1*
X27583Y62961D1*
X27594Y62936D1*
X27607Y62910D1*
X27623Y62885D1*
X27642Y62859D1*
X27662Y62834D1*
X27683Y62809D1*
X27709Y62783D1*
X27745Y62758D1*
X27800Y62732D1*
X27889Y62707D1*
X28009Y62682D1*
X28146Y62656D1*
X28044Y63469D2*
X28114Y63444D1*
X28176Y63418D1*
X28225Y63393D1*
X28263Y63367D1*
X28294Y63342D1*
X28321Y63317D1*
X28344Y63291D1*
X28363Y63266D1*
X28378Y63240D1*
X28389Y63215D1*
X28399Y63190D1*
X28408Y63164D1*
X28416Y63139D1*
X28421Y63113D1*
X28423Y63088D1*
X28424Y63063D1*
Y63037D1*
X28421Y63012D1*
X28415Y62986D1*
X28407Y62961D1*
X28400Y62936D1*
X28389Y62910D1*
X28375Y62885D1*
X28357Y62859D1*
X28336Y62834D1*
X28314Y62809D1*
X28286Y62783D1*
X28251Y62758D1*
X28194Y62732D1*
X28103Y62707D1*
X27980Y62682D1*
X27841Y62656D1*
X30737Y63469D2*
X30669Y63444D1*
X30611Y63418D1*
X30563Y63393D1*
X30522Y63367D1*
X30489Y63342D1*
X30461Y63317D1*
X30437Y63291D1*
X30418Y63266D1*
X30403Y63240D1*
X30392Y63215D1*
X30382Y63190D1*
X30373Y63164D1*
X30365Y63139D1*
X30360Y63113D1*
X30358Y63088D1*
X30357Y63063D1*
X30360Y63037D1*
X30366Y63012D1*
X30373Y62986D1*
X30378Y62961D1*
X30384Y62936D1*
X30393Y62910D1*
X30406Y62885D1*
X30424Y62859D1*
X30445Y62834D1*
X30468Y62809D1*
X30498Y62783D1*
X30536Y62758D1*
X30593Y62732D1*
X30682Y62707D1*
X30803Y62682D1*
X30940Y62656D1*
X30787Y63469D2*
X30874Y63444D1*
X30945Y63418D1*
X30999Y63393D1*
X31043Y63367D1*
X31079Y63342D1*
X31108Y63317D1*
X31129Y63291D1*
X31146Y63266D1*
X31161Y63240D1*
X31174Y63215D1*
X31187Y63190D1*
X31199Y63164D1*
X31209Y63139D1*
X31214Y63113D1*
X31217Y63088D1*
X31218Y63063D1*
Y63037D1*
X31215Y63012D1*
X31208Y62986D1*
X31198Y62961D1*
X31187Y62936D1*
X31174Y62910D1*
X31161Y62885D1*
X31145Y62859D1*
X31125Y62834D1*
X31102Y62809D1*
X31074Y62783D1*
X31037Y62758D1*
X30981Y62732D1*
X30892Y62707D1*
X30771Y62682D1*
X30635Y62656D1*
X26114Y62885D2*
X26110Y62859D1*
X26103Y62834D1*
X26093Y62809D1*
X26082Y62783D1*
X26072Y62758D1*
X26064Y62732D1*
X26055Y62707D1*
X26046Y62682D1*
X26037Y62656D1*
X26025Y62631D1*
X26010Y62605D1*
X25994Y62580D1*
X25977Y62555D1*
X25957Y62529D1*
X25934Y62504D1*
X25910Y62478D1*
X25885Y62453D1*
X25860Y62428D1*
X25834Y62402D1*
X25808Y62377D1*
X25779Y62351D1*
X25746Y62326D1*
X25706Y62301D1*
X25659Y62275D1*
X25602Y62250D1*
X25531Y62224D1*
X25446Y62199D1*
X25352Y62174D1*
X26469Y62885D2*
Y62859D1*
Y62834D1*
Y62809D1*
Y62783D1*
Y62758D1*
Y62732D1*
Y62707D1*
Y62682D1*
Y62656D1*
Y62631D1*
Y62605D1*
Y62580D1*
Y62555D1*
Y62529D1*
Y62504D1*
Y62478D1*
Y62453D1*
Y62428D1*
Y62402D1*
Y62377D1*
Y62351D1*
Y62326D1*
Y62301D1*
Y62275D1*
Y62250D1*
Y62224D1*
Y62199D1*
Y62174D1*
Y62148D1*
Y62123D1*
Y62097D1*
Y62072D1*
Y62047D1*
Y62021D1*
Y61996D1*
Y61970D1*
Y61945D1*
Y61920D1*
Y61894D1*
Y61869D1*
Y61843D1*
Y61818D1*
X26749Y62885D2*
Y62859D1*
Y62834D1*
Y62809D1*
Y62783D1*
Y62758D1*
Y62732D1*
Y62707D1*
Y62682D1*
Y62656D1*
Y62631D1*
Y62605D1*
Y62580D1*
Y62555D1*
Y62529D1*
Y62504D1*
Y62478D1*
Y62453D1*
Y62428D1*
Y62402D1*
Y62377D1*
Y62351D1*
Y62326D1*
Y62301D1*
Y62275D1*
Y62250D1*
Y62224D1*
Y62199D1*
Y62174D1*
Y62148D1*
Y62123D1*
Y62097D1*
Y62072D1*
Y62047D1*
Y62021D1*
Y61996D1*
Y61970D1*
Y61945D1*
Y61920D1*
Y61894D1*
Y61869D1*
Y61843D1*
Y61818D1*
X27104Y62885D2*
X27105Y62859D1*
X27109Y62834D1*
X27115Y62809D1*
X27121Y62783D1*
X27127Y62758D1*
X27133Y62732D1*
X27144Y62707D1*
X27158Y62682D1*
X27172Y62656D1*
X27186Y62631D1*
X27200Y62605D1*
X27216Y62580D1*
X27235Y62555D1*
X27256Y62529D1*
X27276Y62504D1*
X27297Y62478D1*
X27319Y62453D1*
X27343Y62428D1*
X27369Y62402D1*
X27397Y62377D1*
X27429Y62351D1*
X27466Y62326D1*
X27509Y62301D1*
X27557Y62275D1*
X27611Y62250D1*
X27671Y62224D1*
X27740Y62199D1*
X27816Y62174D1*
X23155Y33464D2*
D103*
X23058Y33513D1*
X22960Y33610D1*
X22912Y33707D1*
Y33901D1*
X22960Y33999D1*
X23058Y34095D1*
X23155Y34145D1*
X23301Y34193D1*
X23544D1*
X23689Y34145D1*
X23787Y34095D1*
X23884Y33999D1*
X23933Y33901D1*
Y33707D1*
X23884Y33610D1*
X23787Y33513D1*
X23689Y33464D1*
X23108Y33151D2*
X23058Y33053D1*
X22913Y32907D1*
X23933D1*
X28983Y36245D2*
X29031Y36342D1*
X29129Y36440D1*
X29225Y36488D1*
X29420D1*
X29517Y36440D1*
X29614Y36342D1*
X29663Y36245D1*
X29712Y36099D1*
Y35856D1*
X29663Y35711D1*
X29614Y35613D1*
X29517Y35516D1*
X29420Y35467D1*
X29225D1*
X29129Y35516D1*
X29031Y35613D1*
X28983Y35711D1*
X28620Y36244D2*
Y36292D1*
X28571Y36390D1*
X28523Y36438D1*
X28425Y36487D1*
X28231D1*
X28134Y36438D1*
X28086Y36390D1*
X28037Y36292D1*
Y36196D1*
X28086Y36098D1*
X28183Y35953D1*
X28669Y35467D1*
X27988D1*
X29283Y40445D2*
X29331Y40542D1*
X29429Y40640D1*
X29525Y40688D1*
X29720D1*
X29817Y40640D1*
X29914Y40542D1*
X29963Y40445D1*
X30012Y40299D1*
Y40056D1*
X29963Y39911D1*
X29914Y39813D1*
X29817Y39716D1*
X29720Y39667D1*
X29525D1*
X29429Y39716D1*
X29331Y39813D1*
X29283Y39911D1*
X28871Y40687D2*
X28338D1*
X28629Y40298D1*
X28483D1*
X28386Y40250D1*
X28338Y40202D1*
X28288Y40056D1*
Y39959D1*
X28338Y39813D1*
X28434Y39715D1*
X28580Y39667D1*
X28726D1*
X28871Y39715D1*
X28920Y39765D1*
X28969Y39861D1*
X83540Y41845D2*
X83588Y41942D1*
X83686Y42040D1*
X83783Y42088D1*
X83977D1*
X84075Y42040D1*
X84171Y41942D1*
X84221Y41845D1*
X84269Y41699D1*
Y41456D1*
X84221Y41311D1*
X84171Y41213D1*
X84075Y41116D1*
X83977Y41067D1*
X83783D1*
X83686Y41116D1*
X83588Y41213D1*
X83540Y41311D1*
X83226Y41892D2*
X83129Y41942D1*
X82983Y42087D1*
Y41067D1*
X82377Y42087D2*
X82523Y42038D1*
X82621Y41892D1*
X82669Y41650D1*
Y41504D1*
X82621Y41261D1*
X82523Y41115D1*
X82377Y41067D1*
X82280D1*
X82134Y41115D1*
X82038Y41261D1*
X81988Y41504D1*
Y41650D1*
X82038Y41892D1*
X82134Y42038D1*
X82280Y42087D1*
X82377D1*
X82038Y41892D2*
X82621Y41261D1*
X81675Y41892D2*
X81577Y41942D1*
X81431Y42087D1*
Y41067D1*
X84059Y39945D2*
X84107Y40042D1*
X84205Y40140D1*
X84301Y40188D1*
X84495D1*
X84593Y40140D1*
X84690Y40042D1*
X84739Y39945D1*
X84787Y39799D1*
Y39556D1*
X84739Y39411D1*
X84690Y39313D1*
X84593Y39216D1*
X84495Y39167D1*
X84301D1*
X84205Y39216D1*
X84107Y39313D1*
X84059Y39411D1*
X83745Y39992D2*
X83647Y40042D1*
X83501Y40187D1*
Y39167D1*
X82895Y40187D2*
X83041Y40138D1*
X83139Y39992D1*
X83187Y39750D1*
Y39604D1*
X83139Y39361D1*
X83041Y39215D1*
X82895Y39167D1*
X82799D1*
X82653Y39215D1*
X82556Y39361D1*
X82507Y39604D1*
Y39750D1*
X82556Y39992D1*
X82653Y40138D1*
X82799Y40187D1*
X82895D1*
X82556Y39992D2*
X83139Y39361D1*
X82144Y39944D2*
Y39992D1*
X82095Y40090D1*
X82047Y40138D1*
X81949Y40187D1*
X81755D1*
X81659Y40138D1*
X81610Y40090D1*
X81561Y39992D1*
Y39896D1*
X81610Y39798D1*
X81707Y39653D1*
X82193Y39167D1*
X81513D1*
X83559Y33045D2*
X83607Y33142D1*
X83705Y33240D1*
X83801Y33288D1*
X83995D1*
X84093Y33240D1*
X84190Y33142D1*
X84239Y33045D1*
X84287Y32899D1*
Y32656D1*
X84239Y32511D1*
X84190Y32413D1*
X84093Y32316D1*
X83995Y32267D1*
X83801D1*
X83705Y32316D1*
X83607Y32413D1*
X83559Y32511D1*
X83245Y33092D2*
X83147Y33142D1*
X83001Y33287D1*
Y32267D1*
X82395Y33287D2*
X82541Y33238D1*
X82639Y33092D1*
X82687Y32850D1*
Y32704D1*
X82639Y32461D1*
X82541Y32315D1*
X82395Y32267D1*
X82299D1*
X82153Y32315D1*
X82056Y32461D1*
X82007Y32704D1*
Y32850D1*
X82056Y33092D1*
X82153Y33238D1*
X82299Y33287D1*
X82395D1*
X82056Y33092D2*
X82639Y32461D1*
X81595Y33287D2*
X81062D1*
X81353Y32898D1*
X81207D1*
X81110Y32850D1*
X81062Y32802D1*
X81013Y32656D1*
Y32559D1*
X81062Y32413D1*
X81159Y32315D1*
X81305Y32267D1*
X81451D1*
X81595Y32315D1*
X81644Y32365D1*
X81693Y32461D1*
X83583Y30945D2*
X83631Y31042D1*
X83729Y31140D1*
X83825Y31188D1*
X84020D1*
X84117Y31140D1*
X84214Y31042D1*
X84263Y30945D1*
X84312Y30799D1*
Y30556D1*
X84263Y30411D1*
X84214Y30313D1*
X84117Y30216D1*
X84020Y30167D1*
X83825D1*
X83729Y30216D1*
X83631Y30313D1*
X83583Y30411D1*
X83269Y30992D2*
X83171Y31042D1*
X83025Y31187D1*
Y30167D1*
X82420Y31187D2*
X82566Y31138D1*
X82663Y30992D1*
X82712Y30750D1*
Y30604D1*
X82663Y30361D1*
X82566Y30215D1*
X82420Y30167D1*
X82323D1*
X82177Y30215D1*
X82080Y30361D1*
X82031Y30604D1*
Y30750D1*
X82080Y30992D1*
X82177Y31138D1*
X82323Y31187D1*
X82420D1*
X82080Y30992D2*
X82663Y30361D1*
X81231Y30167D2*
Y31187D1*
X81717Y30507D1*
X80988D1*
X56559Y39045D2*
X56607Y39142D1*
X56705Y39240D1*
X56801Y39288D1*
X56995D1*
X57093Y39240D1*
X57190Y39142D1*
X57239Y39045D1*
X57287Y38899D1*
Y38656D1*
X57239Y38511D1*
X57190Y38413D1*
X57093Y38316D1*
X56995Y38267D1*
X56801D1*
X56705Y38316D1*
X56607Y38413D1*
X56559Y38511D1*
X56245Y39092D2*
X56147Y39142D1*
X56001Y39287D1*
Y38267D1*
X55395Y39287D2*
X55541Y39238D1*
X55639Y39092D1*
X55687Y38850D1*
Y38704D1*
X55639Y38461D1*
X55541Y38315D1*
X55395Y38267D1*
X55299D1*
X55153Y38315D1*
X55056Y38461D1*
X55007Y38704D1*
Y38850D1*
X55056Y39092D1*
X55153Y39238D1*
X55299Y39287D1*
X55395D1*
X55056Y39092D2*
X55639Y38461D1*
X54110Y39287D2*
X54595D1*
X54644Y38850D1*
X54595Y38898D1*
X54449Y38948D1*
X54305D1*
X54159Y38898D1*
X54061Y38802D1*
X54013Y38656D1*
Y38559D1*
X54061Y38413D1*
X54159Y38315D1*
X54305Y38267D1*
X54449D1*
X54595Y38315D1*
X54644Y38365D1*
X54693Y38461D1*
X58834Y45845D2*
X58882Y45942D1*
X58980Y46040D1*
X59076Y46088D1*
X59271D1*
X59368Y46040D1*
X59465Y45942D1*
X59514Y45845D1*
X59563Y45699D1*
Y45456D1*
X59514Y45311D1*
X59465Y45213D1*
X59368Y45116D1*
X59271Y45067D1*
X59076D1*
X58980Y45116D1*
X58882Y45213D1*
X58834Y45311D1*
X58520Y45892D2*
X58422Y45942D1*
X58276Y46087D1*
Y45067D1*
X57671Y46087D2*
X57817Y46038D1*
X57914Y45892D1*
X57963Y45650D1*
Y45504D1*
X57914Y45261D1*
X57817Y45115D1*
X57671Y45067D1*
X57574D1*
X57428Y45115D1*
X57332Y45261D1*
X57282Y45504D1*
Y45650D1*
X57332Y45892D1*
X57428Y46038D1*
X57574Y46087D1*
X57671D1*
X57332Y45892D2*
X57914Y45261D1*
X56386Y45942D2*
X56434Y46038D1*
X56580Y46087D1*
X56676D1*
X56822Y46038D1*
X56920Y45892D1*
X56968Y45650D1*
Y45407D1*
X56920Y45213D1*
X56822Y45115D1*
X56676Y45067D1*
X56628D1*
X56483Y45115D1*
X56386Y45213D1*
X56337Y45359D1*
Y45407D1*
X56386Y45553D1*
X56483Y45650D1*
X56628Y45698D1*
X56676D1*
X56822Y45650D1*
X56920Y45553D1*
X56968Y45407D1*
X61459Y40595D2*
X61507Y40692D1*
X61605Y40790D1*
X61701Y40838D1*
X61895D1*
X61993Y40790D1*
X62090Y40692D1*
X62139Y40595D1*
X62187Y40449D1*
Y40206D1*
X62139Y40061D1*
X62090Y39963D1*
X61993Y39866D1*
X61895Y39817D1*
X61701D1*
X61605Y39866D1*
X61507Y39963D1*
X61459Y40061D1*
X61145Y40642D2*
X61047Y40692D1*
X60901Y40837D1*
Y39817D1*
X60295Y40837D2*
X60441Y40788D1*
X60539Y40642D1*
X60587Y40400D1*
Y40254D1*
X60539Y40011D1*
X60441Y39865D1*
X60295Y39817D1*
X60199D1*
X60053Y39865D1*
X59956Y40011D1*
X59907Y40254D1*
Y40400D1*
X59956Y40642D1*
X60053Y40788D1*
X60199Y40837D1*
X60295D1*
X59956Y40642D2*
X60539Y40011D1*
X59399Y39817D2*
X58913Y40837D1*
X59593D1*
X40558Y35945D2*
X40606Y36042D1*
X40704Y36140D1*
X40801Y36188D1*
X40995D1*
X41093Y36140D1*
X41189Y36042D1*
X41239Y35945D1*
X41287Y35799D1*
Y35556D1*
X41239Y35411D1*
X41189Y35313D1*
X41093Y35216D1*
X40995Y35167D1*
X40801D1*
X40704Y35216D1*
X40606Y35313D1*
X40558Y35411D1*
X40244Y35992D2*
X40147Y36042D1*
X40001Y36187D1*
Y35167D1*
X39395Y36187D2*
X39541Y36138D1*
X39639Y35992D1*
X39687Y35750D1*
Y35604D1*
X39639Y35361D1*
X39541Y35215D1*
X39395Y35167D1*
X39298D1*
X39152Y35215D1*
X39056Y35361D1*
X39006Y35604D1*
Y35750D1*
X39056Y35992D1*
X39152Y36138D1*
X39298Y36187D1*
X39395D1*
X39056Y35992D2*
X39639Y35361D1*
X38450Y36187D2*
X38595Y36138D1*
X38644Y36042D1*
Y35944D1*
X38595Y35848D1*
X38498Y35798D1*
X38304Y35750D1*
X38158Y35702D1*
X38061Y35604D1*
X38013Y35507D1*
Y35361D1*
X38061Y35265D1*
X38110Y35215D1*
X38256Y35167D1*
X38450D1*
X38595Y35215D1*
X38644Y35265D1*
X38693Y35361D1*
Y35507D1*
X38644Y35604D1*
X38547Y35702D1*
X38402Y35750D1*
X38207Y35798D1*
X38110Y35848D1*
X38061Y35944D1*
Y36042D1*
X38110Y36138D1*
X38256Y36187D1*
X38450D1*
X8784Y32395D2*
X8833Y32492D1*
X8930Y32590D1*
X9027Y32638D1*
X9221D1*
X9319Y32590D1*
X9416Y32492D1*
X9465Y32395D1*
X9513Y32249D1*
Y32006D1*
X9465Y31861D1*
X9416Y31763D1*
X9319Y31666D1*
X9221Y31617D1*
X9027D1*
X8930Y31666D1*
X8833Y31763D1*
X8784Y31861D1*
X8471Y32442D2*
X8373Y32492D1*
X8227Y32637D1*
Y31617D1*
X7621Y32637D2*
X7767Y32588D1*
X7865Y32442D1*
X7913Y32200D1*
Y32054D1*
X7865Y31811D1*
X7767Y31665D1*
X7621Y31617D1*
X7525D1*
X7379Y31665D1*
X7282Y31811D1*
X7233Y32054D1*
Y32200D1*
X7282Y32442D1*
X7379Y32588D1*
X7525Y32637D1*
X7621D1*
X7282Y32442D2*
X7865Y31811D1*
X6287Y32298D2*
X6336Y32152D1*
X6433Y32054D1*
X6579Y32006D1*
X6627D1*
X6773Y32054D1*
X6870Y32152D1*
X6919Y32298D1*
Y32346D1*
X6870Y32492D1*
X6773Y32588D1*
X6627Y32637D1*
X6579D1*
X6433Y32588D1*
X6336Y32492D1*
X6287Y32298D1*
Y32054D1*
X6336Y31811D1*
X6433Y31665D1*
X6579Y31617D1*
X6675D1*
X6821Y31665D1*
X6870Y31763D1*
X25955Y48590D2*
X25858Y48638D1*
X25760Y48736D1*
X25712Y48833D1*
Y49027D1*
X25760Y49125D1*
X25858Y49221D1*
X25955Y49271D1*
X26101Y49319D1*
X26344D1*
X26489Y49271D1*
X26587Y49221D1*
X26684Y49125D1*
X26733Y49027D1*
Y48833D1*
X26684Y48736D1*
X26587Y48638D1*
X26489Y48590D1*
X25908Y48276D2*
X25858Y48179D1*
X25713Y48033D1*
X26733D1*
X25908Y47719D2*
X25858Y47621D1*
X25713Y47475D1*
X26733D1*
X25713Y46870D2*
X25762Y47016D1*
X25908Y47113D1*
X26150Y47162D1*
X26296D1*
X26539Y47113D1*
X26685Y47016D1*
X26733Y46870D1*
Y46773D1*
X26685Y46627D1*
X26539Y46530D1*
X26296Y46481D1*
X26150D1*
X25908Y46530D1*
X25762Y46627D1*
X25713Y46773D1*
Y46870D1*
X25908Y46530D2*
X26539Y47113D1*
X26322Y80645D2*
X26370Y80742D1*
X26468Y80840D1*
X26564Y80888D1*
X26759D1*
X26856Y80840D1*
X26953Y80742D1*
X27002Y80645D1*
X27051Y80499D1*
Y80256D1*
X27002Y80111D1*
X26953Y80013D1*
X26856Y79916D1*
X26759Y79867D1*
X26564D1*
X26468Y79916D1*
X26370Y80013D1*
X26322Y80111D1*
X26008Y80692D2*
X25910Y80742D1*
X25764Y80887D1*
Y79867D1*
X25451Y80692D2*
X25353Y80742D1*
X25207Y80887D1*
Y79867D1*
X24893Y80692D2*
X24795Y80742D1*
X24649Y80887D1*
Y79867D1*
X26590Y78695D2*
X26638Y78792D1*
X26736Y78890D1*
X26833Y78938D1*
X27027D1*
X27125Y78890D1*
X27221Y78792D1*
X27271Y78695D1*
X27319Y78549D1*
Y78306D1*
X27271Y78161D1*
X27221Y78063D1*
X27125Y77966D1*
X27027Y77917D1*
X26833D1*
X26736Y77966D1*
X26638Y78063D1*
X26590Y78161D1*
X26276Y78742D2*
X26179Y78792D1*
X26033Y78937D1*
Y77917D1*
X25719Y78742D2*
X25621Y78792D1*
X25475Y78937D1*
Y77917D1*
X25112Y78694D2*
Y78742D1*
X25064Y78840D1*
X25016Y78888D1*
X24918Y78937D1*
X24724D1*
X24627Y78888D1*
X24579Y78840D1*
X24529Y78742D1*
Y78646D1*
X24579Y78548D1*
X24675Y78403D1*
X25162Y77917D1*
X24481D1*
X71790Y80445D2*
X71838Y80542D1*
X71936Y80640D1*
X72033Y80688D1*
X72227D1*
X72325Y80640D1*
X72421Y80542D1*
X72471Y80445D1*
X72519Y80299D1*
Y80056D1*
X72471Y79911D1*
X72421Y79813D1*
X72325Y79716D1*
X72227Y79667D1*
X72033D1*
X71936Y79716D1*
X71838Y79813D1*
X71790Y79911D1*
X71476Y80492D2*
X71379Y80542D1*
X71233Y80687D1*
Y79667D1*
X70919Y80492D2*
X70821Y80542D1*
X70675Y80687D1*
Y79667D1*
X70264Y80687D2*
X69730D1*
X70021Y80298D1*
X69875D1*
X69779Y80250D1*
X69730Y80202D1*
X69681Y80056D1*
Y79959D1*
X69730Y79813D1*
X69827Y79715D1*
X69973Y79667D1*
X70119D1*
X70264Y79715D1*
X70312Y79765D1*
X70362Y79861D1*
X71964Y78645D2*
X72013Y78742D1*
X72110Y78840D1*
X72207Y78888D1*
X72401D1*
X72499Y78840D1*
X72595Y78742D1*
X72645Y78645D1*
X72693Y78499D1*
Y78256D1*
X72645Y78111D1*
X72595Y78013D1*
X72499Y77916D1*
X72401Y77867D1*
X72207D1*
X72110Y77916D1*
X72013Y78013D1*
X71964Y78111D1*
X71651Y78692D2*
X71553Y78742D1*
X71407Y78887D1*
Y77867D1*
X71093Y78692D2*
X70995Y78742D1*
X70849Y78887D1*
Y77867D1*
X70049D2*
Y78887D1*
X70536Y78207D1*
X69807D1*
X10040Y80595D2*
X10088Y80692D1*
X10186Y80790D1*
X10283Y80838D1*
X10477D1*
X10575Y80790D1*
X10671Y80692D1*
X10721Y80595D1*
X10769Y80449D1*
Y80206D1*
X10721Y80061D1*
X10671Y79963D1*
X10575Y79866D1*
X10477Y79817D1*
X10283D1*
X10186Y79866D1*
X10088Y79963D1*
X10040Y80061D1*
X9726Y80642D2*
X9629Y80692D1*
X9483Y80837D1*
Y79817D1*
X9169Y80642D2*
X9071Y80692D1*
X8925Y80837D1*
Y79817D1*
X8029Y80837D2*
X8514D1*
X8562Y80400D1*
X8514Y80448D1*
X8368Y80498D1*
X8223D1*
X8077Y80448D1*
X7979Y80352D1*
X7931Y80206D1*
Y80109D1*
X7979Y79963D1*
X8077Y79865D1*
X8223Y79817D1*
X8368D1*
X8514Y79865D1*
X8562Y79915D1*
X8612Y80011D1*
X10015Y78595D2*
X10064Y78692D1*
X10161Y78790D1*
X10258Y78838D1*
X10452D1*
X10550Y78790D1*
X10647Y78692D1*
X10696Y78595D1*
X10744Y78449D1*
Y78206D1*
X10696Y78061D1*
X10647Y77963D1*
X10550Y77866D1*
X10452Y77817D1*
X10258D1*
X10161Y77866D1*
X10064Y77963D1*
X10015Y78061D1*
X9702Y78642D2*
X9604Y78692D1*
X9458Y78837D1*
Y77817D1*
X9144Y78642D2*
X9047Y78692D1*
X8901Y78837D1*
Y77817D1*
X8004Y78692D2*
X8052Y78788D1*
X8198Y78837D1*
X8295D1*
X8441Y78788D1*
X8539Y78642D1*
X8587Y78400D1*
Y78157D1*
X8539Y77963D1*
X8441Y77865D1*
X8295Y77817D1*
X8247D1*
X8102Y77865D1*
X8004Y77963D1*
X7956Y78109D1*
Y78157D1*
X8004Y78303D1*
X8102Y78400D1*
X8247Y78448D1*
X8295D1*
X8441Y78400D1*
X8539Y78303D1*
X8587Y78157D1*
X90040Y80395D2*
X90088Y80492D1*
X90186Y80590D1*
X90283Y80638D1*
X90477D1*
X90575Y80590D1*
X90671Y80492D1*
X90721Y80395D1*
X90769Y80249D1*
Y80006D1*
X90721Y79861D1*
X90671Y79763D1*
X90575Y79666D1*
X90477Y79617D1*
X90283D1*
X90186Y79666D1*
X90088Y79763D1*
X90040Y79861D1*
X89726Y80442D2*
X89629Y80492D1*
X89483Y80637D1*
Y79617D1*
X89169Y80442D2*
X89071Y80492D1*
X88925Y80637D1*
Y79617D1*
X88417D2*
X87931Y80637D1*
X88612D1*
X91190Y78445D2*
X91238Y78542D1*
X91336Y78640D1*
X91432Y78688D1*
X91626D1*
X91724Y78640D1*
X91821Y78542D1*
X91870Y78445D1*
X91918Y78299D1*
Y78056D1*
X91870Y77911D1*
X91821Y77813D1*
X91724Y77716D1*
X91626Y77667D1*
X91432D1*
X91336Y77716D1*
X91238Y77813D1*
X91190Y77911D1*
X90876Y78492D2*
X90778Y78542D1*
X90632Y78687D1*
Y77667D1*
X90318Y78492D2*
X90221Y78542D1*
X90075Y78687D1*
Y77667D1*
X89518Y78687D2*
X89663Y78638D1*
X89713Y78542D1*
Y78444D1*
X89663Y78348D1*
X89567Y78298D1*
X89372Y78250D1*
X89226Y78202D1*
X89130Y78104D1*
X89082Y78007D1*
Y77861D1*
X89130Y77765D1*
X89178Y77715D1*
X89324Y77667D1*
X89518D1*
X89663Y77715D1*
X89713Y77765D1*
X89761Y77861D1*
Y78007D1*
X89713Y78104D1*
X89615Y78202D1*
X89470Y78250D1*
X89276Y78298D1*
X89178Y78348D1*
X89130Y78444D1*
Y78542D1*
X89178Y78638D1*
X89324Y78687D1*
X89518D1*
X13890Y72701D2*
D104*
Y71169D1*
X12869Y72701D2*
X13890Y71680D1*
X13526Y72045D2*
X12869Y71169D1*
X12399Y72190D2*
Y71169D1*
Y71752D2*
X12325Y71971D1*
X12180Y72118D1*
X12033Y72190D1*
X11814D1*
X11344Y71752D2*
X10469D1*
Y71899D1*
X10542Y72045D1*
X10614Y72118D1*
X10761Y72190D1*
X10980D1*
X11125Y72118D1*
X11271Y71971D1*
X11344Y71752D1*
Y71607D1*
X11271Y71388D1*
X11125Y71244D1*
X10980Y71169D1*
X10761D1*
X10614Y71244D1*
X10469Y71388D1*
X9999Y72190D2*
Y71169D1*
Y71899D2*
X9780Y72118D1*
X9633Y72190D1*
X9416D1*
X9269Y72118D1*
X9197Y71899D1*
Y71169D1*
Y71899D2*
X8978Y72118D1*
X8831Y72190D1*
X8614D1*
X8468Y72118D1*
X8393Y71899D1*
Y71169D1*
X7923Y72190D2*
Y71169D1*
Y71899D2*
X7704Y72118D1*
X7557Y72190D1*
X7340D1*
X7193Y72118D1*
X7121Y71899D1*
Y71169D1*
Y71899D2*
X6902Y72118D1*
X6755Y72190D1*
X6538D1*
X6392Y72118D1*
X6317Y71899D1*
Y71169D1*
X5847Y71752D2*
X4972D1*
Y71899D1*
X5045Y72045D1*
X5117Y72118D1*
X5264Y72190D1*
X5483D1*
X5628Y72118D1*
X5774Y71971D1*
X5847Y71752D1*
Y71607D1*
X5774Y71388D1*
X5628Y71244D1*
X5483Y71169D1*
X5264D1*
X5117Y71244D1*
X4972Y71388D1*
X4502Y72190D2*
Y71169D1*
Y71899D2*
X4283Y72118D1*
X4136Y72190D1*
X3919D1*
X3772Y72118D1*
X3700Y71899D1*
Y71169D1*
X13866Y69935D2*
Y70008D1*
X13793Y70154D1*
X13721Y70227D1*
X13574Y70299D1*
X13283D1*
X13138Y70227D1*
X13066Y70154D1*
X12992Y70008D1*
Y69863D1*
X13066Y69716D1*
X13211Y69499D1*
X13940Y68769D1*
X12919D1*
X12011Y70299D2*
X12230Y70227D1*
X12376Y70008D1*
X12449Y69644D1*
Y69425D1*
X12376Y69061D1*
X12230Y68842D1*
X12011Y68769D1*
X11866D1*
X11647Y68842D1*
X11502Y69061D1*
X11428Y69425D1*
Y69644D1*
X11502Y70008D1*
X11647Y70227D1*
X11866Y70299D1*
X12011D1*
X11502Y70008D2*
X12376Y69061D1*
X10957Y70008D2*
X10810Y70082D1*
X10591Y70299D1*
Y68769D1*
X9247Y70299D2*
X9974D1*
X10047Y69644D1*
X9974Y69716D1*
X9755Y69790D1*
X9538D1*
X9319Y69716D1*
X9172Y69571D1*
X9100Y69352D1*
Y69207D1*
X9172Y68988D1*
X9319Y68842D1*
X9538Y68769D1*
X9755D1*
X9974Y68842D1*
X10047Y68916D1*
X10121Y69061D1*
X22771Y65701D2*
Y64169D1*
Y64899D2*
X22552Y65118D1*
X22405Y65190D1*
X22186D1*
X22041Y65118D1*
X21969Y64899D1*
Y64169D1*
X21498Y64752D2*
X20624D1*
Y64899D1*
X20696Y65045D1*
X20769Y65118D1*
X20915Y65190D1*
X21134D1*
X21279Y65118D1*
X21426Y64971D1*
X21498Y64752D1*
Y64607D1*
X21426Y64388D1*
X21279Y64244D1*
X21134Y64169D1*
X20915D1*
X20769Y64244D1*
X20624Y64388D1*
X20153Y65701D2*
Y64169D1*
X18881Y64971D2*
X18953Y65118D1*
X19172Y65190D1*
X19391D1*
X19610Y65118D1*
X19683Y64971D1*
X19610Y64826D1*
X19464Y64752D1*
X19100Y64680D1*
X18953Y64607D1*
X18881Y64461D1*
Y64388D1*
X18953Y64244D1*
X19172Y64169D1*
X19391D1*
X19610Y64244D1*
X19683Y64388D1*
X18410Y65701D2*
X18338Y65628D1*
X18264Y65701D1*
X18338Y65775D1*
X18410Y65701D1*
X18338Y65190D2*
Y64169D1*
X17793Y65190D2*
Y64169D1*
Y64899D2*
X17574Y65118D1*
X17428Y65190D1*
X17210D1*
X17064Y65118D1*
X16991Y64899D1*
Y64169D1*
X16521Y65701D2*
Y64169D1*
X15791Y65190D2*
X16521Y64461D1*
X16229Y64752D2*
X15719Y64169D1*
X15248Y65701D2*
X15176Y65628D1*
X15102Y65701D1*
X15176Y65775D1*
X15248Y65701D1*
X15176Y65190D2*
Y64169D1*
X14559Y64316D2*
X14631Y64242D1*
X14559Y64169D1*
X14485Y64242D1*
X14559Y64316D1*
X14014Y65701D2*
Y64169D1*
Y64899D2*
X13795Y65118D1*
X13648Y65190D1*
X13429D1*
X13285Y65118D1*
X13212Y64899D1*
Y64169D1*
X11867Y65190D2*
Y64169D1*
Y64971D2*
X12012Y65118D1*
X12159Y65190D1*
X12376D1*
X12523Y65118D1*
X12667Y64971D1*
X12742Y64752D1*
Y64607D1*
X12667Y64388D1*
X12523Y64244D1*
X12376Y64169D1*
X12159D1*
X12012Y64244D1*
X11867Y64388D1*
X10521Y64971D2*
X10667Y65118D1*
X10814Y65190D1*
X11031D1*
X11178Y65118D1*
X11323Y64971D1*
X11397Y64752D1*
Y64607D1*
X11323Y64388D1*
X11178Y64244D1*
X11031Y64169D1*
X10814D1*
X10667Y64244D1*
X10521Y64388D1*
X10050Y65701D2*
Y64169D1*
X9321Y65190D2*
X10050Y64461D1*
X9759Y64752D2*
X9248Y64169D1*
X8778Y65701D2*
Y64169D1*
X7433Y65190D2*
Y64169D1*
Y64971D2*
X7578Y65118D1*
X7724Y65190D1*
X7941D1*
X8088Y65118D1*
X8233Y64971D1*
X8307Y64752D1*
Y64607D1*
X8233Y64388D1*
X8088Y64244D1*
X7941Y64169D1*
X7724D1*
X7578Y64244D1*
X7433Y64388D1*
X6962Y65701D2*
Y64169D1*
Y64971D2*
X6816Y65118D1*
X6671Y65190D1*
X6452D1*
X6307Y65118D1*
X6160Y64971D1*
X6088Y64752D1*
Y64607D1*
X6160Y64388D1*
X6307Y64244D1*
X6452Y64169D1*
X6671D1*
X6816Y64244D1*
X6962Y64388D1*
X5545Y64316D2*
X5617Y64242D1*
X5545Y64169D1*
X5471Y64242D1*
X5545Y64316D1*
X4417Y65701D2*
X4562D1*
X4709Y65628D1*
X4781Y65409D1*
Y64169D1*
X5000Y65190D2*
X4490D1*
X3947Y65701D2*
X3874Y65628D1*
X3800Y65701D1*
X3874Y65775D1*
X3947Y65701D1*
X3874Y65190D2*
Y64169D1*
X33946Y50852D2*
D103*
X33265Y51872D1*
X32952Y51873D2*
Y50852D1*
X32271Y51873D2*
Y50852D1*
X32952Y51387D2*
X32271D1*
X31957Y51241D2*
X31374D1*
Y51338D1*
X31423Y51436D1*
X31471Y51484D1*
X31569Y51533D1*
X31715D1*
X31811Y51484D1*
X31909Y51387D1*
X31957Y51241D1*
Y51144D1*
X31909Y50998D1*
X31811Y50902D1*
X31715Y50852D1*
X31569D1*
X31471Y50902D1*
X31374Y50998D1*
X31061Y51873D2*
Y50852D1*
X30212Y51387D2*
X30261Y51484D1*
X30407Y51533D1*
X30553D1*
X30699Y51484D1*
X30747Y51387D1*
X30699Y51290D1*
X30601Y51241D1*
X30358Y51192D1*
X30261Y51144D1*
X30212Y51046D1*
Y50998D1*
X30261Y50902D1*
X30407Y50852D1*
X30553D1*
X30699Y50902D1*
X30747Y50998D1*
X29899Y51873D2*
X29850Y51825D1*
X29801Y51873D1*
X29850Y51922D1*
X29899Y51873D1*
X29850Y51533D2*
Y50852D1*
X29487Y51533D2*
Y50852D1*
Y51338D2*
X29341Y51484D1*
X29243Y51533D1*
X29099D1*
X29001Y51484D1*
X28953Y51338D1*
Y50852D1*
X28639Y51873D2*
Y50852D1*
X28153Y51533D2*
X28639Y51046D1*
X28445Y51241D2*
X28104Y50852D1*
X27791Y51873D2*
X27742Y51825D1*
X27693Y51873D1*
X27742Y51922D1*
X27791Y51873D1*
X27742Y51533D2*
Y50852D1*
X27379Y51873D2*
Y50852D1*
X26698Y51873D2*
Y50852D1*
X27379Y51387D2*
X26698D1*
X25802Y51533D2*
Y50852D1*
Y51387D2*
X25898Y51484D1*
X25996Y51533D1*
X26141D1*
X26239Y51484D1*
X26335Y51387D1*
X26385Y51241D1*
Y51144D1*
X26335Y50998D1*
X26239Y50902D1*
X26141Y50852D1*
X25996D1*
X25898Y50902D1*
X25802Y50998D1*
X24904Y51387D2*
X25002Y51484D1*
X25100Y51533D1*
X25244D1*
X25342Y51484D1*
X25439Y51387D1*
X25488Y51241D1*
Y51144D1*
X25439Y50998D1*
X25342Y50902D1*
X25244Y50852D1*
X25100D1*
X25002Y50902D1*
X24904Y50998D1*
X24590Y51873D2*
Y50852D1*
X24104Y51533D2*
X24590Y51046D1*
X24396Y51241D2*
X24056Y50852D1*
X23742Y51873D2*
Y50852D1*
X22846Y51533D2*
Y50852D1*
Y51387D2*
X22942Y51484D1*
X23040Y51533D1*
X23185D1*
X23282Y51484D1*
X23379Y51387D1*
X23428Y51241D1*
Y51144D1*
X23379Y50998D1*
X23282Y50902D1*
X23185Y50852D1*
X23040D1*
X22942Y50902D1*
X22846Y50998D1*
X22532Y51873D2*
Y50852D1*
Y51387D2*
X22434Y51484D1*
X22338Y51533D1*
X22192D1*
X22095Y51484D1*
X21997Y51387D1*
X21949Y51241D1*
Y51144D1*
X21997Y50998D1*
X22095Y50902D1*
X22192Y50852D1*
X22338D1*
X22434Y50902D1*
X22532Y50998D1*
X21635Y50852D2*
X20955Y51872D1*
X19912Y51630D2*
X19960Y51727D1*
X20058Y51825D1*
X20155Y51873D1*
X20349D1*
X20447Y51825D1*
X20543Y51727D1*
X20593Y51630D1*
X20641Y51484D1*
Y51241D1*
X20593Y51096D1*
X20543Y50998D1*
X20447Y50902D1*
X20349Y50852D1*
X20155D1*
X20058Y50902D1*
X19960Y50998D1*
X19912Y51096D1*
X19598Y51338D2*
X19160D1*
X19015Y51387D1*
X18966Y51436D1*
X18918Y51533D1*
Y51679D1*
X18966Y51775D1*
X19015Y51825D1*
X19160Y51873D1*
X19598D1*
Y50852D1*
X18604Y51873D2*
Y50852D1*
X18021D1*
X17707Y51873D2*
Y50852D1*
X17367D1*
X17221Y50902D1*
X17123Y50998D1*
X17075Y51096D1*
X17027Y51241D1*
Y51484D1*
X17075Y51630D1*
X17123Y51727D1*
X17221Y51825D1*
X17367Y51873D1*
X17707D1*
X16713Y50684D2*
X15790D1*
X15476Y51533D2*
Y50512D1*
Y51387D2*
X15378Y51483D1*
X15282Y51533D1*
X15136D1*
X15038Y51483D1*
X14942Y51387D1*
X14892Y51241D1*
Y51143D1*
X14942Y50998D1*
X15038Y50900D1*
X15136Y50852D1*
X15282D1*
X15378Y50900D1*
X15476Y50998D1*
X14578Y51533D2*
Y50852D1*
Y51241D2*
X14529Y51387D1*
X14432Y51484D1*
X14335Y51533D1*
X14189D1*
X13632D2*
X13729Y51484D1*
X13827Y51387D1*
X13875Y51241D1*
Y51144D1*
X13827Y50998D1*
X13729Y50902D1*
X13632Y50852D1*
X13486D1*
X13389Y50902D1*
X13292Y50998D1*
X13243Y51144D1*
Y51241D1*
X13292Y51387D1*
X13389Y51484D1*
X13486Y51533D1*
X13632D1*
X12783Y51873D2*
Y51046D1*
X12735Y50902D1*
X12637Y50852D1*
X12540D1*
X12929Y51533D2*
X12589D1*
X11984D2*
X12081Y51484D1*
X12178Y51387D1*
X12227Y51241D1*
Y51144D1*
X12178Y50998D1*
X12081Y50902D1*
X11984Y50852D1*
X11838D1*
X11740Y50902D1*
X11644Y50998D1*
X11594Y51144D1*
Y51241D1*
X11644Y51387D1*
X11740Y51484D1*
X11838Y51533D1*
X11984D1*
X11281Y51873D2*
Y50852D1*
Y51387D2*
X11183Y51484D1*
X11086Y51533D1*
X10940D1*
X10844Y51484D1*
X10746Y51387D1*
X10698Y51241D1*
Y51144D1*
X10746Y50998D1*
X10844Y50902D1*
X10940Y50852D1*
X11086D1*
X11183Y50902D1*
X11281Y50998D1*
X10141Y51533D2*
X10238Y51484D1*
X10336Y51387D1*
X10384Y51241D1*
Y51144D1*
X10336Y50998D1*
X10238Y50902D1*
X10141Y50852D1*
X9995D1*
X9898Y50902D1*
X9801Y50998D1*
X9752Y51144D1*
Y51241D1*
X9801Y51387D1*
X9898Y51484D1*
X9995Y51533D1*
X10141D1*
X8855D2*
Y50852D1*
Y51387D2*
X8952Y51484D1*
X9049Y51533D1*
X9194D1*
X9292Y51484D1*
X9389Y51387D1*
X9438Y51241D1*
Y51144D1*
X9389Y50998D1*
X9292Y50902D1*
X9194Y50852D1*
X9049D1*
X8952Y50902D1*
X8855Y50998D1*
X8541Y51533D2*
Y50852D1*
Y51241D2*
X8492Y51387D1*
X8395Y51484D1*
X8298Y51533D1*
X8152D1*
X7255Y51873D2*
Y50852D1*
Y51387D2*
X7352Y51484D1*
X7449Y51533D1*
X7595D1*
X7692Y51484D1*
X7790Y51387D1*
X7838Y51241D1*
Y51144D1*
X7790Y50998D1*
X7692Y50902D1*
X7595Y50852D1*
X7449D1*
X7352Y50902D1*
X7255Y50998D1*
X6941Y50684D2*
X6018D1*
X5705Y51678D2*
X5607Y51727D1*
X5461Y51872D1*
Y50852D1*
X41507Y51584D2*
Y50806D1*
X41555Y50661D1*
X41604Y50612D1*
X41701Y50564D1*
X41847D1*
X41944Y50612D1*
X41507Y51438D2*
X41604Y51535D1*
X41701Y51584D1*
X41847D1*
X41944Y51535D1*
X42042Y51438D1*
X42090Y51292D1*
Y51195D1*
X42042Y51050D1*
X41944Y50952D1*
X41847Y50904D1*
X41701D1*
X41604Y50952D1*
X41507Y51050D1*
X41193Y51973D2*
X41145Y51925D1*
X41096Y51973D1*
X41145Y52022D1*
X41193Y51973D1*
X41145Y51633D2*
Y50952D1*
X40636Y51973D2*
Y51146D1*
X40588Y51002D1*
X40490Y50952D1*
X40393D1*
X40782Y51633D2*
X40442D1*
X40079Y51973D2*
Y50952D1*
Y51438D2*
X39933Y51584D1*
X39836Y51633D1*
X39690D1*
X39593Y51584D1*
X39545Y51438D1*
Y50952D1*
X39231Y51633D2*
Y51146D1*
X39183Y51002D1*
X39085Y50952D1*
X38939D1*
X38843Y51002D1*
X38697Y51146D1*
Y51633D2*
Y50952D1*
X38383Y51973D2*
Y50952D1*
Y51487D2*
X38285Y51584D1*
X38189Y51633D1*
X38043D1*
X37946Y51584D1*
X37848Y51487D1*
X37800Y51341D1*
Y51244D1*
X37848Y51098D1*
X37946Y51002D1*
X38043Y50952D1*
X38189D1*
X38285Y51002D1*
X38383Y51098D1*
X37438Y51050D2*
X37486Y51000D1*
X37438Y50952D1*
X37389Y51000D1*
X37438Y51050D1*
X36491Y51487D2*
X36589Y51584D1*
X36686Y51633D1*
X36831D1*
X36929Y51584D1*
X37025Y51487D1*
X37075Y51341D1*
Y51244D1*
X37025Y51098D1*
X36929Y51002D1*
X36831Y50952D1*
X36686D1*
X36589Y51002D1*
X36491Y51098D1*
X35935Y51633D2*
X36031Y51584D1*
X36129Y51487D1*
X36177Y51341D1*
Y51244D1*
X36129Y51098D1*
X36031Y51002D1*
X35935Y50952D1*
X35789D1*
X35691Y51002D1*
X35594Y51098D1*
X35545Y51244D1*
Y51341D1*
X35594Y51487D1*
X35691Y51584D1*
X35789Y51633D1*
X35935D1*
X35231D2*
Y50952D1*
Y51438D2*
X35085Y51584D1*
X34987Y51633D1*
X34843D1*
X34745Y51584D1*
X34697Y51438D1*
Y50952D1*
Y51438D2*
X34551Y51584D1*
X34453Y51633D1*
X34308D1*
X34210Y51584D1*
X34161Y51438D1*
Y50952D1*
M02*
