G04 DipTrace 2.4.0.2*
%INProtolautav2.3.4.GTP*%
%MOMM*%
%ADD55C,0.505*%
%ADD57R,1.8X1.6*%
%ADD59R,2.1X0.3*%
%ADD61R,2.3X1.8*%
%ADD63R,1.6X1.8*%
%ADD69R,1.5X0.5*%
%ADD71R,0.4X1.5*%
%ADD73R,2.0X0.8*%
%ADD75R,2.0X3.1*%
%ADD77R,0.25X1.5*%
%ADD79R,1.5X0.25*%
%ADD83R,0.45X0.8*%
%ADD85R,0.8X0.45*%
%ADD87R,0.3X1.2*%
%ADD90R,0.7X1.3*%
%ADD92R,1.5X1.0*%
%ADD94R,0.1X0.9*%
%ADD96R,1.0X1.6*%
%ADD97R,0.9X1.2*%
%ADD99R,1.2X0.9*%
%FSLAX53Y53*%
G04*
G71*
G90*
G75*
G01*
%LNTopPaste*%
%LPD*%
D55*
X87000Y44000D3*
Y38000D3*
X79000D3*
Y44000D3*
X83000Y43500D3*
Y38500D3*
X86000Y41000D3*
X79000D3*
Y35000D3*
X83000Y34500D3*
X87000Y35000D3*
X86000Y32000D3*
X87000Y29000D3*
X83000Y29500D3*
X79000Y29000D3*
Y32000D3*
X8950Y60800D3*
X42805Y50620D3*
X51850Y42550D3*
X64550Y30700D3*
X63150Y39700D3*
X22250Y37500D3*
X30800Y33200D3*
X26450Y31800D3*
X16400Y26500D3*
X4550Y24900D3*
X69300Y26600D3*
X24800Y47300D3*
X3000Y30300D3*
X6500Y32800D3*
X56900Y41650D3*
X54650Y40600D3*
X56900Y45400D3*
X26650Y35900D3*
X98000Y34000D3*
X92000Y2000D3*
X98000Y8000D3*
X26650Y39700D3*
X37250Y47400D3*
X47400Y54450D3*
X56600Y55250D3*
X33650Y69600D3*
X19450Y77050D3*
X94950Y58550D3*
X92450Y55900D3*
X97300Y56000D3*
X95000Y53400D3*
X77900Y47000D3*
X92850Y80100D3*
X40800Y77100D3*
X51450Y66300D3*
X44250Y41250D3*
X30000Y43300D3*
X96100Y88200D3*
X1800Y71400D3*
X59550Y93350D3*
D97*
X67900Y30200D3*
X66200D3*
X67900Y37400D3*
X66200D3*
D96*
X13200Y28200D3*
X16100D3*
D97*
X13800Y25500D3*
X15500D3*
D94*
X73400Y40900D3*
X72060D3*
X72730Y38700D3*
X73370Y31870D3*
X72030D3*
X72700Y29670D3*
D92*
X5600Y38000D3*
Y35100D3*
X6000Y62000D3*
Y64900D3*
X10000Y62000D3*
Y64900D3*
X14000Y62000D3*
Y64900D3*
X18000Y62000D3*
Y64900D3*
X22000Y62000D3*
Y64900D3*
X26000Y62000D3*
Y64900D3*
X30000Y62000D3*
Y64900D3*
X34000Y62000D3*
Y64900D3*
X66000Y62000D3*
Y64900D3*
X70000Y62000D3*
Y64900D3*
X74000Y62000D3*
Y64900D3*
X78000Y62000D3*
Y64900D3*
X82000Y62000D3*
Y64900D3*
X86000Y62000D3*
Y64900D3*
X90000Y62000D3*
Y64900D3*
X94000Y62000D3*
Y64900D3*
D90*
X50750Y60000D3*
X49250D3*
Y56900D3*
X50750D3*
D87*
X26955Y51145D3*
X27905D3*
X28855D3*
Y53645D3*
X27905D3*
X26955D3*
X6900Y56800D3*
X7850D3*
X8800D3*
Y59300D3*
X7850D3*
X6900D3*
X15000Y56800D3*
X15950D3*
X16900D3*
Y59300D3*
X15950D3*
X15000D3*
X23100Y56800D3*
X24050D3*
X25000D3*
Y59300D3*
X24050D3*
X23100D3*
X31200Y56800D3*
X32150D3*
X33100D3*
Y59300D3*
X32150D3*
X31200D3*
X78250Y54300D3*
X79200D3*
X80150D3*
Y56800D3*
X79200D3*
X78250D3*
X74900Y54300D3*
X75850D3*
X76800D3*
Y56800D3*
X75850D3*
X74900D3*
X71550Y54300D3*
X72500D3*
X73450D3*
Y56800D3*
X72500D3*
X71550D3*
X68250Y54300D3*
X69200D3*
X70150D3*
Y56800D3*
X69200D3*
X68250D3*
X45100D3*
X46050D3*
X47000D3*
Y59300D3*
X46050D3*
X45100D3*
X53450Y57000D3*
X54400D3*
X55350D3*
Y59500D3*
X54400D3*
X53450D3*
D85*
X66100Y35600D3*
Y34330D3*
Y33060D3*
Y31790D3*
X68100D3*
Y33060D3*
Y34330D3*
Y35600D3*
D97*
X66200Y28400D3*
X68000D3*
D83*
X39055Y27000D3*
X40325D3*
X41595D3*
X42865D3*
X44135D3*
X45405D3*
X46675D3*
X47945D3*
Y29000D3*
X46675D3*
X45405D3*
X44135D3*
X42865D3*
X41595D3*
X40325D3*
X39055D3*
X52055Y27000D3*
X53325D3*
X54595D3*
X55865D3*
X57135D3*
X58405D3*
X59675D3*
X60945D3*
Y29000D3*
X59675D3*
X58405D3*
X57135D3*
X55865D3*
X54595D3*
X53325D3*
X52055D3*
X21500Y48650D3*
X22770D3*
X24040D3*
X25310D3*
Y50650D3*
X24040D3*
X22770D3*
X21500D3*
X30700Y48100D3*
X31970D3*
X33240D3*
X34510D3*
Y50100D3*
X33240D3*
X31970D3*
X30700D3*
D97*
X15600Y32700D3*
X13800D3*
X15600Y30600D3*
X13800D3*
D99*
X2750Y37450D3*
Y35650D3*
D83*
X24445Y72000D3*
X23175D3*
X21905D3*
X20635D3*
X19365D3*
X18095D3*
X16825D3*
X15555D3*
Y70000D3*
X16825D3*
X18095D3*
X19365D3*
X20635D3*
X21905D3*
X23175D3*
X24445D3*
X84445Y72000D3*
X83175D3*
X81905D3*
X80635D3*
X79365D3*
X78095D3*
X76825D3*
X75555D3*
Y70000D3*
X76825D3*
X78095D3*
X79365D3*
X80635D3*
X81905D3*
X83175D3*
X84445D3*
D85*
X45800Y43000D3*
Y44270D3*
Y45540D3*
Y46810D3*
Y48080D3*
Y49350D3*
Y50620D3*
Y51890D3*
X43800D3*
Y50620D3*
Y49350D3*
Y48080D3*
Y46810D3*
Y45540D3*
Y44270D3*
Y43000D3*
D83*
X74000Y72000D3*
X72730D3*
X71460D3*
X70190D3*
X68920D3*
X67650D3*
X66380D3*
X65110D3*
Y70000D3*
X66380D3*
X67650D3*
X68920D3*
X70190D3*
X71460D3*
X72730D3*
X74000D3*
D85*
X41800Y43000D3*
Y44270D3*
Y45540D3*
Y46810D3*
Y48080D3*
Y49350D3*
Y50620D3*
Y51890D3*
X39800D3*
Y50620D3*
Y49350D3*
Y48080D3*
Y46810D3*
Y45540D3*
Y44270D3*
Y43000D3*
X65200Y51700D3*
Y50430D3*
Y49160D3*
Y47890D3*
Y46620D3*
Y45350D3*
Y44080D3*
Y42810D3*
X67200D3*
Y44080D3*
Y45350D3*
Y46620D3*
Y47890D3*
Y49160D3*
Y50430D3*
Y51700D3*
D99*
X48000Y62400D3*
Y64200D3*
X50000Y62700D3*
Y64500D3*
X52100Y62600D3*
Y64400D3*
D83*
X57400Y57100D3*
X58670D3*
X59940D3*
X61210D3*
Y59100D3*
X59940D3*
X58670D3*
X57400D3*
D85*
X69200Y51700D3*
Y50430D3*
Y49160D3*
Y47890D3*
Y46620D3*
Y45350D3*
Y44080D3*
Y42810D3*
X71200D3*
Y44080D3*
Y45350D3*
Y46620D3*
Y47890D3*
Y49160D3*
Y50430D3*
Y51700D3*
D83*
X57395Y61605D3*
X58665D3*
X59935D3*
X61205D3*
Y63605D3*
X59935D3*
X58665D3*
X57395D3*
D79*
X21000Y39900D3*
Y39100D3*
Y38300D3*
Y37500D3*
Y36700D3*
Y35900D3*
Y35100D3*
Y34300D3*
Y33500D3*
Y32700D3*
Y31900D3*
D77*
X22700Y30200D3*
X23500D3*
X24300D3*
X25100D3*
X25900D3*
X26700D3*
X27500D3*
X28300D3*
X29100D3*
X29900D3*
X30700D3*
D79*
X32400Y31900D3*
Y32700D3*
Y33500D3*
Y34300D3*
Y35100D3*
Y35900D3*
Y36700D3*
Y37500D3*
Y38300D3*
Y39100D3*
Y39900D3*
D77*
X30700Y41600D3*
X29900D3*
X29100D3*
X28300D3*
X27500D3*
X26700D3*
X25900D3*
X25100D3*
X24300D3*
X23500D3*
X22700D3*
D87*
X26955Y46145D3*
X27905D3*
X28855D3*
Y48645D3*
X27905D3*
X26955D3*
D75*
X82000Y41000D3*
D73*
X76100Y43300D3*
Y41000D3*
Y38700D3*
D75*
X82000Y32000D3*
D73*
X76100Y34300D3*
Y32000D3*
Y29700D3*
D79*
X49700Y45400D3*
Y44600D3*
Y43800D3*
Y43000D3*
Y42200D3*
Y41400D3*
Y40600D3*
Y39800D3*
Y39000D3*
Y38200D3*
Y37400D3*
D77*
X51400Y35700D3*
X52200D3*
X53000D3*
X53800D3*
X54600D3*
X55400D3*
X56200D3*
X57000D3*
X57800D3*
X58600D3*
X59400D3*
D79*
X61100Y37400D3*
Y38200D3*
Y39000D3*
Y39800D3*
Y40600D3*
Y41400D3*
Y42200D3*
Y43000D3*
Y43800D3*
Y44600D3*
Y45400D3*
D77*
X59400Y47100D3*
X58600D3*
X57800D3*
X57000D3*
X56200D3*
X55400D3*
X54600D3*
X53800D3*
X53000D3*
X52200D3*
X51400D3*
D71*
X4230Y74550D3*
X5500D3*
X6770D3*
X8040D3*
X9310D3*
X10580D3*
X11850D3*
X13120D3*
X14390D3*
X15660D3*
X16930D3*
X18200D3*
Y85350D3*
X16930D3*
X15660D3*
X14390D3*
X13120D3*
X11850D3*
X10580D3*
X9310D3*
X8040D3*
X6770D3*
X5500D3*
X4230D3*
X82230Y74550D3*
X83500D3*
X84770D3*
X86040D3*
X87310D3*
X88580D3*
X89850D3*
X91120D3*
X92390D3*
X93660D3*
X94930D3*
X96200D3*
Y85350D3*
X94930D3*
X93660D3*
X92390D3*
X91120D3*
X89850D3*
X88580D3*
X87310D3*
X86040D3*
X84770D3*
X83500D3*
X82230D3*
X20730Y74550D3*
X22000D3*
X23270D3*
X24540D3*
X25810D3*
X27080D3*
X28350D3*
X29620D3*
X30890D3*
X32160D3*
X33430D3*
X34700D3*
Y85350D3*
X33430D3*
X32160D3*
X30890D3*
X29620D3*
X28350D3*
X27080D3*
X25810D3*
X24540D3*
X23270D3*
X22000D3*
X20730D3*
X65730Y74550D3*
X67000D3*
X68270D3*
X69540D3*
X70810D3*
X72080D3*
X73350D3*
X74620D3*
X75890D3*
X77160D3*
X78430D3*
X79700D3*
Y85350D3*
X78430D3*
X77160D3*
X75890D3*
X74620D3*
X73350D3*
X72080D3*
X70810D3*
X69540D3*
X68270D3*
X67000D3*
X65730D3*
D69*
X4700Y31000D3*
Y29730D3*
Y28460D3*
Y27190D3*
X10600D3*
Y28460D3*
Y29730D3*
Y31000D3*
D63*
X95000Y56000D3*
X89000D3*
Y44000D3*
X95000D3*
D61*
X97700Y29900D3*
Y38800D3*
D59*
X92100Y34350D3*
Y33550D3*
Y32750D3*
Y35150D3*
Y35950D3*
D61*
X92200Y38800D3*
Y29900D3*
D57*
X43200Y33850D3*
Y38930D3*
X39200D3*
Y33850D3*
M02*
