G04 DipTrace 2.4.0.2*
%INProtolautav2.3.4.GBS*%
%MOMM*%
%ADD17R,1.7X1.7*%
%ADD18C,1.7*%
%ADD26C,2.0*%
%ADD47C,3.0*%
%ADD48C,2.7*%
%ADD49C,2.2*%
%ADD50C,1.8*%
%ADD51C,0.9*%
%ADD54C,0.905*%
%ADD64O,1.7X2.0*%
%ADD66R,1.7X2.0*%
%ADD67R,1.3X1.6*%
%ADD80O,3.2X2.2*%
%ADD98R,1.6X1.3*%
%ADD101C,1.9*%
%ADD102R,1.9X1.9*%
%FSLAX53Y53*%
G04*
G71*
G90*
G75*
G01*
%LNBotMask*%
%LPD*%
D54*
X64355Y42810D3*
X64335Y44080D3*
X64355Y45350D3*
Y46620D3*
X88580Y73420D3*
X57400Y33250D3*
X89350Y87050D3*
X64355Y51700D3*
Y47890D3*
X90000Y71000D3*
X62600Y34900D3*
X91120Y69900D3*
X64155Y40400D3*
X92390Y68700D3*
X68400Y41400D3*
X64315Y49200D3*
X39150Y40750D3*
X21050Y40800D3*
X45150Y40500D3*
X49650Y46400D3*
X39150Y40750D3*
X51700Y75700D3*
X86300Y76850D3*
X64355Y50430D3*
X6100Y55550D3*
X42805Y55950D3*
Y51890D3*
X41800Y54950D3*
X6700Y54750D3*
X14450Y54250D3*
X43650Y54200D3*
X42805Y49350D3*
X14850Y53250D3*
X41150Y53400D3*
X42805Y48080D3*
X22000Y52550D3*
X44650Y53150D3*
X42805Y46810D3*
X26000Y56600D3*
X40300Y56500D3*
X42805Y45540D3*
X29800Y57450D3*
X39300D3*
X42805Y44270D3*
X34450Y58250D3*
X38250D3*
X42805Y43000D3*
X25300Y71950D3*
X24000Y54800D3*
X26955D3*
X48950Y72750D3*
X25300Y71950D3*
X52750Y73550D3*
X28850Y71650D3*
Y54850D3*
X76850Y73000D3*
X52750Y73550D3*
X26045Y46145D3*
X28900Y49900D3*
X54600Y33750D3*
X29635Y46235D3*
X57000Y66500D3*
X93700Y67100D3*
X83000Y80200D3*
X4250D3*
X65700D3*
X37500D3*
X20800D3*
X83000D3*
X4250D3*
X20800D3*
X65700D3*
X83000D3*
X47200Y32650D3*
X17250Y31800D3*
X13950Y48700D3*
X17250Y31800D3*
X45650D3*
X33750Y32700D3*
X17100Y33700D3*
X14850Y47850D3*
X63550Y35750D3*
X19350Y33500D3*
X46400D3*
X17900Y32700D3*
X56600Y56600D3*
X59400Y34300D3*
X42550Y58750D3*
X45350Y87350D3*
X56600Y56600D3*
X61210Y56110D3*
X58600Y32700D3*
X43775Y58775D3*
X48050Y75550D3*
X61210Y56110D3*
X59900Y56150D3*
X57800Y34200D3*
X60750Y67300D3*
X46350Y66950D3*
X59900Y56150D3*
X46800Y51850D3*
X46665Y50620D3*
X46715Y49350D3*
X46695Y48080D3*
X37250Y73600D3*
X46725Y46810D3*
X46705Y45540D3*
X46615Y44270D3*
Y43000D3*
X33750Y40400D3*
X34800Y20450D3*
X55350Y81400D3*
X42650D3*
X67650Y73000D3*
X56250Y73100D3*
X68920Y73000D3*
X50200Y72750D3*
X70190Y73000D3*
X71460D3*
X72730D3*
X60150Y73750D3*
X74000Y73000D3*
X57850Y74150D3*
X42865Y26100D3*
X45405D3*
X48250Y10350D3*
D3*
X46675Y26100D3*
X49250Y10900D3*
D3*
X47945Y26100D3*
X50000Y11550D3*
D3*
X80150Y57880D3*
X74000Y69050D3*
X78250Y57880D3*
X72730Y69050D3*
X76800Y57880D3*
X71460Y69050D3*
X74900Y57880D3*
X70190Y69050D3*
X73450Y57880D3*
X68920Y69050D3*
X71550Y57880D3*
X67650Y69050D3*
X70150Y57880D3*
X66380Y69050D3*
X68250Y57880D3*
X65110Y69050D3*
X80150Y53180D3*
X68205Y42810D3*
X35650Y19450D3*
X32450Y40600D3*
X34650Y39550D3*
X34200Y21350D3*
X51700Y24900D3*
X51850Y16800D3*
X34250Y29000D3*
X35700Y43200D3*
X51700Y24900D3*
X51300Y25900D3*
X51150Y16000D3*
X35600Y27050D3*
X36450Y44050D3*
X51300Y25900D3*
X40300Y30250D3*
X59675Y26120D3*
X39050Y30300D3*
X60945Y26090D3*
X51250Y26950D3*
X50500Y15050D3*
X35700Y28100D3*
X37100Y44850D3*
X51250Y26950D3*
X68350Y62100D3*
X64550Y62050D3*
X6800Y60800D3*
X41595Y26100D3*
X42000Y9700D3*
X40325Y26100D3*
X41350Y10450D3*
X72500Y62150D3*
X14800Y60800D3*
X76550Y62050D3*
X17100Y60800D3*
X80550Y62050D3*
X23100Y60900D3*
X84650Y62150D3*
X25000Y60838D3*
X88650Y62150D3*
X30950Y60800D3*
X92550Y61950D3*
X33100Y60751D3*
X78250Y53180D3*
X68205Y44080D3*
X76800Y53180D3*
X68205Y45350D3*
X74900Y53180D3*
X68205Y46620D3*
X73450Y53180D3*
X68205Y47890D3*
X71550Y53180D3*
X68205Y49160D3*
X70150Y53180D3*
X68205Y50430D3*
X44135Y26100D3*
X43850Y9900D3*
D3*
X39055Y26100D3*
X40800Y11300D3*
X53400Y61250D3*
Y56000D3*
X57400Y60378D3*
X46050Y62200D3*
X44900Y55600D3*
X61210Y60401D3*
X46050Y60850D3*
X47200Y55550D3*
X59940Y60420D3*
X17675Y35925D3*
X23270Y73300D3*
X18850Y35900D3*
X24540Y73300D3*
X19350Y35100D3*
X25810Y73300D3*
X18700Y34300D3*
X27080Y73300D3*
X22700Y28950D3*
X28350Y73300D3*
X23450Y28350D3*
X29620Y73300D3*
X24250Y29000D3*
X30890Y73300D3*
X25500Y28400D3*
X32160Y73300D3*
X68270Y76200D3*
X47800Y42050D3*
X69540Y76050D3*
X47150Y41200D3*
X70810Y76050D3*
X47800Y40450D3*
X72080Y76050D3*
X47150Y39600D3*
X73350Y76050D3*
X51350Y33950D3*
X74620Y76050D3*
X52200Y33250D3*
X75890Y76050D3*
X53000Y33850D3*
X77160Y76050D3*
X56550Y32850D3*
X87300Y73400D3*
X77160Y76050D3*
X74210Y32000D3*
X75600Y36848D3*
X53800Y37100D3*
X59600Y39800D3*
X58600Y45400D3*
X25100Y31800D3*
Y38400D3*
Y31800D3*
X75600Y36848D3*
X58600Y45400D3*
Y38400D3*
X29900Y39900D3*
X30900Y34300D3*
X59600Y39800D3*
X29900Y39900D3*
X30900Y34300D3*
Y38400D3*
X53800Y37100D3*
X41300Y34000D3*
D3*
Y38400D3*
X5950Y40100D3*
X25100Y38400D3*
X87150Y48000D3*
X84650Y78600D3*
X4230D3*
X20766D3*
D3*
X4230D3*
X65700D3*
X84650D3*
X65700D3*
X84650D3*
X41600Y30300D3*
X41300Y34000D3*
X8450Y36350D3*
X74257Y29700D3*
X7800Y29100D3*
Y33322D3*
X27905Y49887D3*
X27900Y37000D3*
X32000Y47300D3*
X27905Y49887D3*
X7800Y29100D3*
X27905Y49887D3*
X56600Y54250D3*
X64806Y33700D3*
X74257Y29700D3*
D3*
X21700Y41750D3*
X51200Y44100D3*
X50400Y47200D3*
X54050Y77000D3*
X87400Y76850D3*
X8050Y41200D3*
X21700Y41750D3*
X6770Y73300D3*
X7800Y43350D3*
X27450Y42900D3*
X8040Y73300D3*
X8600Y44000D3*
X26700Y43700D3*
X9310Y73300D3*
X9450Y44700D3*
X25850Y44350D3*
X24250Y44950D3*
X10200Y45450D3*
X10580Y73300D3*
X23450Y45750D3*
X10850Y46150D3*
X11850Y73300D3*
X22950Y46550D3*
X11250Y47050D3*
X13120Y73300D3*
X12050Y40700D3*
X14390Y73300D3*
X10850Y40550D3*
X15660Y73300D3*
X87000Y44000D3*
Y38000D3*
X79000D3*
Y44000D3*
X83000Y43500D3*
Y38500D3*
X86000Y41000D3*
X79000D3*
Y35000D3*
X83000Y34500D3*
X87000Y35000D3*
X86000Y32000D3*
X87000Y29000D3*
X83000Y29500D3*
X79000Y29000D3*
Y32000D3*
X8950Y60800D3*
X42805Y50620D3*
X51850Y42550D3*
X64550Y30700D3*
X63150Y39700D3*
X22250Y37500D3*
X30800Y33200D3*
X26450Y31800D3*
X16400Y26500D3*
X4550Y24900D3*
X69300Y26600D3*
X24800Y47300D3*
X3000Y30300D3*
X6500Y32800D3*
X56900Y41650D3*
X54650Y40600D3*
X56900Y45400D3*
X26650Y35900D3*
X98000Y34000D3*
X92000Y2000D3*
X98000Y8000D3*
X26650Y39700D3*
X37250Y47400D3*
X47400Y54450D3*
X56600Y55250D3*
X33650Y69600D3*
X19450Y77050D3*
X94950Y58550D3*
X92450Y55900D3*
X97300Y56000D3*
X95000Y53400D3*
X77900Y47000D3*
X92850Y80100D3*
X40800Y77100D3*
X51450Y66300D3*
X44250Y41250D3*
X30000Y43300D3*
X96100Y88200D3*
X1800Y71400D3*
X59550Y93350D3*
D102*
X72860Y90920D3*
D101*
X75400D3*
X77940D3*
X80480D3*
X83020D3*
X85560D3*
X88100D3*
X90640D3*
D18*
X75750Y2200D3*
Y8200D3*
X80250Y2200D3*
Y8200D3*
X67750Y2200D3*
Y8200D3*
X72250Y2200D3*
Y8200D3*
X59750Y2200D3*
Y8200D3*
X64250Y2200D3*
Y8200D3*
X51750Y2200D3*
Y8200D3*
X56250Y2200D3*
Y8200D3*
X43750Y2200D3*
Y8200D3*
X48250Y2200D3*
Y8200D3*
X35750Y2200D3*
Y8200D3*
X40250Y2200D3*
Y8200D3*
X27750Y2200D3*
Y8200D3*
X32250Y2200D3*
Y8200D3*
X19750Y2200D3*
Y8200D3*
X24250Y2200D3*
Y8200D3*
D102*
X29680Y96000D3*
D101*
X32220D3*
X34760D3*
X37300D3*
X39840D3*
X42380D3*
X44920D3*
X47460D3*
D98*
X25100Y32700D3*
Y34400D3*
D67*
X29700Y34300D3*
X28000D3*
X30000Y38500D3*
X28300D3*
X79000Y42000D3*
X77300D3*
X79000Y40000D3*
X77300D3*
X79000Y33100D3*
X77300D3*
X79000Y31000D3*
X77300D3*
X54800Y37100D3*
X56500D3*
X58800Y43900D3*
X57100D3*
X59700Y38650D3*
X61400D3*
X40500Y34000D3*
X38800D3*
X8600Y30500D3*
X6900D3*
D98*
X27900Y48750D3*
Y47050D3*
D67*
X21900Y80500D3*
X23600D3*
X21800Y78350D3*
X23500D3*
X66750Y80350D3*
X68450D3*
X66800Y78350D3*
X68500D3*
X5300Y80450D3*
X7000D3*
X5300Y78300D3*
X7000D3*
X84700Y80500D3*
X86400D3*
X86050Y78250D3*
X87750D3*
D102*
X72860Y96000D3*
D101*
X75400D3*
X77940D3*
X80480D3*
D102*
X83020D3*
D101*
X85560D3*
X88100D3*
X90640D3*
D49*
X89000Y7450D3*
X91500D3*
X94000D3*
X89000Y21950D3*
X94000D3*
D47*
X85650Y14950D3*
X97350D3*
D102*
X52540Y96000D3*
D101*
X55080D3*
X57620D3*
X60160D3*
X62700D3*
X65240D3*
X67780D3*
X70320D3*
D48*
X3000Y97000D3*
X97000D3*
X3000Y3000D3*
X97000D3*
D102*
X60160Y90920D3*
D101*
X62700D3*
X65240D3*
X67780D3*
D102*
X34760D3*
D101*
X37300D3*
X39840D3*
X42380D3*
D102*
X3200Y54400D3*
D101*
Y51860D3*
Y49320D3*
Y46780D3*
Y44240D3*
Y41700D3*
D17*
X83440Y52540D3*
D18*
Y50000D3*
Y47460D3*
D102*
X9360Y90920D3*
D101*
X11900D3*
X14440D3*
X16980D3*
X19520D3*
X22060D3*
X24600D3*
X27140D3*
D17*
X95720D3*
D49*
X12000Y22000D3*
X9500D3*
X7000D3*
X15350Y15000D3*
X3650D3*
D102*
X47460Y90920D3*
D101*
X50000D3*
X52540D3*
X55080D3*
D80*
X78000Y13700D3*
Y18400D3*
Y23100D3*
X70000Y13700D3*
Y18400D3*
Y23100D3*
X62000Y13700D3*
Y18400D3*
Y23100D3*
X54000Y13700D3*
Y18400D3*
Y23100D3*
X46000Y13700D3*
Y18400D3*
Y23100D3*
X38000Y13700D3*
Y18400D3*
Y23100D3*
X30000Y13700D3*
Y18400D3*
Y23100D3*
X22000Y13700D3*
Y18400D3*
Y23100D3*
D102*
X9360Y96000D3*
D101*
X11900D3*
X14440D3*
X16980D3*
X19520D3*
X22060D3*
X24600D3*
X27140D3*
D66*
X40000Y69000D3*
D64*
X42540D3*
X45080D3*
X47620D3*
X50160D3*
X52700D3*
X55240D3*
X57780D3*
X60320D3*
Y84240D3*
X57780D3*
X55240D3*
X52700D3*
X50160D3*
X47620D3*
X45080D3*
X42540D3*
X40000D3*
D50*
X90500Y50000D3*
D26*
X94900D3*
D51*
X94700Y36550D3*
Y32150D3*
M02*
